SplineFontDB: 3.0
FontName: Kaumudi
FullName: Kaumudi
FamilyName: Kaumudi
Weight: Book
Copyright: Copyright(C) 2012 Rahul.V, All rights reserved.Mob:+91-99464 29992, 88910 29992. Email: rahul@kaumudi.com, rahulv@kimo.com; Kaumudi font Licensed under the GNU GENERAL PUBLIC LICENSE Version 3. As a special exception, if you create a document which uses this font, and embed this font or unaltered portions of this font into the document, this font does not by itself cause the resulting document to be covered by the GNU General Public License. This exception does not however invalidate any other reasons why the document might be covered by the GNU General Public License. \nSpecial Thanks To: Jijo George & Amjith Sher\n.
Version: 1.500 January 10, 2012: Designed & Developed By Rahul Vijay, Kerala Kaumudi. +91-9946429992, rahulv@kimo.com
ItalicAngle: 0
UnderlinePosition: -204
UnderlineWidth: 70
Ascent: 1638
Descent: 410
sfntRevision: 0x00010000
LayerCount: 2
Layer: 0 1 "Back"  1
Layer: 1 1 "Fore"  0
XUID: [1021 367 8562 25766]
FSType: 8
OS2Version: 3
OS2_WeightWidthSlopeOnly: 0
OS2_UseTypoMetrics: 1
CreationTime: 1339854058
ModificationTime: 1359097750
PfmFamily: 17
TTFWeight: 400
TTFWidth: 5
LineGap: 650
VLineGap: 0
Panose: 2 0 0 0 0 0 0 0 0 0
OS2TypoAscent: 1746
OS2TypoAOffset: 0
OS2TypoDescent: -1000
OS2TypoDOffset: 0
OS2TypoLinegap: 650
OS2WinAscent: 1826
OS2WinAOffset: 0
OS2WinDescent: 1000
OS2WinDOffset: 0
HheadAscent: 1746
HheadAOffset: 0
HheadDescent: -1000
HheadDOffset: 0
OS2SubXSize: 1750
OS2SubYSize: 1750
OS2SubXOff: 0
OS2SubYOff: 286
OS2SupXSize: 1731
OS2SupYSize: 1733
OS2SupXOff: 0
OS2SupYOff: 1000
OS2StrikeYSize: 102
OS2StrikeYPos: 530
OS2FamilyClass: 1028
OS2Vendor: 'rahu'
OS2CodePages: 00000001.00000000
OS2UnicodeRanges: 00800001.00000000.00000000.00000000
Lookup: 4 0 0 "'akhn' Akhand lookup 0"  {"'akhn' Akhand lookup 0 subtable"  } ['akhn' ('DFLT' <'dflt' > 'deva' <'dflt' > 'mly2' <'dflt' > 'mlym' <'dflt' > 'sinh' <'dflt' > ) ]

StartChar: .notdef
Encoding: 65536 -1 0
Width: 1294
Flags: W
LayerCount: 2
Fore
SplineSet
897 572 m 1,0,1
 863 542 863 542 830 516 c 0,2,3
 748 450 748 450 748 379 c 2,4,-1
 748 298 l 1,5,-1
 639 298 l 1,6,-1
 639 386 l 2,7,8
 639 473 639 473 717 543 c 1,9,-1
 717 542 l 1,10,11
 735 556 735 556 752.5 570.5 c 128,-1,12
 770 585 770 585 787 601 c 1,13,-1
 787 600 l 1,14,15
 867 666 867 666 867 740 c 0,16,17
 867 813 867 813 822 851 c 0,18,19
 776 890 776 890 691 890 c 0,20,21
 605 890 605 890 568 841 c 128,-1,22
 531 792 531 792 531 699 c 1,23,-1
 429 699 l 1,24,25
 430 838 430 838 499.5 910 c 128,-1,26
 569 982 569 982 700 982 c 0,27,28
 829 982 829 982 903 918 c 0,29,30
 978 854 978 854 978 751 c 0,31,32
 978 647 978 647 897 572 c 1,0,1
748 228 m 1,33,-1
 748 103 l 1,34,-1
 639 103 l 1,35,-1
 639 228 l 1,36,-1
 748 228 l 1,33,-1
1198 1303 m 1,37,-1
 1198 -195 l 1,38,-1
 223 -195 l 1,39,-1
 223 1303 l 1,40,-1
 1198 1303 l 1,37,-1
335 1184 m 1,41,-1
 335 -84 l 1,42,-1
 1091 -84 l 1,43,-1
 1091 1184 l 1,44,-1
 335 1184 l 1,41,-1
EndSplineSet
Ligature2: "'akhn' Akhand lookup 1 subtable" ml_sa ml_chand ml_pa
EndChar

StartChar: exclam
Encoding: 33 33 4
Width: 569
GlyphClass: 2
Flags: W
LayerCount: 2
Fore
SplineSet
234 358 m 1,0,1
 220 548 220 548 206.5 739 c 128,-1,2
 193 930 193 930 179 1120 c 1,3,-1
 179 1439 l 1,4,-1
 397 1439 l 1,5,-1
 397 1120 l 1,6,7
 384 928 384 928 371 739 c 128,-1,8
 358 550 358 550 345 358 c 1,9,-1
 234 358 l 1,0,1
187 0 m 1,10,-1
 187 198 l 1,11,-1
 389 198 l 1,12,-1
 389 0 l 1,13,-1
 187 0 l 1,10,-1
EndSplineSet
EndChar

StartChar: quotedbl
Encoding: 34 34 5
Width: 588
GlyphClass: 2
Flags: W
LayerCount: 2
Fore
SplineSet
458 875 m 1,0,-1
 444 893 l 2,1,2
 443 894 443 894 442 894.5 c 128,-1,3
 441 895 441 895 440 896 c 0,4,5
 305 1037 305 1037 307 1258 c 1,6,-1
 307 1297 l 1,7,8
 313 1295 313 1295 319 1293.5 c 128,-1,9
 325 1292 325 1292 331 1290 c 0,10,11
 342 1287 342 1287 353.5 1286 c 128,-1,12
 365 1285 365 1285 377 1285 c 256,13,14
 389 1285 389 1285 400 1286 c 128,-1,15
 411 1287 411 1287 422 1290 c 0,16,17
 428 1292 428 1292 435.5 1293.5 c 128,-1,18
 443 1295 443 1295 450 1297 c 1,19,-1
 446 1265 l 2,20,21
 445 1255 445 1255 445 1241.5 c 128,-1,22
 445 1228 445 1228 445 1214 c 0,23,24
 445 1060 445 1060 509 960 c 0,25,26
 511 956 511 956 515.5 951 c 128,-1,27
 520 946 520 946 523 942 c 1,28,-1
 502 931 l 1,29,30
 483 916 483 916 473 901 c 1,31,-1
 458 875 l 1,0,-1
212 893 m 1,32,33
 75 1029 75 1029 76 1258 c 1,34,-1
 76 1297 l 1,35,36
 82 1295 82 1295 88.5 1293.5 c 128,-1,37
 95 1292 95 1292 101 1290 c 0,38,39
 111 1287 111 1287 122.5 1286 c 128,-1,40
 134 1285 134 1285 146 1285 c 256,41,42
 158 1285 158 1285 168.5 1286 c 128,-1,43
 179 1287 179 1287 189 1290 c 0,44,45
 196 1292 196 1292 204 1293.5 c 128,-1,46
 212 1295 212 1295 220 1297 c 1,47,-1
 215 1265 l 1,48,-1
 215 1214 l 2,49,50
 215 1061 215 1061 280 960 c 1,51,-1
 293 942 l 1,52,-1
 271 930 l 1,53,54
 263 923 263 923 255.5 916 c 128,-1,55
 248 909 248 909 243 901 c 0,56,57
 239 895 239 895 234.5 888 c 128,-1,58
 230 881 230 881 226 875 c 1,59,-1
 212 893 l 1,32,33
EndSplineSet
EndChar

StartChar: numbersign
Encoding: 35 35 6
Width: 1139
GlyphClass: 2
Flags: W
LayerCount: 2
Fore
SplineSet
105 -25 m 1,0,-1
 193 395 l 1,1,-1
 23 395 l 1,2,-1
 23 537 l 1,3,-1
 223 537 l 1,4,-1
 297 898 l 1,5,-1
 23 898 l 1,6,-1
 23 1041 l 1,7,-1
 327 1041 l 1,8,-1
 414 1463 l 1,9,-1
 559 1463 l 1,10,-1
 472 1041 l 1,11,-1
 794 1041 l 1,12,-1
 881 1463 l 1,13,-1
 1027 1463 l 1,14,-1
 939 1041 l 1,15,-1
 1113 1041 l 1,16,-1
 1113 898 l 1,17,-1
 909 898 l 1,18,-1
 834 537 l 1,19,-1
 1113 537 l 1,20,-1
 1113 395 l 1,21,-1
 804 395 l 1,22,-1
 717 -25 l 1,23,-1
 572 -25 l 1,24,-1
 658 395 l 1,25,-1
 337 395 l 1,26,-1
 250 -25 l 1,27,-1
 105 -25 l 1,0,-1
367 537 m 1,28,-1
 689 537 l 1,29,-1
 764 898 l 1,30,-1
 442 898 l 1,31,-1
 367 537 l 1,28,-1
EndSplineSet
EndChar

StartChar: dollar
Encoding: 36 36 7
Width: 1078
GlyphClass: 2
Flags: W
LayerCount: 2
Fore
SplineSet
499 -202 m 1,0,-1
 499 -31 l 1,1,2
 427 -24 427 -24 373.5 -9 c 128,-1,3
 320 6 320 6 280 25 c 1,4,5
 201 65 201 65 143 157 c 0,6,7
 113 203 113 203 96 257.5 c 128,-1,8
 79 312 79 312 75 371 c 1,9,10
 112 378 112 378 154.5 386 c 128,-1,11
 197 394 197 394 234 401 c 1,12,13
 253 270 253 270 306 203 c 1,14,15
 344 157 344 157 390.5 130 c 128,-1,16
 437 103 437 103 499 97 c 1,17,-1
 499 658 l 1,18,19
 383 678 383 678 273 739 c 0,20,21
 192 784 192 784 148.5 862.5 c 128,-1,22
 105 941 105 941 105 1042 c 0,23,24
 105 1221 105 1221 234 1331 c 0,25,26
 321 1406 321 1406 499 1424 c 1,27,-1
 499 1504 l 1,28,-1
 583 1504 l 1,29,-1
 583 1424 l 1,30,31
 740 1409 740 1409 828 1337 c 1,32,33
 940 1247 940 1247 962 1094 c 1,34,35
 924 1089 924 1089 881 1082 c 128,-1,36
 838 1075 838 1075 799 1069 c 1,37,38
 784 1166 784 1166 732.5 1221 c 128,-1,39
 681 1276 681 1276 583 1297 c 1,40,-1
 583 787 l 1,41,42
 654 770 654 770 698 758 c 128,-1,43
 742 746 742 746 764 735 c 1,44,45
 881 685 881 685 939.5 597.5 c 128,-1,46
 998 510 998 510 998 388 c 0,47,48
 998 212 998 212 884 95 c 0,49,50
 772 -21 772 -21 583 -28 c 1,51,-1
 583 -202 l 1,52,-1
 499 -202 l 1,0,-1
499 1297 m 1,53,54
 383 1279 383 1279 322 1213 c 0,55,56
 291 1179 291 1179 276.5 1139.5 c 128,-1,57
 262 1100 262 1100 262 1056 c 0,58,59
 262 1010 262 1010 274 972.5 c 128,-1,60
 286 935 286 935 314 903.5 c 128,-1,61
 342 872 342 872 385.5 848 c 128,-1,62
 429 824 429 824 499 804 c 1,63,-1
 499 1297 l 1,53,54
583 97 m 1,64,65
 699 112 699 112 767 188 c 0,66,67
 800 225 800 225 818 273 c 128,-1,68
 836 321 836 321 836 376 c 0,69,70
 836 470 836 470 786 529 c 1,71,72
 738 589 738 589 583 638 c 1,73,-1
 583 97 l 1,64,65
EndSplineSet
EndChar

StartChar: percent
Encoding: 37 37 8
Width: 1821
GlyphClass: 2
Flags: W
LayerCount: 2
Fore
SplineSet
121 1094 m 0,0,1
 121 1250 121 1250 199 1355 c 0,2,3
 278 1463 278 1463 427 1463 c 0,4,5
 564 1463 564 1463 654 1366 c 1,6,7
 744 1272 744 1272 744 1083 c 0,8,9
 744 900 744 900 653 802 c 0,10,11
 563 705 563 705 429 705 c 0,12,13
 297 705 297 705 208 801 c 0,14,15
 121 896 121 896 121 1094 c 0,0,1
272 1076 m 0,16,17
 272 939 272 939 318 879 c 1,18,19
 366 822 366 822 432 822 c 0,20,21
 501 822 501 822 546 880 c 1,22,23
 568 911 568 911 580.5 963.5 c 128,-1,24
 593 1016 593 1016 593 1090 c 0,25,26
 593 1159 593 1159 580.5 1208.5 c 128,-1,27
 568 1258 568 1258 546 1287 c 0,28,29
 501 1345 501 1345 432 1345 c 256,30,31
 363 1345 363 1345 317 1287 c 1,32,33
 272 1228 272 1228 272 1076 c 0,16,17
438 -53 m 1,34,35
 637 322 637 322 839 705 c 128,-1,36
 1041 1088 1041 1088 1240 1463 c 1,37,-1
 1379 1463 l 1,38,39
 1181 1088 1181 1088 979.5 704.5 c 128,-1,40
 778 321 778 321 580 -53 c 1,41,-1
 438 -53 l 1,34,35
1072 336 m 0,42,43
 1072 493 1072 493 1151 598 c 1,44,45
 1229 706 1229 706 1379 706 c 0,46,47
 1517 706 1517 706 1606 609 c 1,48,49
 1697 516 1697 516 1697 325 c 0,50,51
 1697 142 1697 142 1605 44 c 0,52,53
 1515 -53 1515 -53 1380 -53 c 0,54,55
 1314 -53 1314 -53 1259.5 -28.5 c 128,-1,56
 1205 -4 1205 -4 1160 43 c 1,57,58
 1118 92 1118 92 1095 166.5 c 128,-1,59
 1072 241 1072 241 1072 336 c 0,42,43
1385 587 m 0,60,61
 1313 587 1313 587 1269 529 c 0,62,63
 1224 470 1224 470 1224 319 c 0,64,65
 1224 182 1224 182 1270 123 c 0,66,67
 1314 65 1314 65 1384 65 c 256,68,69
 1454 65 1454 65 1499 123 c 1,70,71
 1521 154 1521 154 1533 206.5 c 128,-1,72
 1545 259 1545 259 1545 332 c 0,73,74
 1545 402 1545 402 1533 451.5 c 128,-1,75
 1521 501 1521 501 1499 529 c 0,76,77
 1454 587 1454 587 1385 587 c 0,60,61
EndSplineSet
EndChar

StartChar: ampersand
Encoding: 38 38 9
Width: 1366
GlyphClass: 2
Flags: W
LayerCount: 2
Fore
SplineSet
964 175 m 1,0,1
 785 -19 785 -19 547 -19 c 0,2,3
 438 -19 438 -19 349 19.5 c 128,-1,4
 260 58 260 58 195 127 c 1,5,6
 144 186 144 186 117 254.5 c 128,-1,7
 90 323 90 323 90 396 c 0,8,9
 90 658 90 658 445 823 c 1,10,11
 341 940 341 940 307 1012 c 0,12,13
 275 1079 275 1079 275 1143 c 0,14,15
 275 1270 275 1270 375 1363 c 0,16,17
 477 1457 477 1457 631 1457 c 0,18,19
 779 1457 779 1457 871 1369 c 0,20,21
 964 1280 964 1280 964 1157 c 0,22,23
 964 956 964 956 683 809 c 1,24,-1
 961 461 l 1,25,26
 989 515 989 515 1007.5 565 c 128,-1,27
 1026 615 1026 615 1038 667 c 1,28,29
 1079 659 1079 659 1122.5 649 c 128,-1,30
 1166 639 1166 639 1207 630 c 1,31,32
 1160 452 1160 452 1077 327 c 1,33,34
 1186 189 1186 189 1304 103 c 1,35,36
 1278 74 1278 74 1248.5 40 c 128,-1,37
 1219 6 1219 6 1194 -25 c 1,38,39
 1143 8 1143 8 1088 57.5 c 128,-1,40
 1033 107 1033 107 974 175 c 1,41,-1
 964 175 l 1,0,1
601 910 m 1,42,43
 725 983 725 983 762 1035 c 1,44,45
 798 1088 798 1088 798 1152 c 0,46,47
 798 1230 798 1230 746 1277 c 1,48,49
 698 1327 698 1327 622 1327 c 0,50,51
 547 1327 547 1327 494 1278 c 0,52,53
 442 1231 442 1231 442 1159 c 0,54,55
 442 1127 442 1127 460.5 1088 c 128,-1,56
 479 1049 479 1049 515 1007 c 2,57,-1
 601 910 l 1,42,43
526 721 m 1,58,59
 450 676 450 676 399 634.5 c 128,-1,60
 348 593 348 593 320 555 c 0,61,62
 267 480 267 480 267 407 c 0,63,64
 267 317 267 317 340 220 c 0,65,66
 413 122 413 122 549 122 c 0,67,68
 592 122 592 122 634.5 134.5 c 128,-1,69
 677 147 677 147 721 172 c 0,70,71
 767 198 767 198 802.5 231 c 128,-1,72
 838 264 838 264 866 307 c 1,73,-1
 526 721 l 1,58,59
EndSplineSet
EndChar

StartChar: quotesingle
Encoding: 39 39 10
Width: 368
GlyphClass: 2
Flags: W
LayerCount: 2
Fore
SplineSet
288 1258 m 2,0,1
 288 1143 288 1143 253 1052.5 c 128,-1,2
 218 962 218 962 148 893 c 0,3,4
 144 888 144 888 140.5 883.5 c 128,-1,5
 137 879 137 879 133 874 c 1,6,-1
 118 901 l 2,7,8
 108 919 108 919 90 931 c 1,9,10
 85 933 85 933 79 936.5 c 128,-1,11
 73 940 73 940 68 942 c 1,12,-1
 79 960 l 1,13,14
 147 1060 147 1060 147 1214 c 0,15,16
 147 1228 147 1228 146.5 1241.5 c 128,-1,17
 146 1255 146 1255 145 1265 c 0,18,19
 144 1273 144 1273 142.5 1281.5 c 128,-1,20
 141 1290 141 1290 140 1298 c 1,21,22
 148 1296 148 1296 154.5 1294 c 128,-1,23
 161 1292 161 1292 169 1290 c 0,24,25
 179 1287 179 1287 190 1286 c 128,-1,26
 201 1285 201 1285 213 1285 c 0,27,28
 226 1285 226 1285 237.5 1286 c 128,-1,29
 249 1287 249 1287 260 1290 c 1,30,-1
 267 1290 l 1,31,32
 271 1291 271 1291 277 1293 c 128,-1,33
 283 1295 283 1295 288 1297 c 1,34,-1
 288 1258 l 2,0,1
EndSplineSet
EndChar

StartChar: parenleft
Encoding: 40 40 11
Width: 682
GlyphClass: 2
Flags: W
LayerCount: 2
Fore
SplineSet
481 -424 m 1,0,1
 409 -334 409 -334 345 -225 c 128,-1,2
 281 -116 281 -116 230 8 c 0,3,4
 127 255 127 255 127 520 c 0,5,6
 127 636 127 636 146.5 749 c 128,-1,7
 166 862 166 862 204 968 c 0,8,9
 226 1027 226 1027 255.5 1090.5 c 128,-1,10
 285 1154 285 1154 321 1217.5 c 128,-1,11
 357 1281 357 1281 397.5 1343 c 128,-1,12
 438 1405 438 1405 481 1463 c 1,13,-1
 605 1463 l 1,14,15
 544 1361 544 1361 505 1289 c 128,-1,16
 466 1217 466 1217 446 1174 c 1,17,18
 417 1108 417 1108 392 1034.5 c 128,-1,19
 367 961 367 961 350 889 c 0,20,21
 329 798 329 798 317.5 705 c 128,-1,22
 306 612 306 612 306 519 c 0,23,24
 306 281 306 281 380.5 47.5 c 128,-1,25
 455 -186 455 -186 605 -424 c 1,26,-1
 481 -424 l 1,0,1
EndSplineSet
EndChar

StartChar: parenright
Encoding: 41 41 12
Width: 682
GlyphClass: 2
Flags: W
LayerCount: 2
Fore
SplineSet
129 -424 m 1,0,1
 427 49 427 49 427 519 c 0,2,3
 427 610 427 610 416 703.5 c 128,-1,4
 405 797 405 797 384 886 c 0,5,6
 367 958 367 958 342 1032 c 128,-1,7
 317 1106 317 1106 288 1170 c 0,8,9
 268 1215 268 1215 228.5 1288 c 128,-1,10
 189 1361 189 1361 129 1463 c 1,11,-1
 252 1463 l 1,12,13
 345 1342 345 1342 414.5 1218 c 128,-1,14
 484 1094 484 1094 529 968 c 0,15,16
 567 861 567 861 587 749.5 c 128,-1,17
 607 638 607 638 607 520 c 0,18,19
 607 387 607 387 580.5 260 c 128,-1,20
 554 133 554 133 502 8 c 0,21,22
 451 -115 451 -115 387.5 -224 c 128,-1,23
 324 -333 324 -333 252 -424 c 1,24,-1
 129 -424 l 1,0,1
EndSplineSet
EndChar

StartChar: asterisk
Encoding: 42 42 13
Width: 797
GlyphClass: 2
Flags: W
LayerCount: 2
Fore
SplineSet
112 1312 m 1,0,1
 189 1287 189 1287 247.5 1262 c 128,-1,2
 306 1237 306 1237 345 1215 c 1,3,4
 325 1391 325 1391 324 1463 c 1,5,-1
 464 1463 l 1,6,7
 461 1368 461 1368 440 1217 c 1,8,9
 542 1268 542 1268 678 1312 c 1,10,-1
 723 1177 l 1,11,12
 660 1157 660 1157 596 1142.5 c 128,-1,13
 532 1128 532 1128 471 1121 c 1,14,15
 506 1092 506 1092 549.5 1046.5 c 128,-1,16
 593 1001 593 1001 647 936 c 1,17,18
 617 914 617 914 587.5 894 c 128,-1,19
 558 874 558 874 529 854 c 1,20,21
 502 890 502 890 468 944 c 128,-1,22
 434 998 434 998 392 1068 c 1,23,24
 354 997 354 997 321 942.5 c 128,-1,25
 288 888 288 888 261 854 c 1,26,27
 232 874 232 874 204 894 c 128,-1,28
 176 914 176 914 147 936 c 1,29,30
 204 1006 204 1006 245.5 1052 c 128,-1,31
 287 1098 287 1098 313 1121 c 1,32,33
 249 1134 249 1134 187.5 1147 c 128,-1,34
 126 1160 126 1160 68 1177 c 1,35,-1
 112 1312 l 1,0,1
EndSplineSet
EndChar

StartChar: plus
Encoding: 43 43 14
Width: 1196
GlyphClass: 2
Flags: W
LayerCount: 2
Fore
SplineSet
517 233 m 1,0,-1
 517 628 l 1,1,-1
 116 628 l 1,2,-1
 116 790 l 1,3,-1
 517 790 l 1,4,-1
 517 1183 l 1,5,-1
 681 1183 l 1,6,-1
 681 790 l 1,7,-1
 1082 790 l 1,8,-1
 1082 628 l 1,9,-1
 681 628 l 1,10,-1
 681 233 l 1,11,-1
 517 233 l 1,0,-1
EndSplineSet
EndChar

StartChar: comma
Encoding: 44 44 15
Width: 569
GlyphClass: 2
Flags: W
LayerCount: 2
Fore
SplineSet
380 -31 m 0,1,2
 325 -147 325 -147 207 -245 c 1,3,4
 173 -202 173 -202 121 -176 c 1,5,6
 239 -33 239 -33 239 161 c 0,7,8
 239 176 239 176 237 198 c 0,9,10
 236 211 236 211 234 226 c 1,11,-1
 435 224 l 1,12,0
 434 82 434 82 380 -31 c 0,1,2
EndSplineSet
EndChar

StartChar: hyphen
Encoding: 45 45 16
Width: 682
GlyphClass: 2
Flags: W
LayerCount: 2
Fore
SplineSet
68 433 m 1,0,-1
 68 607 l 1,1,-1
 617 607 l 1,2,-1
 617 433 l 1,3,-1
 68 433 l 1,0,-1
EndSplineSet
EndChar

StartChar: period
Encoding: 46 46 17
Width: 569
GlyphClass: 2
Flags: W
LayerCount: 2
Fore
SplineSet
189 0 m 1,0,-1
 189 198 l 1,1,-1
 389 198 l 1,2,-1
 389 0 l 1,3,-1
 189 0 l 1,0,-1
EndSplineSet
EndChar

StartChar: slash
Encoding: 47 47 18
Width: 705
GlyphClass: 2
Flags: W
LayerCount: 2
Fore
SplineSet
143 -25 m 1,0,-1
 569 1463 l 1,1,-1
 737 1463 l 1,2,-1
 312 -25 l 1,3,-1
 143 -25 l 1,0,-1
EndSplineSet
EndChar

StartChar: zero
Encoding: 48 48 19
Width: 1139
GlyphClass: 2
Flags: W
LayerCount: 2
Fore
SplineSet
87 710 m 0,0,1
 87 835 87 835 100.5 938.5 c 128,-1,2
 114 1042 114 1042 140 1119 c 1,3,4
 168 1193 168 1193 208.5 1255.5 c 128,-1,5
 249 1318 249 1318 299 1359 c 0,6,7
 407 1445 407 1445 564 1445 c 0,8,9
 682 1445 682 1445 770.5 1398.5 c 128,-1,10
 859 1352 859 1352 916 1263 c 1,11,12
 946 1219 946 1219 968.5 1165.5 c 128,-1,13
 991 1112 991 1112 1008 1049 c 0,14,15
 1041 923 1041 923 1041 710 c 0,16,17
 1041 584 1041 584 1027.5 481 c 128,-1,18
 1014 378 1014 378 988 300 c 0,19,20
 962 225 962 225 921 163 c 128,-1,21
 880 101 880 101 829 60 c 0,22,23
 723 -25 723 -25 564 -25 c 0,24,25
 461 -25 461 -25 376.5 14 c 128,-1,26
 292 53 292 53 232 123 c 1,27,28
 160 214 160 214 123.5 361 c 128,-1,29
 87 508 87 508 87 710 c 0,0,1
861 710 m 0,30,31
 861 882 861 882 838.5 1002 c 128,-1,32
 816 1122 816 1122 775 1184 c 1,33,34
 732 1242 732 1242 678.5 1272 c 128,-1,35
 625 1302 625 1302 562 1302 c 0,36,37
 434 1302 434 1302 361 1198 c 0,38,39
 267 1064 267 1064 267 710 c 0,40,41
 267 354 267 354 352 235 c 1,42,43
 440 117 440 117 564 117 c 0,44,45
 689 117 689 117 775 236 c 0,46,47
 819 296 819 296 840 414 c 128,-1,48
 861 532 861 532 861 710 c 0,30,31
EndSplineSet
EndChar

StartChar: one
Encoding: 49 49 20
Width: 1044
GlyphClass: 2
Flags: W
LayerCount: 2
Fore
SplineSet
762 0 m 1,0,-1
 587 0 l 1,1,-1
 587 1128 l 1,2,3
 519 1064 519 1064 411 1004 c 0,4,5
 357 973 357 973 312 950.5 c 128,-1,6
 267 928 267 928 226 913 c 1,7,-1
 226 1079 l 1,8,9
 301 1113 301 1113 367 1156 c 128,-1,10
 433 1199 433 1199 490 1249 c 0,11,12
 547 1298 547 1298 588 1346 c 128,-1,13
 629 1394 629 1394 652 1440 c 1,14,-1
 762 1440 l 1,15,-1
 762 0 l 1,0,-1
EndSplineSet
EndChar

StartChar: two
Encoding: 50 50 21
Width: 1139
GlyphClass: 2
Flags: W
LayerCount: 2
Fore
SplineSet
1046 167 m 1,0,-1
 1046 0 l 1,1,-1
 79 0 l 1,2,3
 78 25 78 25 85 59.5 c 128,-1,4
 92 94 92 94 100 120 c 1,5,6
 120 167 120 167 150.5 217.5 c 128,-1,7
 181 268 181 268 218 312 c 1,8,9
 258 357 258 357 317 412 c 128,-1,10
 376 467 376 467 455 529 c 1,11,12
 574 626 574 626 655 701.5 c 128,-1,13
 736 777 736 777 779 835 c 0,14,15
 864 951 864 951 864 1050 c 0,16,17
 864 1155 864 1155 786 1228 c 0,18,19
 708 1302 708 1302 584 1302 c 0,20,21
 453 1302 453 1302 373 1224 c 0,22,23
 295 1148 295 1148 293 1012 c 1,24,25
 248 1017 248 1017 203.5 1021.5 c 128,-1,26
 159 1026 159 1026 113 1031 c 1,27,28
 122 1132 122 1132 158.5 1209.5 c 128,-1,29
 195 1287 195 1287 255.5 1339 c 128,-1,30
 316 1391 316 1391 400 1418 c 128,-1,31
 484 1445 484 1445 588 1445 c 0,32,33
 798 1445 798 1445 921 1330 c 0,34,35
 1044 1216 1044 1216 1044 1046 c 0,36,37
 1044 960 1044 960 1008 876 c 128,-1,38
 972 792 972 792 888 701 c 1,39,40
 850 657 850 657 778.5 592.5 c 128,-1,41
 707 528 707 528 610 448 c 1,42,43
 538 387 538 387 482.5 339.5 c 128,-1,44
 427 292 427 292 401 265 c 0,45,46
 378 241 378 241 357 215 c 128,-1,47
 336 189 336 189 322 167 c 1,48,-1
 1046 167 l 1,0,-1
EndSplineSet
EndChar

StartChar: three
Encoding: 51 51 22
Width: 1139
GlyphClass: 2
Flags: W
LayerCount: 2
Fore
SplineSet
264 400 m 1,0,1
 279 324 279 324 306 271 c 128,-1,2
 333 218 333 218 369.5 183.5 c 128,-1,3
 406 149 406 149 452.5 133 c 128,-1,4
 499 117 499 117 554 117 c 0,5,6
 684 117 684 117 771 205 c 1,7,8
 860 292 860 292 860 420 c 0,9,10
 860 543 860 543 778 621 c 1,11,12
 696 703 696 703 569 703 c 0,13,14
 543 703 543 703 512.5 698 c 128,-1,15
 482 693 482 693 445 684 c 1,16,17
 450 722 450 722 455 759 c 128,-1,18
 460 796 460 796 465 834 c 0,19,20
 466 834 466 834 467 833.5 c 128,-1,21
 468 833 468 833 469 833 c 0,22,23
 474 832 474 832 480.5 832 c 128,-1,24
 487 832 487 832 491 832 c 0,25,26
 608 832 608 832 701 891 c 1,27,28
 794 953 794 953 794 1075 c 0,29,30
 794 1174 794 1174 726 1238 c 0,31,32
 691 1270 691 1270 647.5 1286.5 c 128,-1,33
 604 1303 604 1303 550 1303 c 0,34,35
 443 1303 443 1303 372 1238 c 128,-1,36
 301 1173 301 1173 281 1043 c 1,37,38
 236 1051 236 1051 193.5 1058 c 128,-1,39
 151 1065 151 1065 106 1073 c 1,40,41
 123 1158 123 1158 161.5 1228.5 c 128,-1,42
 200 1299 200 1299 256 1346 c 0,43,44
 374 1445 374 1445 546 1445 c 0,45,46
 666 1445 666 1445 767 1393 c 1,47,48
 866 1344 866 1344 919 1256 c 1,49,50
 974 1170 974 1170 974 1071 c 0,51,52
 974 977 974 977 922 900.5 c 128,-1,53
 870 824 870 824 767 778 c 1,54,55
 833 763 833 763 885 732 c 128,-1,56
 937 701 937 701 972.5 656 c 128,-1,57
 1008 611 1008 611 1027 552 c 128,-1,58
 1046 493 1046 493 1046 424 c 0,59,60
 1046 235 1046 235 906 104 c 0,61,62
 768 -25 768 -25 553 -25 c 0,63,64
 359 -25 359 -25 233 86 c 0,65,66
 172 141 172 141 135.5 216 c 128,-1,67
 99 291 99 291 88 377 c 1,68,-1
 264 400 l 1,0,1
EndSplineSet
EndChar

StartChar: four
Encoding: 52 52 23
Width: 1150
GlyphClass: 2
Flags: W
LayerCount: 2
Fore
SplineSet
737 0 m 1,0,-1
 737 345 l 1,1,-1
 98 345 l 1,2,-1
 98 506 l 1,3,-1
 97 505 l 1,4,5
 264 736 264 736 432.5 971.5 c 128,-1,6
 601 1207 601 1207 768 1439 c 1,7,-1
 911 1439 l 1,8,-1
 911 504 l 1,9,-1
 1110 504 l 1,10,-1
 1110 345 l 1,11,-1
 911 345 l 1,12,-1
 911 0 l 1,13,-1
 737 0 l 1,0,-1
737 504 m 1,14,-1
 737 1163 l 1,15,-1
 269 504 l 1,16,-1
 737 504 l 1,14,-1
EndSplineSet
EndChar

StartChar: five
Encoding: 53 53 24
Width: 1139
GlyphClass: 2
Flags: W
LayerCount: 2
Fore
SplineSet
271 391 m 1,0,1
 281 323 281 323 306.5 272 c 128,-1,2
 332 221 332 221 369.5 186.5 c 128,-1,3
 407 152 407 152 454.5 135 c 128,-1,4
 502 118 502 118 557 118 c 0,5,6
 689 118 689 118 780 216 c 1,7,8
 871 312 871 312 871 473 c 0,9,10
 871 547 871 547 847.5 608 c 128,-1,11
 824 669 824 669 783 714 c 1,12,13
 741 755 741 755 681.5 779 c 128,-1,14
 622 803 622 803 554 803 c 0,15,16
 511 803 511 803 471.5 792 c 128,-1,17
 432 781 432 781 397 762.5 c 128,-1,18
 362 744 362 744 333.5 718.5 c 128,-1,19
 305 693 305 693 284 663 c 1,20,21
 242 667 242 667 201.5 673 c 128,-1,22
 161 679 161 679 119 684 c 1,23,24
 155 871 155 871 191 1054 c 128,-1,25
 227 1237 227 1237 262 1423 c 1,26,-1
 988 1423 l 1,27,-1
 988 1257 l 1,28,-1
 400 1257 l 1,29,-1
 320 861 l 1,30,31
 456 956 456 956 602 956 c 0,32,33
 793 956 793 956 925 824 c 1,34,35
 1057 695 1057 695 1057 489 c 0,36,37
 1057 293 1057 293 941 151 c 1,38,39
 800 -25 800 -25 557 -25 c 0,40,41
 460 -25 460 -25 377 3.5 c 128,-1,42
 294 32 294 32 231 84 c 1,43,44
 171 140 171 140 133.5 213.5 c 128,-1,45
 96 287 96 287 87 374 c 1,46,-1
 271 391 l 1,0,1
EndSplineSet
EndChar

StartChar: six
Encoding: 54 54 25
Width: 1139
GlyphClass: 2
Flags: W
LayerCount: 2
Fore
SplineSet
855 1075 m 1,0,1
 831 1177 831 1177 786 1226 c 1,2,3
 711 1303 711 1303 603 1303 c 0,4,5
 560 1303 560 1303 521 1290.5 c 128,-1,6
 482 1278 482 1278 450 1256 c 1,7,8
 408 1225 408 1225 373 1178.5 c 128,-1,9
 338 1132 338 1132 314 1076 c 1,10,11
 291 1017 291 1017 277.5 930.5 c 128,-1,12
 264 844 264 844 263 732 c 1,13,14
 332 833 332 833 426 882.5 c 128,-1,15
 520 932 520 932 623 932 c 0,16,17
 803 932 803 932 928 802 c 1,18,19
 1055 674 1055 674 1055 467 c 0,20,21
 1055 330 1055 330 995 215 c 1,22,23
 966 157 966 157 925 113 c 128,-1,24
 884 69 884 69 832 37 c 0,25,26
 730 -25 730 -25 597 -25 c 0,27,28
 373 -25 373 -25 231 137 c 0,29,30
 89 298 89 298 89 673 c 0,31,32
 89 1091 89 1091 246 1280 c 0,33,34
 384 1445 384 1445 614 1445 c 0,35,36
 786 1445 786 1445 896 1349 c 1,37,38
 1007 1255 1007 1255 1029 1089 c 1,39,-1
 855 1075 l 1,0,1
291 466 m 0,40,41
 291 372 291 372 330 289 c 0,42,43
 370 206 370 206 443 161 c 0,44,45
 478 139 478 139 516 128 c 128,-1,46
 554 117 554 117 594 117 c 0,47,48
 708 117 708 117 793 209 c 0,49,50
 876 299 876 299 876 456 c 0,51,52
 876 603 876 603 794 692 c 0,53,54
 754 734 754 734 701 756.5 c 128,-1,55
 648 779 648 779 587 779 c 0,56,57
 465 779 465 779 377 692 c 1,58,59
 291 605 291 605 291 466 c 0,40,41
EndSplineSet
EndChar

StartChar: seven
Encoding: 55 55 26
Width: 1139
GlyphClass: 2
Flags: W
LayerCount: 2
Fore
SplineSet
94 1282 m 1,0,-1
 93 1438 l 1,1,-1
 1045 1438 l 1,2,-1
 1041 1311 l 1,3,-1
 1042 1312 l 1,4,5
 971 1237 971 1237 903.5 1135.5 c 128,-1,6
 836 1034 836 1034 767 910 c 0,7,8
 735 853 735 853 705 789 c 128,-1,9
 675 725 675 725 647.5 659 c 128,-1,10
 620 593 620 593 596 527.5 c 128,-1,11
 572 462 572 462 554 403 c 1,12,13
 528 311 528 311 510.5 210.5 c 128,-1,14
 493 110 493 110 485 0 c 1,15,-1
 305 0 l 1,16,17
 308 171 308 171 373 416 c 0,18,19
 438 660 438 660 560 887 c 0,20,21
 622 1003 622 1003 685 1102 c 128,-1,22
 748 1201 748 1201 817 1282 c 1,23,-1
 94 1282 l 1,0,-1
EndSplineSet
EndChar

StartChar: eight
Encoding: 56 56 27
Width: 1139
GlyphClass: 2
Flags: W
LayerCount: 2
Fore
SplineSet
363 782 m 1,0,1
 251 822 251 822 197.5 896 c 128,-1,2
 144 970 144 970 144 1074 c 0,3,4
 144 1231 144 1231 259 1338 c 256,5,6
 374 1445 374 1445 564 1445 c 0,7,8
 755 1445 755 1445 872 1335 c 1,9,10
 989 1227 989 1227 989 1069 c 0,11,12
 989 969 989 969 934.5 895 c 128,-1,13
 880 821 880 821 768 780 c 1,14,15
 907 736 907 736 978 640 c 128,-1,16
 1049 544 1049 544 1049 411 c 0,17,18
 1049 224 1049 224 916 100 c 0,19,20
 783 -25 783 -25 567 -25 c 0,21,22
 461 -25 461 -25 372.5 8 c 128,-1,23
 284 41 284 41 218 100 c 1,24,25
 152 163 152 163 118.5 242 c 128,-1,26
 85 321 85 321 85 416 c 0,27,28
 85 556 85 556 157 650 c 128,-1,29
 229 744 229 744 363 778 c 1,30,-1
 363 782 l 1,0,1
323 1080 m 0,31,32
 323 976 323 976 391 912 c 0,33,34
 460 846 460 846 568 846 c 0,35,36
 672 846 672 846 741 911 c 0,37,38
 809 975 809 975 809 1070 c 0,39,40
 809 1168 809 1168 739 1235 c 1,41,42
 670 1303 670 1303 566 1303 c 0,43,44
 513 1303 513 1303 470 1286 c 128,-1,45
 427 1269 427 1269 392 1237 c 0,46,47
 323 1172 323 1172 323 1080 c 0,31,32
265 415 m 0,48,49
 265 337 265 337 301 267 c 0,50,51
 339 195 339 195 412 156 c 256,52,53
 485 117 485 117 569 117 c 0,54,55
 635 117 635 117 688.5 138 c 128,-1,56
 742 159 742 159 785 200 c 0,57,58
 870 280 870 280 870 409 c 0,59,60
 870 536 870 536 782 620 c 1,61,62
 696 706 696 706 563 706 c 0,63,64
 434 706 434 706 349 621 c 0,65,66
 265 536 265 536 265 415 c 0,48,49
EndSplineSet
EndChar

StartChar: nine
Encoding: 57 57 28
Width: 1139
GlyphClass: 2
Flags: W
LayerCount: 2
Fore
SplineSet
282 345 m 1,0,1
 305 224 305 224 367.5 170.5 c 128,-1,2
 430 117 430 117 529 117 c 0,3,4
 614 117 614 117 677.5 154.5 c 128,-1,5
 741 192 741 192 781 255 c 0,6,7
 819 316 819 316 848 425 c 1,8,9
 875 531 875 531 875 641 c 0,10,11
 875 647 875 647 874.5 661 c 128,-1,12
 874 675 874 675 873 687 c 1,13,14
 844 640 844 640 805.5 603 c 128,-1,15
 767 566 767 566 722 541 c 0,16,17
 675 516 675 516 624.5 502.5 c 128,-1,18
 574 489 574 489 520 489 c 0,19,20
 338 489 338 489 213 617 c 0,21,22
 87 747 87 747 87 960 c 0,23,24
 87 1066 87 1066 121 1156 c 128,-1,25
 155 1246 155 1246 218 1311 c 1,26,27
 283 1375 283 1375 366.5 1410 c 128,-1,28
 450 1445 450 1445 547 1445 c 0,29,30
 618 1445 618 1445 682.5 1425 c 128,-1,31
 747 1405 747 1405 807 1368 c 1,32,33
 923 1294 923 1294 987 1153 c 1,34,35
 1049 1011 1049 1011 1049 749 c 0,36,37
 1049 472 1049 472 988 309 c 1,38,39
 956 227 956 227 911.5 165.5 c 128,-1,40
 867 104 867 104 806 61 c 0,41,42
 686 -25 686 -25 525 -25 c 0,43,44
 439 -25 439 -25 369.5 -0.5 c 128,-1,45
 300 24 300 24 245 69 c 1,46,47
 193 116 193 116 159 181.5 c 128,-1,48
 125 247 125 247 114 329 c 1,49,-1
 282 345 l 1,0,1
569 1302 m 0,50,51
 448 1302 448 1302 357 1205 c 1,52,53
 267 1106 267 1106 267 954 c 0,54,55
 267 817 267 817 352 728 c 1,56,57
 439 641 439 641 564 641 c 0,58,59
 625 641 625 641 679 664.5 c 128,-1,60
 733 688 733 688 772 728 c 1,61,62
 811 772 811 772 832.5 833.5 c 128,-1,63
 854 895 854 895 854 968 c 0,64,65
 854 1118 854 1118 770 1211 c 0,66,67
 687 1302 687 1302 569 1302 c 0,50,51
EndSplineSet
EndChar

StartChar: colon
Encoding: 58 58 29
Width: 569
GlyphClass: 2
Flags: W
LayerCount: 2
Fore
SplineSet
188 793 m 1,0,-1
 188 1010 l 1,1,-1
 400 1010 l 1,2,-1
 400 793 l 1,3,-1
 188 793 l 1,0,-1
188 -6 m 1,4,-1
 188 220 l 1,5,-1
 400 220 l 1,6,-1
 400 -6 l 1,7,-1
 188 -6 l 1,4,-1
EndSplineSet
EndChar

StartChar: semicolon
Encoding: 59 59 30
Width: 569
GlyphClass: 2
Flags: W
LayerCount: 2
Fore
SplineSet
380 -31 m 0,1,2
 325 -147 325 -147 207 -245 c 1,3,4
 173 -202 173 -202 121 -176 c 1,5,6
 239 -33 239 -33 239 161 c 0,7,8
 239 176 239 176 237 198 c 0,9,10
 236 211 236 211 234 226 c 1,11,-1
 435 224 l 1,12,0
 434 82 434 82 380 -31 c 0,1,2
389.5 1025.5 m 128,-1,14
 425 991 425 991 425 941 c 0,15,16
 425 892 425 892 389.5 856.5 c 128,-1,17
 354 821 354 821 304 821 c 0,18,19
 253 821 253 821 217.5 856.5 c 128,-1,20
 182 892 182 892 182 941 c 0,21,22
 182 991 182 991 217.5 1025.5 c 128,-1,23
 253 1060 253 1060 304 1060 c 0,24,13
 354 1060 354 1060 389.5 1025.5 c 128,-1,14
EndSplineSet
EndChar

StartChar: less
Encoding: 60 60 31
Width: 1196
GlyphClass: 2
Flags: W
LayerCount: 2
Fore
SplineSet
114 629 m 1,0,-1
 114 793 l 1,1,2
 358 894 358 894 599 993.5 c 128,-1,3
 840 1093 840 1093 1083 1194 c 1,4,-1
 1083 1009 l 1,5,-1
 307 711 l 1,6,7
 500 631 500 631 695 552.5 c 128,-1,8
 890 474 890 474 1083 396 c 1,9,-1
 1083 224 l 1,10,-1
 114 629 l 1,0,-1
EndSplineSet
EndChar

StartChar: equal
Encoding: 61 61 32
Width: 1196
GlyphClass: 2
Flags: W
LayerCount: 2
Fore
SplineSet
1082 848 m 1,0,-1
 116 848 l 1,1,-1
 116 1010 l 1,2,-1
 1082 1010 l 1,3,-1
 1082 848 l 1,0,-1
1082 411 m 1,4,-1
 116 411 l 1,5,-1
 116 571 l 1,6,-1
 1082 571 l 1,7,-1
 1082 411 l 1,4,-1
EndSplineSet
EndChar

StartChar: greater
Encoding: 62 62 33
Width: 1196
GlyphClass: 2
Flags: W
LayerCount: 2
Fore
SplineSet
1083 629 m 1,0,1
 840 528 840 528 599 426.5 c 128,-1,2
 358 325 358 325 114 224 c 1,3,-1
 114 396 l 1,4,-1
 889 711 l 1,5,6
 696 788 696 788 501.5 866.5 c 128,-1,7
 307 945 307 945 114 1022 c 1,8,-1
 114 1194 l 1,9,10
 358 1093 358 1093 598.5 993.5 c 128,-1,11
 839 894 839 894 1083 793 c 1,12,-1
 1083 629 l 1,0,1
EndSplineSet
EndChar

StartChar: question
Encoding: 63 63 34
Width: 1139
GlyphClass: 2
Flags: W
LayerCount: 2
Fore
SplineSet
476 355 m 1,0,1
 475 372 475 372 475 385 c 128,-1,2
 475 398 475 398 475 407 c 0,3,4
 475 510 475 510 505 585 c 0,5,6
 516 615 516 615 533.5 644 c 128,-1,7
 551 673 551 673 575 701 c 0,8,9
 593 722 593 722 625 752 c 128,-1,10
 657 782 657 782 705 823 c 1,11,-1
 705 822 l 1,12,13
 753 863 753 863 783.5 896 c 128,-1,14
 814 929 814 929 828 954 c 0,15,16
 856 1002 856 1002 856 1059 c 0,17,18
 856 1163 856 1163 773 1242 c 0,19,20
 689 1321 689 1321 569 1321 c 0,21,22
 452 1321 452 1321 374 1250.5 c 128,-1,23
 296 1180 296 1180 272 1029 c 1,24,25
 227 1034 227 1034 182.5 1040 c 128,-1,26
 138 1046 138 1046 92 1051 c 1,27,28
 117 1252 117 1252 239.5 1357.5 c 128,-1,29
 362 1463 362 1463 566 1463 c 0,30,31
 780 1463 780 1463 908 1349 c 0,32,33
 1036 1234 1036 1234 1036 1071 c 0,34,35
 1036 978 1036 978 991 898 c 0,36,37
 944 816 944 816 815 705 c 1,38,-1
 815 706 l 1,39,40
 771 668 771 668 743 639.5 c 128,-1,41
 715 611 715 611 700 591 c 0,42,43
 686 571 686 571 675.5 550.5 c 128,-1,44
 665 530 665 530 658 508 c 0,45,46
 644 461 644 461 643 355 c 1,47,-1
 476 355 l 1,0,1
465 0 m 1,48,-1
 465 198 l 1,49,-1
 664 198 l 1,50,-1
 664 0 l 1,51,-1
 465 0 l 1,48,-1
EndSplineSet
EndChar

StartChar: at
Encoding: 64 64 35
Width: 2079
GlyphClass: 2
Flags: W
LayerCount: 2
Fore
SplineSet
1161 160 m 1,0,1
 1096 85 1096 85 1016 41 c 128,-1,2
 936 -3 936 -3 855 -3 c 0,3,4
 811 -3 811 -3 767.5 10.5 c 128,-1,5
 724 24 724 24 684 49.5 c 128,-1,6
 644 75 644 75 609 114 c 128,-1,7
 574 153 574 153 547 205 c 1,8,9
 495 312 495 312 495 437 c 0,10,11
 495 591 495 591 576 749 c 1,12,13
 658 906 658 906 779 984 c 0,14,15
 901 1062 901 1062 1013 1062 c 0,16,17
 1100 1062 1100 1062 1179 1016 c 128,-1,18
 1258 970 1258 970 1317 875 c 1,19,20
 1325 913 1325 913 1335 955 c 128,-1,21
 1345 997 1345 997 1353 1034 c 1,22,-1
 1527 1034 l 1,23,-1
 1382 375 l 2,24,25
 1352 238 1352 238 1352 223 c 0,26,27
 1352 196 1352 196 1373 176.5 c 128,-1,28
 1394 157 1394 157 1425 157 c 0,29,30
 1452 157 1452 157 1488.5 172.5 c 128,-1,31
 1525 188 1525 188 1567 217 c 0,32,33
 1624 256 1624 256 1670 310 c 128,-1,34
 1716 364 1716 364 1749 428 c 1,35,36
 1781 493 1781 493 1798.5 563.5 c 128,-1,37
 1816 634 1816 634 1816 703 c 0,38,39
 1816 867 1816 867 1730 1010 c 0,40,41
 1643 1153 1643 1153 1472 1240 c 1,42,43
 1301 1325 1301 1325 1095 1325 c 0,44,45
 859 1325 859 1325 665 1217 c 0,46,47
 566 1161 566 1161 490.5 1085 c 128,-1,48
 415 1009 415 1009 361 907 c 0,49,50
 255 708 255 708 255 475 c 0,51,52
 255 233 255 233 361 59 c 0,53,54
 415 -28 415 -28 492.5 -93 c 128,-1,55
 570 -158 570 -158 673 -199 c 1,56,57
 874 -282 874 -282 1122 -282 c 0,58,59
 1387 -282 1387 -282 1564 -196 c 0,60,61
 1652 -153 1652 -153 1718.5 -100 c 128,-1,62
 1785 -47 1785 -47 1830 15 c 1,63,-1
 2007 15 l 1,64,65
 1981 -35 1981 -35 1936.5 -87 c 128,-1,66
 1892 -139 1892 -139 1833 -192 c 1,67,68
 1770 -246 1770 -246 1696.5 -288.5 c 128,-1,69
 1623 -331 1623 -331 1538 -361 c 1,70,71
 1368 -424 1368 -424 1125 -424 c 0,72,73
 902 -424 902 -424 715.5 -368 c 128,-1,74
 529 -312 529 -312 395 -199 c 0,75,76
 330 -143 330 -143 280.5 -78 c 128,-1,77
 231 -13 231 -13 197 59 c 1,78,79
 155 152 155 152 133.5 252.5 c 128,-1,80
 112 353 112 353 112 460 c 0,81,82
 112 698 112 698 213 916 c 0,83,84
 335 1182 335 1182 559.5 1323.5 c 128,-1,85
 784 1465 784 1465 1104 1465 c 0,86,87
 1353 1465 1353 1465 1550 1364 c 1,88,89
 1645 1317 1645 1317 1724.5 1240 c 128,-1,90
 1804 1163 1804 1163 1861 1068 c 1,91,92
 1908 985 1908 985 1933 891 c 128,-1,93
 1958 797 1958 797 1958 700 c 0,94,95
 1958 414 1958 414 1755 194 c 1,96,97
 1574 -4 1574 -4 1357 -4 c 0,98,99
 1289 -4 1289 -4 1247.5 16.5 c 128,-1,100
 1206 37 1206 37 1185 74 c 1,101,102
 1172 99 1172 99 1166 159 c 1,103,-1
 1161 160 l 1,0,1
675 425 m 0,104,105
 675 291 675 291 741 215 c 0,106,107
 806 139 806 139 892 139 c 0,108,109
 949 139 949 139 1011.5 173.5 c 128,-1,110
 1074 208 1074 208 1131 271 c 0,111,112
 1160 304 1160 304 1184 345 c 128,-1,113
 1208 386 1208 386 1226 435 c 0,114,115
 1262 535 1262 535 1262 636 c 0,116,117
 1262 769 1262 769 1193 845 c 0,118,119
 1124 920 1124 920 1026 920 c 0,120,121
 961 920 961 920 904 888 c 128,-1,122
 847 856 847 856 793 784 c 0,123,124
 738 711 738 711 707 612 c 0,125,126
 675 509 675 509 675 425 c 0,104,105
EndSplineSet
EndChar

StartChar: A
Encoding: 65 65 36
Width: 1366
GlyphClass: 2
Flags: W
LayerCount: 2
Fore
SplineSet
0 0 m 1,0,1
 140 357 140 357 282 718.5 c 128,-1,2
 424 1080 424 1080 564 1437 c 1,3,-1
 767 1437 l 1,4,5
 919 1076 919 1076 1067.5 718.5 c 128,-1,6
 1216 361 1216 361 1368 0 c 1,7,-1
 1153 0 l 1,8,-1
 982 436 l 1,9,-1
 361 436 l 1,10,11
 342 385 342 385 321.5 329.5 c 128,-1,12
 301 274 301 274 280.5 218 c 128,-1,13
 260 162 260 162 239.5 106.5 c 128,-1,14
 219 51 219 51 200 0 c 1,15,-1
 0 0 l 1,0,1
416 588 m 1,16,-1
 923 588 l 1,17,-1
 768 990 l 2,18,19
 733 1079 733 1079 707.5 1154 c 128,-1,20
 682 1229 682 1229 664 1290 c 1,21,-1
 658 1289 l 1,22,23
 644 1219 644 1219 624 1150 c 128,-1,24
 604 1081 604 1081 579 1013 c 1,25,-1
 416 588 l 1,16,-1
EndSplineSet
EndChar

StartChar: B
Encoding: 66 66 37
Width: 1366
GlyphClass: 2
Flags: W
LayerCount: 2
Fore
SplineSet
152 0 m 1,0,-1
 152 1437 l 1,1,-1
 701 1437 l 2,2,3
 785 1437 785 1437 851.5 1426 c 128,-1,4
 918 1415 918 1415 969.5 1393 c 128,-1,5
 1021 1371 1021 1371 1059.5 1338 c 128,-1,6
 1098 1305 1098 1305 1127 1259 c 0,7,8
 1185 1169 1185 1169 1185 1070 c 0,9,10
 1185 978 1185 978 1133.5 896 c 128,-1,11
 1082 814 1082 814 977 763 c 1,12,13
 1112 724 1112 724 1184 633 c 128,-1,14
 1256 542 1256 542 1256 416 c 0,15,16
 1256 317 1256 317 1212 228 c 0,17,18
 1170 142 1170 142 1106 95 c 256,19,20
 1042 48 1042 48 946 24 c 128,-1,21
 850 0 850 0 710 0 c 2,22,-1
 152 0 l 1,0,-1
341 831 m 1,23,-1
 662 831 l 2,24,25
 726 831 726 831 773 835.5 c 128,-1,26
 820 840 820 840 848 848 c 0,27,28
 923 870 923 870 961.5 920.5 c 128,-1,29
 1000 971 1000 971 1000 1048 c 0,30,31
 1000 1119 1000 1119 964 1173.5 c 128,-1,32
 928 1228 928 1228 862 1250 c 0,33,34
 830 1260 830 1260 773.5 1265.5 c 128,-1,35
 717 1271 717 1271 638 1271 c 2,36,-1
 341 1271 l 1,37,-1
 341 831 l 1,23,-1
341 166 m 1,38,-1
 710 166 l 2,39,40
 757 166 757 166 790.5 167.5 c 128,-1,41
 824 169 824 169 843 172 c 0,42,43
 910 185 910 185 956 212.5 c 128,-1,44
 1002 240 1002 240 1032 293 c 1,45,46
 1061 347 1061 347 1061 416 c 0,47,48
 1061 455 1061 455 1049.5 490 c 128,-1,49
 1038 525 1038 525 1016.5 554.5 c 128,-1,50
 995 584 995 584 965 606 c 128,-1,51
 935 628 935 628 899 641 c 1,52,53
 862 653 862 653 807 659 c 128,-1,54
 752 665 752 665 684 665 c 2,55,-1
 341 665 l 1,56,-1
 341 166 l 1,38,-1
EndSplineSet
EndChar

StartChar: C
Encoding: 67 67 38
Width: 1479
GlyphClass: 2
Flags: W
LayerCount: 2
Fore
SplineSet
1398 453 m 1,0,1
 1339 224 1339 224 1178 98 c 0,2,3
 1020 -25 1020 -25 792 -25 c 0,4,5
 674 -25 674 -25 578.5 -0.5 c 128,-1,6
 483 24 483 24 408 70.5 c 128,-1,7
 333 117 333 117 276.5 185.5 c 128,-1,8
 220 254 220 254 181 344 c 0,9,10
 104 524 104 524 104 729 c 0,11,12
 104 954 104 954 191 1120 c 0,13,14
 236 1204 236 1204 298.5 1267.5 c 128,-1,15
 361 1331 361 1331 439 1374 c 1,16,17
 519 1415 519 1415 610 1438 c 128,-1,18
 701 1461 701 1461 795 1461 c 0,19,20
 1015 1461 1015 1461 1164 1352 c 256,21,22
 1313 1243 1313 1243 1372 1045 c 1,23,24
 1325 1034 1325 1034 1278.5 1023.5 c 128,-1,25
 1232 1013 1232 1013 1186 1003 c 1,26,27
 1135 1158 1135 1158 1037 1230.5 c 128,-1,28
 939 1303 939 1303 791 1303 c 0,29,30
 620 1303 620 1303 505 1222 c 0,31,32
 392 1143 392 1143 345 1008 c 0,33,34
 299 875 299 875 299 730 c 0,35,36
 299 638 299 638 312.5 556.5 c 128,-1,37
 326 475 326 475 353.5 408 c 128,-1,38
 381 341 381 341 423.5 288.5 c 128,-1,39
 466 236 466 236 524 203 c 1,40,41
 640 134 640 134 776 134 c 0,42,43
 858 134 858 134 928 157 c 128,-1,44
 998 180 998 180 1053.5 226 c 128,-1,45
 1109 272 1109 272 1148.5 341 c 128,-1,46
 1188 410 1188 410 1208 500 c 1,47,-1
 1398 453 l 1,0,1
EndSplineSet
EndChar

StartChar: D
Encoding: 68 68 39
Width: 1479
GlyphClass: 2
Flags: W
LayerCount: 2
Fore
SplineSet
160 0 m 1,0,-1
 160 1437 l 1,1,-1
 664 1437 l 2,2,3
 834 1437 834 1437 924 1416 c 1,4,5
 987 1403 987 1403 1040.5 1377.5 c 128,-1,6
 1094 1352 1094 1352 1139 1313 c 1,7,8
 1255 1216 1255 1216 1312.5 1067.5 c 128,-1,9
 1370 919 1370 919 1370 726 c 0,10,11
 1370 602 1370 602 1347 501 c 128,-1,12
 1324 400 1324 400 1286 321.5 c 128,-1,13
 1248 243 1248 243 1199 187 c 128,-1,14
 1150 131 1150 131 1097 96 c 0,15,16
 1025 49 1025 49 923 24.5 c 128,-1,17
 821 0 821 0 688 0 c 2,18,-1
 160 0 l 1,0,-1
349 166 m 1,19,-1
 666 166 l 2,20,21
 813 166 813 166 894 193 c 0,22,23
 978 220 978 220 1028 269 c 0,24,25
 1098 337 1098 337 1136.5 451 c 128,-1,26
 1175 565 1175 565 1175 729 c 0,27,28
 1175 955 1175 955 1099 1077 c 0,29,30
 1062 1135 1062 1135 1014.5 1177.5 c 128,-1,31
 967 1220 967 1220 913 1241 c 0,32,33
 836 1271 836 1271 661 1271 c 2,34,-1
 349 1271 l 1,35,-1
 349 166 l 1,19,-1
EndSplineSet
EndChar

StartChar: E
Encoding: 69 69 40
Width: 1366
GlyphClass: 2
Flags: W
LayerCount: 2
Fore
SplineSet
164 0 m 1,0,-1
 164 1437 l 1,1,-1
 1221 1437 l 1,2,-1
 1221 1271 l 1,3,-1
 353 1271 l 1,4,-1
 353 825 l 1,5,-1
 1166 825 l 1,6,-1
 1166 661 l 1,7,-1
 353 661 l 1,8,-1
 353 166 l 1,9,-1
 1255 166 l 1,10,-1
 1255 0 l 1,11,-1
 164 0 l 1,0,-1
EndSplineSet
EndChar

StartChar: F
Encoding: 70 70 41
Width: 1251
GlyphClass: 2
Flags: W
LayerCount: 2
Fore
SplineSet
171 0 m 1,0,-1
 171 1437 l 1,1,-1
 1156 1437 l 1,2,-1
 1156 1271 l 1,3,-1
 359 1271 l 1,4,-1
 359 820 l 1,5,-1
 1049 820 l 1,6,-1
 1049 655 l 1,7,-1
 359 655 l 1,8,-1
 359 0 l 1,9,-1
 171 0 l 1,0,-1
EndSplineSet
EndChar

StartChar: G
Encoding: 71 71 42
Width: 1593
GlyphClass: 2
Flags: W
LayerCount: 2
Fore
SplineSet
848 566 m 1,0,-1
 848 730 l 1,1,2
 1004 730 1004 730 1156.5 730.5 c 128,-1,3
 1309 731 1309 731 1465 731 c 1,4,-1
 1465 200 l 1,5,6
 1322 90 1322 90 1169.5 32.5 c 128,-1,7
 1017 -25 1017 -25 859 -25 c 0,8,9
 753 -25 753 -25 654 -1.5 c 128,-1,10
 555 22 555 22 466 66 c 1,11,12
 383 110 383 110 314.5 177.5 c 128,-1,13
 246 245 246 245 201 328 c 1,14,15
 158 414 158 414 134.5 511.5 c 128,-1,16
 111 609 111 609 111 712 c 0,17,18
 111 813 111 813 134.5 913 c 128,-1,19
 158 1013 158 1013 200 1103 c 1,20,21
 245 1190 245 1190 311 1260 c 128,-1,22
 377 1330 377 1330 457 1373 c 1,23,24
 540 1415 540 1415 639 1438 c 128,-1,25
 738 1461 738 1461 844 1461 c 0,26,27
 1005 1461 1005 1461 1131 1410 c 1,28,29
 1258 1360 1258 1360 1333 1271 c 1,30,31
 1368 1227 1368 1227 1396 1167.5 c 128,-1,32
 1424 1108 1424 1108 1443 1037 c 1,33,34
 1400 1025 1400 1025 1358 1014.5 c 128,-1,35
 1316 1004 1316 1004 1272 992 c 1,36,37
 1241 1096 1241 1096 1190 1162 c 1,38,39
 1164 1194 1164 1194 1129 1220 c 128,-1,40
 1094 1246 1094 1246 1049 1264 c 0,41,42
 957 1303 957 1303 845 1303 c 0,43,44
 742 1303 742 1303 663 1279.5 c 128,-1,45
 584 1256 584 1256 525 1216 c 128,-1,46
 466 1176 466 1176 426 1123.5 c 128,-1,47
 386 1071 386 1071 362 1014 c 0,48,49
 306 879 306 879 306 723 c 0,50,51
 306 629 306 629 324.5 548.5 c 128,-1,52
 343 468 343 468 377.5 402.5 c 128,-1,53
 412 337 412 337 461 288 c 128,-1,54
 510 239 510 239 572 207 c 1,55,56
 702 143 702 143 848 143 c 0,57,58
 977 143 977 143 1096 191 c 0,59,60
 1156 216 1156 216 1202 241.5 c 128,-1,61
 1248 267 1248 267 1280 295 c 1,62,-1
 1280 566 l 1,63,-1
 848 566 l 1,0,-1
EndSplineSet
EndChar

StartChar: H
Encoding: 72 72 43
Width: 1479
GlyphClass: 2
Flags: W
LayerCount: 2
Fore
SplineSet
166 0 m 1,0,-1
 166 1437 l 1,1,-1
 355 1437 l 1,2,-1
 355 845 l 1,3,-1
 1125 845 l 1,4,-1
 1125 1437 l 1,5,-1
 1314 1437 l 1,6,-1
 1314 0 l 1,7,-1
 1125 0 l 1,8,-1
 1125 679 l 1,9,-1
 355 679 l 1,10,-1
 355 0 l 1,11,-1
 166 0 l 1,0,-1
EndSplineSet
EndChar

StartChar: I
Encoding: 73 73 44
Width: 569
GlyphClass: 2
Flags: W
LayerCount: 2
Fore
SplineSet
194 0 m 1,0,-1
 194 1437 l 1,1,-1
 383 1437 l 1,2,-1
 383 0 l 1,3,-1
 194 0 l 1,0,-1
EndSplineSet
EndChar

StartChar: J
Encoding: 74 74 45
Width: 1024
GlyphClass: 2
Flags: W
LayerCount: 2
Fore
SplineSet
247 427 m 1,0,1
 255 265 255 265 311 204 c 0,2,3
 368 141 368 141 469 141 c 0,4,5
 544 141 544 141 597.5 174.5 c 128,-1,6
 651 208 651 208 671 265 c 0,7,8
 691 323 691 323 691 446 c 2,9,-1
 691 1437 l 1,10,-1
 880 1437 l 1,11,-1
 880 457 l 2,12,13
 880 277 880 277 835 177 c 0,14,15
 791 77 791 77 695 27 c 1,16,17
 598 -25 598 -25 470 -25 c 0,18,19
 376 -25 376 -25 303.5 4 c 128,-1,20
 231 33 231 33 181 88 c 128,-1,21
 131 143 131 143 105 223.5 c 128,-1,22
 79 304 79 304 78 406 c 1,23,-1
 247 427 l 1,0,1
EndSplineSet
EndChar

StartChar: K
Encoding: 75 75 46
Width: 1366
GlyphClass: 2
Flags: W
LayerCount: 2
Fore
SplineSet
152 0 m 1,0,-1
 152 1437 l 1,1,-1
 341 1437 l 1,2,-1
 341 718 l 1,3,4
 393 769 393 769 453 828.5 c 128,-1,5
 513 888 513 888 577 950 c 128,-1,6
 641 1012 641 1012 707 1077 c 128,-1,7
 773 1142 773 1142 837.5 1204.5 c 128,-1,8
 902 1267 902 1267 962 1326 c 128,-1,9
 1022 1385 1022 1385 1075 1437 c 1,10,-1
 1333 1437 l 1,11,-1
 718 855 l 1,12,13
 879 641 879 641 1039 428 c 128,-1,14
 1199 215 1199 215 1361 0 c 1,15,-1
 1109 0 l 1,16,-1
 585 730 l 1,17,-1
 341 497 l 1,18,-1
 341 0 l 1,19,-1
 152 0 l 1,0,-1
EndSplineSet
EndChar

StartChar: L
Encoding: 76 76 47
Width: 1139
GlyphClass: 2
Flags: W
LayerCount: 2
Fore
SplineSet
153 0 m 1,0,-1
 153 1437 l 1,1,-1
 341 1437 l 1,2,-1
 341 166 l 1,3,-1
 1065 166 l 1,4,-1
 1065 0 l 1,5,-1
 153 0 l 1,0,-1
EndSplineSet
EndChar

StartChar: M
Encoding: 77 77 48
Width: 1706
GlyphClass: 2
Flags: W
LayerCount: 2
Fore
SplineSet
154 0 m 1,0,-1
 154 1437 l 1,1,-1
 441 1437 l 1,2,3
 526 1187 526 1187 615 927 c 128,-1,4
 704 667 704 667 789 418 c 0,5,6
 813 346 813 346 832 288.5 c 128,-1,7
 851 231 851 231 862 196 c 1,8,9
 875 234 875 234 896 297.5 c 128,-1,10
 917 361 917 361 943 435 c 0,11,12
 1031 684 1031 684 1119 936 c 128,-1,13
 1207 1188 1207 1188 1295 1437 c 1,14,-1
 1551 1437 l 1,15,-1
 1551 0 l 1,16,-1
 1370 0 l 1,17,-1
 1370 1205 l 1,18,-1
 1364 1206 l 1,19,20
 1258 906 1258 906 1150 603 c 128,-1,21
 1042 300 1042 300 936 0 c 1,22,-1
 767 0 l 1,23,-1
 342 1226 l 1,24,-1
 336 1225 l 1,25,-1
 336 0 l 1,26,-1
 154 0 l 1,0,-1
EndSplineSet
EndChar

StartChar: N
Encoding: 78 78 49
Width: 1479
GlyphClass: 2
Flags: W
LayerCount: 2
Fore
SplineSet
158 0 m 1,0,-1
 158 1437 l 1,1,-1
 354 1437 l 1,2,-1
 1130 300 l 1,3,-1
 1130 1437 l 1,4,-1
 1311 1437 l 1,5,-1
 1311 0 l 1,6,-1
 1115 0 l 1,7,-1
 339 1138 l 1,8,-1
 339 0 l 1,9,-1
 158 0 l 1,0,-1
EndSplineSet
EndChar

StartChar: O
Encoding: 79 79 50
Width: 1593
GlyphClass: 2
Flags: W
LayerCount: 2
Fore
SplineSet
101 700 m 0,0,1
 101 1059 101 1059 297 1260 c 0,2,3
 494 1462 494 1462 802 1462 c 0,4,5
 1004 1462 1004 1462 1167 1367 c 0,6,7
 1329 1272 1329 1272 1415 1102 c 0,8,9
 1501 931 1501 931 1501 716 c 0,10,11
 1501 497 1501 497 1411 325 c 0,12,13
 1366 240 1366 240 1301 174 c 128,-1,14
 1236 108 1236 108 1157 64 c 1,15,16
 1076 22 1076 22 985 -1.5 c 128,-1,17
 894 -25 894 -25 801 -25 c 0,18,19
 595 -25 595 -25 432 74 c 0,20,21
 351 123 351 123 289.5 190 c 128,-1,22
 228 257 228 257 185 341 c 1,23,24
 101 510 101 510 101 700 c 0,0,1
296 697 m 0,25,26
 296 435 296 435 439 285 c 0,27,28
 584 134 584 134 800 134 c 0,29,30
 1022 134 1022 134 1163 287 c 1,31,32
 1306 439 1306 439 1306 717 c 0,33,34
 1306 804 1306 804 1289.5 881 c 128,-1,35
 1273 958 1273 958 1242.5 1023 c 128,-1,36
 1212 1088 1212 1088 1167.5 1140 c 128,-1,37
 1123 1192 1123 1192 1067 1229 c 1,38,39
 951 1303 951 1303 803 1303 c 0,40,41
 701 1303 701 1303 610 1266 c 128,-1,42
 519 1229 519 1229 445 1161 c 1,43,44
 375 1091 375 1091 335.5 973.5 c 128,-1,45
 296 856 296 856 296 697 c 0,25,26
EndSplineSet
EndChar

StartChar: P
Encoding: 80 80 51
Width: 1366
GlyphClass: 2
Flags: W
LayerCount: 2
Fore
SplineSet
160 0 m 1,0,-1
 160 1437 l 1,1,-1
 712 1437 l 2,2,3
 784 1437 784 1437 840 1433.5 c 128,-1,4
 896 1430 896 1430 935 1423 c 0,5,6
 1043 1405 1043 1405 1114.5 1355.5 c 128,-1,7
 1186 1306 1186 1306 1231 1217 c 0,8,9
 1254 1172 1254 1172 1265.5 1123.5 c 128,-1,10
 1277 1075 1277 1075 1277 1022 c 0,11,12
 1277 840 1277 840 1158 712 c 1,13,14
 1039 586 1039 586 729 586 c 2,15,-1
 349 586 l 1,16,-1
 349 0 l 1,17,-1
 160 0 l 1,0,-1
349 752 m 1,18,-1
 732 752 l 2,19,20
 922 752 922 752 1002 821 c 0,21,22
 1082 891 1082 891 1082 1016 c 0,23,24
 1082 1108 1082 1108 1035 1172.5 c 128,-1,25
 988 1237 988 1237 911 1258 c 0,26,27
 862 1271 862 1271 728 1271 c 2,28,-1
 349 1271 l 1,29,-1
 349 752 l 1,18,-1
EndSplineSet
EndChar

StartChar: Q
Encoding: 81 81 52
Width: 1593
GlyphClass: 2
Flags: W
LayerCount: 2
Fore
SplineSet
1269 150 m 1,0,1
 1336 105 1336 105 1397.5 72.5 c 128,-1,2
 1459 40 1459 40 1517 18 c 1,3,4
 1503 -15 1503 -15 1489.5 -46.5 c 128,-1,5
 1476 -78 1476 -78 1462 -111 c 1,6,7
 1308 -57 1308 -57 1149 66 c 1,8,9
 986 -25 986 -25 787 -25 c 0,10,11
 589 -25 589 -25 427 70 c 0,12,13
 346 117 346 117 284 183.5 c 128,-1,14
 222 250 222 250 177 334 c 1,15,16
 136 418 136 418 113 517 c 128,-1,17
 90 616 90 616 90 718 c 0,18,19
 90 932 90 932 178 1106 c 1,20,21
 223 1192 223 1192 286 1259 c 128,-1,22
 349 1326 349 1326 427 1371 c 1,23,24
 508 1415 508 1415 600 1438.5 c 128,-1,25
 692 1462 692 1462 791 1462 c 0,26,27
 993 1462 993 1462 1156 1367 c 0,28,29
 1318 1273 1318 1273 1404 1103 c 0,30,31
 1490 932 1490 932 1490 719 c 0,32,33
 1490 363 1490 363 1269 153 c 1,34,-1
 1269 150 l 1,0,1
846 393 m 1,35,36
 1011 348 1011 348 1121 256 c 1,37,38
 1295 412 1295 412 1295 719 c 0,39,40
 1295 805 1295 805 1278.5 882 c 128,-1,41
 1262 959 1262 959 1231.5 1023.5 c 128,-1,42
 1201 1088 1201 1088 1156.5 1140 c 128,-1,43
 1112 1192 1112 1192 1056 1229 c 1,44,45
 940 1303 940 1303 792 1303 c 0,46,47
 574 1303 574 1303 429 1155 c 0,48,49
 285 1008 285 1008 285 718 c 0,50,51
 285 437 285 437 427 286 c 0,52,53
 570 134 570 134 792 134 c 0,54,55
 895 134 895 134 994 174 c 1,56,57
 898 234 898 234 800 259 c 1,58,-1
 846 393 l 1,35,36
EndSplineSet
EndChar

StartChar: R
Encoding: 82 82 53
Width: 1479
GlyphClass: 2
Flags: W
LayerCount: 2
Fore
SplineSet
163 0 m 1,0,-1
 163 1437 l 1,1,-1
 812 1437 l 2,2,3
 1009 1437 1009 1437 1110 1398 c 1,4,5
 1209 1361 1209 1361 1271 1262 c 1,6,7
 1333 1161 1333 1161 1333 1046 c 0,8,9
 1333 893 1333 893 1232 788 c 0,10,11
 1182 736 1182 736 1103 702 c 128,-1,12
 1024 668 1024 668 914 655 c 1,13,14
 956 635 956 635 986.5 616.5 c 128,-1,15
 1017 598 1017 598 1037 581 c 1,16,17
 1076 545 1076 545 1118.5 494.5 c 128,-1,18
 1161 444 1161 444 1197 389 c 0,19,20
 1260 291 1260 291 1324 194.5 c 128,-1,21
 1388 98 1388 98 1451 0 c 1,22,-1
 1213 0 l 1,23,-1
 1020 299 l 2,24,25
 977 366 977 366 942.5 414.5 c 128,-1,26
 908 463 908 463 879 498 c 128,-1,27
 850 533 850 533 826 556 c 128,-1,28
 802 579 802 579 779.5 594.5 c 128,-1,29
 757 610 757 610 735.5 618.5 c 128,-1,30
 714 627 714 627 690 633 c 0,31,32
 659 640 659 640 580 640 c 2,33,-1
 352 640 l 1,34,-1
 352 0 l 1,35,-1
 163 0 l 1,0,-1
352 801 m 1,36,-1
 773 801 l 2,37,38
 840 801 840 801 892 807 c 128,-1,39
 944 813 944 813 983.5 827.5 c 128,-1,40
 1023 842 1023 842 1051 863.5 c 128,-1,41
 1079 885 1079 885 1099 915 c 0,42,43
 1138 975 1138 975 1138 1046 c 0,44,45
 1138 1147 1138 1147 1061 1214 c 0,46,47
 1023 1248 1023 1248 961.5 1265 c 128,-1,48
 900 1282 900 1282 820 1282 c 2,49,-1
 352 1282 l 1,50,-1
 352 801 l 1,36,-1
EndSplineSet
EndChar

StartChar: S
Encoding: 83 83 54
Width: 1366
GlyphClass: 2
Flags: W
LayerCount: 2
Fore
SplineSet
272 474 m 1,0,1
 278 420 278 420 293 376.5 c 128,-1,2
 308 333 308 333 333 298 c 128,-1,3
 358 263 358 263 394.5 235 c 128,-1,4
 431 207 431 207 482 185 c 0,5,6
 582 142 582 142 709 142 c 1,7,8
 795 141 795 141 864 160.5 c 128,-1,9
 933 180 933 180 981 214 c 128,-1,10
 1029 248 1029 248 1054 293.5 c 128,-1,11
 1079 339 1079 339 1077 389 c 1,12,13
 1077 457 1077 457 1034 509 c 128,-1,14
 991 561 991 561 903 595 c 1,15,16
 871 606 871 606 805 624 c 128,-1,17
 739 642 739 642 641 665 c 0,18,19
 538 689 538 689 468 711 c 128,-1,20
 398 733 398 733 357 755 c 1,21,22
 252 808 252 808 201 887.5 c 128,-1,23
 150 967 150 967 150 1066 c 0,24,25
 150 1172 150 1172 214 1269 c 256,26,27
 278 1366 278 1366 396 1412 c 0,28,29
 519 1461 519 1461 665 1461 c 0,30,31
 827 1461 827 1461 951 1410 c 128,-1,32
 1075 1359 1075 1359 1142 1259 c 0,33,34
 1210 1157 1210 1157 1214 1035 c 1,35,36
 1168 1032 1168 1032 1124 1028 c 128,-1,37
 1080 1024 1080 1024 1034 1021 c 1,38,39
 1018 1157 1018 1157 930 1227.5 c 128,-1,40
 842 1298 842 1298 673 1298 c 0,41,42
 494 1298 494 1298 413 1233 c 256,43,44
 332 1168 332 1168 332 1079 c 0,45,46
 332 1041 332 1041 347 1008.5 c 128,-1,47
 362 976 362 976 390 951 c 0,48,49
 419 925 419 925 493 898.5 c 128,-1,50
 567 872 567 872 684 846 c 0,51,52
 800 820 800 820 882.5 797 c 128,-1,53
 965 774 965 774 1010 755 c 1,54,55
 1135 696 1135 696 1197 607.5 c 128,-1,56
 1259 519 1259 519 1259 405 c 256,57,58
 1259 291 1259 291 1191 189 c 0,59,60
 1157 137 1157 137 1110 98.5 c 128,-1,61
 1063 60 1063 60 1000 31 c 0,62,63
 875 -25 875 -25 718 -25 c 0,64,65
 518 -25 518 -25 385 31.5 c 128,-1,66
 252 88 252 88 174 203 c 1,67,-1
 175 203 l 1,68,69
 136 261 136 261 116 324 c 128,-1,70
 96 387 96 387 94 459 c 1,71,-1
 272 474 l 1,0,1
EndSplineSet
EndChar

StartChar: T
Encoding: 84 84 55
Width: 1251
GlyphClass: 2
Flags: W
LayerCount: 2
Fore
SplineSet
535 0 m 1,0,-1
 535 1271 l 1,1,-1
 50 1271 l 1,2,-1
 50 1437 l 1,3,-1
 1209 1437 l 1,4,-1
 1209 1271 l 1,5,-1
 723 1271 l 1,6,-1
 723 0 l 1,7,-1
 535 0 l 1,0,-1
EndSplineSet
EndChar

StartChar: U
Encoding: 85 85 56
Width: 1479
GlyphClass: 2
Flags: W
LayerCount: 2
Fore
SplineSet
1125 1437 m 1,0,-1
 1314 1437 l 1,1,-1
 1314 607 l 2,2,3
 1314 390 1314 390 1263 263 c 1,4,5
 1238 198 1238 198 1193 147 c 128,-1,6
 1148 96 1148 96 1083 55 c 1,7,8
 952 -25 952 -25 742 -25 c 0,9,10
 641 -25 641 -25 558 -6 c 128,-1,11
 475 13 475 13 409.5 48 c 128,-1,12
 344 83 344 83 296.5 133 c 128,-1,13
 249 183 249 183 220 246 c 1,14,15
 192 313 192 313 177.5 403.5 c 128,-1,16
 163 494 163 494 163 607 c 2,17,-1
 163 1437 l 1,18,-1
 352 1437 l 1,19,-1
 352 608 l 2,20,21
 352 420 352 420 387 329 c 1,22,23
 422 241 422 241 510 192 c 0,24,25
 597 143 597 143 725 143 c 0,26,27
 941 143 941 143 1033 240 c 0,28,29
 1125 336 1125 336 1125 608 c 2,30,-1
 1125 1437 l 1,0,-1
EndSplineSet
EndChar

StartChar: V
Encoding: 86 86 57
Width: 1366
GlyphClass: 2
Flags: W
LayerCount: 2
Fore
SplineSet
581 0 m 1,0,1
 438 361 438 361 296.5 718.5 c 128,-1,2
 155 1076 155 1076 12 1437 c 1,3,-1
 216 1437 l 1,4,-1
 598 391 l 2,5,6
 621 328 621 328 641.5 264 c 128,-1,7
 662 200 662 200 678 144 c 1,8,9
 695 204 695 204 716 268 c 128,-1,10
 737 332 737 332 760 391 c 0,11,12
 859 652 859 652 959 914 c 128,-1,13
 1059 1176 1059 1176 1157 1437 c 1,14,-1
 1349 1437 l 1,15,16
 1206 1080 1206 1080 1061.5 718.5 c 128,-1,17
 917 357 917 357 774 0 c 1,18,-1
 581 0 l 1,0,1
EndSplineSet
EndChar

StartChar: W
Encoding: 87 87 58
Width: 1933
GlyphClass: 2
Flags: W
LayerCount: 2
Fore
SplineSet
417 0 m 1,0,1
 319 361 319 361 222 718.5 c 128,-1,2
 125 1076 125 1076 28 1437 c 1,3,-1
 220 1437 l 1,4,-1
 444 494 l 2,5,6
 462 419 462 419 477.5 345.5 c 128,-1,7
 493 272 493 272 506 199 c 1,8,-1
 512 199 l 1,9,10
 567 427 567 427 578 465 c 0,11,12
 648 707 648 707 718.5 951 c 128,-1,13
 789 1195 789 1195 858 1437 c 1,14,-1
 1087 1437 l 1,15,-1
 1297 709 l 2,16,17
 1337 571 1337 571 1365.5 445 c 128,-1,18
 1394 319 1394 319 1412 199 c 1,19,-1
 1418 199 l 1,20,21
 1432 268 1432 268 1450 345.5 c 128,-1,22
 1468 423 1468 423 1491 513 c 0,23,24
 1548 746 1548 746 1606 975 c 128,-1,25
 1664 1204 1664 1204 1721 1437 c 1,26,-1
 1910 1437 l 1,27,28
 1811 1084 1811 1084 1709 718.5 c 128,-1,29
 1607 353 1607 353 1508 0 c 1,30,-1
 1326 0 l 1,31,-1
 1016 1097 l 2,32,33
 996 1165 996 1165 985 1207.5 c 128,-1,34
 974 1250 974 1250 970 1266 c 1,35,-1
 964 1266 l 1,36,37
 953 1217 953 1217 942 1174 c 128,-1,38
 931 1131 931 1131 921 1097 c 0,39,40
 846 827 846 827 766 548.5 c 128,-1,41
 686 270 686 270 609 0 c 1,42,-1
 417 0 l 1,0,1
EndSplineSet
EndChar

StartChar: X
Encoding: 88 88 59
Width: 1366
GlyphClass: 2
Flags: W
LayerCount: 2
Fore
SplineSet
12 0 m 1,0,-1
 580 749 l 1,1,2
 455 922 455 922 329.5 1092.5 c 128,-1,3
 204 1263 204 1263 79 1437 c 1,4,-1
 306 1437 l 1,5,6
 371 1347 371 1347 438.5 1252.5 c 128,-1,7
 506 1158 506 1158 572 1068 c 0,8,9
 610 1015 610 1015 641 968 c 128,-1,10
 672 921 672 921 692 886 c 1,11,12
 721 931 721 931 750 973.5 c 128,-1,13
 779 1016 779 1016 810 1056 c 0,14,15
 883 1149 883 1149 958 1246.5 c 128,-1,16
 1033 1344 1033 1344 1105 1437 c 1,17,-1
 1312 1437 l 1,18,-1
 796 760 l 1,19,20
 936 568 936 568 1074 379.5 c 128,-1,21
 1212 191 1212 191 1352 0 c 1,22,-1
 1116 0 l 1,23,24
 1027 123 1027 123 931.5 256 c 128,-1,25
 836 389 836 389 747 513 c 0,26,27
 731 535 731 535 714.5 562 c 128,-1,28
 698 589 698 589 681 615 c 1,29,30
 657 576 657 576 638.5 546.5 c 128,-1,31
 620 517 620 517 609 501 c 0,32,33
 518 378 518 378 424.5 250.5 c 128,-1,34
 331 123 331 123 241 0 c 1,35,-1
 12 0 l 1,0,-1
EndSplineSet
EndChar

StartChar: Y
Encoding: 89 89 60
Width: 1366
GlyphClass: 2
Flags: W
LayerCount: 2
Fore
SplineSet
575 0 m 1,0,-1
 575 609 l 1,1,2
 432 815 432 815 292 1022 c 128,-1,3
 152 1229 152 1229 9 1437 c 1,4,-1
 240 1437 l 1,5,6
 311 1331 311 1331 384 1220 c 128,-1,7
 457 1109 457 1109 529 1004 c 1,8,9
 569 942 569 942 607.5 879 c 128,-1,10
 646 816 646 816 681 755 c 1,11,12
 713 811 713 811 755 877.5 c 128,-1,13
 797 944 797 944 844 1014 c 0,14,15
 915 1118 915 1118 986.5 1225.5 c 128,-1,16
 1058 1333 1058 1333 1128 1437 c 1,17,-1
 1349 1437 l 1,18,-1
 763 609 l 1,19,-1
 763 0 l 1,20,-1
 575 0 l 1,0,-1
EndSplineSet
EndChar

StartChar: Z
Encoding: 90 90 61
Width: 1251
GlyphClass: 2
Flags: W
LayerCount: 2
Fore
SplineSet
43 0 m 1,0,-1
 43 174 l 1,1,-1
 42 173 l 1,2,-1
 795 1097 l 2,3,4
 835 1147 835 1147 874 1190 c 128,-1,5
 913 1233 913 1233 951 1271 c 1,6,-1
 129 1271 l 1,7,-1
 129 1437 l 1,8,-1
 1175 1437 l 1,9,-1
 1175 1269 l 1,10,-1
 1176 1270 l 1,11,12
 975 1024 975 1024 764 770.5 c 128,-1,13
 553 517 553 517 351 271 c 1,14,-1
 259 166 l 1,15,-1
 1199 166 l 1,16,-1
 1199 0 l 1,17,-1
 43 0 l 1,0,-1
EndSplineSet
EndChar

StartChar: bracketleft
Encoding: 91 91 62
Width: 569
GlyphClass: 2
Flags: W
LayerCount: 2
Fore
SplineSet
142 -401 m 1,0,-1
 142 1439 l 1,1,-1
 534 1439 l 1,2,-1
 534 1296 l 1,3,-1
 317 1296 l 1,4,-1
 317 -258 l 1,5,-1
 534 -258 l 1,6,-1
 534 -401 l 1,7,-1
 142 -401 l 1,0,-1
EndSplineSet
EndChar

StartChar: backslash
Encoding: 92 92 63
Width: 569
GlyphClass: 2
Flags: W
LayerCount: 2
Fore
SplineSet
429 -25 m 1,0,1
 323 350 323 350 216.5 719.5 c 128,-1,2
 110 1089 110 1089 3 1463 c 1,3,-1
 142 1463 l 1,4,-1
 567 -25 l 1,5,-1
 429 -25 l 1,0,1
EndSplineSet
EndChar

StartChar: bracketright
Encoding: 93 93 64
Width: 569
GlyphClass: 2
Flags: W
LayerCount: 2
Fore
SplineSet
434 -401 m 1,0,-1
 42 -401 l 1,1,-1
 42 -258 l 1,2,-1
 260 -258 l 1,3,-1
 260 1296 l 1,4,-1
 42 1296 l 1,5,-1
 42 1439 l 1,6,-1
 434 1439 l 1,7,-1
 434 -401 l 1,0,-1
EndSplineSet
EndChar

StartChar: asciicircum
Encoding: 94 94 65
Width: 961
GlyphClass: 2
Flags: W
LayerCount: 2
Fore
SplineSet
236 679 m 1,0,-1
 57 679 l 1,1,2
 143 870 143 870 234 1071 c 128,-1,3
 325 1272 325 1272 411 1463 c 1,4,-1
 550 1463 l 1,5,6
 639 1266 639 1266 728 1071 c 128,-1,7
 817 876 817 876 906 679 c 1,8,-1
 731 679 l 1,9,-1
 480 1272 l 1,10,-1
 236 679 l 1,0,-1
EndSplineSet
EndChar

StartChar: underscore
Encoding: 95 95 66
Width: 1139
GlyphClass: 2
Flags: W
LayerCount: 2
Fore
SplineSet
-29 -401 m 1,0,-1
 -29 -276 l 1,1,-1
 1162 -276 l 1,2,-1
 1162 -401 l 1,3,-1
 -29 -401 l 1,0,-1
EndSplineSet
EndChar

StartChar: grave
Encoding: 96 96 67
Width: 682
GlyphClass: 2
Flags: W
LayerCount: 2
Fore
SplineSet
461 1175 m 1,0,-1
 322 1175 l 1,1,2
 263 1243 263 1243 207.5 1310.5 c 128,-1,3
 152 1378 152 1378 94 1447 c 1,4,-1
 328 1447 l 1,5,-1
 461 1175 l 1,0,-1
EndSplineSet
EndChar

StartChar: a
Encoding: 97 97 68
Width: 1139
GlyphClass: 2
Flags: W
LayerCount: 2
Fore
SplineSet
828 128 m 1,0,1
 777 86 777 86 729.5 56.5 c 128,-1,2
 682 27 682 27 635 11 c 1,3,4
 542 -24 542 -24 438 -24 c 0,5,6
 263 -24 263 -24 170 59 c 1,7,8
 76 141 76 141 76 273 c 0,9,10
 76 332 76 332 96.5 381 c 128,-1,11
 117 430 117 430 152 468.5 c 128,-1,12
 187 507 187 507 233.5 533 c 128,-1,13
 280 559 280 559 333 571 c 1,14,15
 359 578 359 578 400.5 584.5 c 128,-1,16
 442 591 442 591 493 598 c 0,17,18
 600 611 600 611 683 626 c 128,-1,19
 766 641 766 641 818 661 c 1,20,21
 819 679 819 679 819 691 c 128,-1,22
 819 703 819 703 819 708 c 0,23,24
 819 814 819 814 767 861 c 1,25,26
 732 890 732 890 679 906 c 128,-1,27
 626 922 626 922 559 922 c 0,28,29
 497 922 497 922 448 909.5 c 128,-1,30
 399 897 399 897 368 877 c 1,31,32
 307 834 307 834 278 724 c 1,33,34
 235 730 235 730 193 735 c 128,-1,35
 151 740 151 740 107 746 c 1,36,37
 131 854 131 854 186.5 923 c 128,-1,38
 242 992 242 992 344 1027 c 0,39,40
 449 1064 449 1064 585 1064 c 256,41,42
 721 1064 721 1064 806 1033 c 128,-1,43
 891 1002 891 1002 930 955 c 0,44,45
 949 933 949 933 963.5 900.5 c 128,-1,46
 978 868 978 868 986 835 c 1,47,48
 990 812 990 812 992.5 770 c 128,-1,49
 995 728 995 728 995 672 c 2,50,-1
 995 436 l 2,51,52
 995 312 995 312 998 234.5 c 128,-1,53
 1001 157 1001 157 1006 123 c 0,54,55
 1011 91 1011 91 1022.5 59.5 c 128,-1,56
 1034 28 1034 28 1050 0 c 1,57,-1
 868 0 l 1,58,59
 855 25 855 25 846 59 c 128,-1,60
 837 93 837 93 833 126 c 1,61,-1
 828 128 l 1,0,1
818 526 m 1,62,63
 766 506 766 506 691.5 488.5 c 128,-1,64
 617 471 617 471 520 458 c 1,65,66
 405 441 405 441 361 422 c 0,67,68
 315 403 315 403 288 363 c 1,69,-1
 289 363 l 1,70,71
 263 325 263 325 263 278 c 0,72,73
 263 243 263 243 277 212 c 128,-1,74
 291 181 291 181 318.5 158.5 c 128,-1,75
 346 136 346 136 386.5 123.5 c 128,-1,76
 427 111 427 111 481 111 c 0,77,78
 534 111 534 111 581.5 122.5 c 128,-1,79
 629 134 629 134 668.5 156 c 128,-1,80
 708 178 708 178 739 209 c 128,-1,81
 770 240 770 240 789 279 c 0,82,83
 818 341 818 341 818 458 c 2,84,-1
 818 526 l 1,62,63
EndSplineSet
EndChar

StartChar: b
Encoding: 98 98 69
Width: 1139
GlyphClass: 2
Flags: W
LayerCount: 2
Fore
SplineSet
298 0 m 1,0,-1
 136 0 l 1,1,-1
 136 1439 l 1,2,-1
 311 1439 l 1,3,-1
 311 919 l 1,4,5
 429 1064 429 1064 606 1064 c 0,6,7
 705 1064 705 1064 791.5 1026 c 128,-1,8
 878 988 878 988 934 917 c 1,9,10
 991 847 991 847 1023 748.5 c 128,-1,11
 1055 650 1055 650 1055 536 c 0,12,13
 1055 267 1055 267 920 122 c 0,14,15
 784 -24 784 -24 597 -24 c 0,16,17
 503 -24 503 -24 428.5 16 c 128,-1,18
 354 56 354 56 298 137 c 1,19,-1
 298 0 l 1,0,-1
296 528 m 0,20,21
 296 341 296 341 348 256 c 1,22,23
 392 188 392 188 450.5 153 c 128,-1,24
 509 118 509 118 582 118 c 0,25,26
 703 118 703 118 789 220 c 0,27,28
 876 322 876 322 876 521 c 0,29,30
 876 725 876 725 792 824 c 0,31,32
 709 923 709 923 590 923 c 256,33,34
 471 923 471 923 383 820 c 0,35,36
 296 718 296 718 296 528 c 0,20,21
EndSplineSet
EndChar

StartChar: c
Encoding: 99 99 70
Width: 1024
GlyphClass: 2
Flags: W
LayerCount: 2
Fore
SplineSet
1005 356 m 1,0,1
 977 179 977 179 856 77 c 1,2,3
 738 -24 738 -24 564 -24 c 0,4,5
 346 -24 346 -24 214 115 c 256,6,7
 82 254 82 254 82 517 c 0,8,9
 82 601 82 601 96 675.5 c 128,-1,10
 110 750 110 750 138.5 812 c 128,-1,11
 167 874 167 874 210 921.5 c 128,-1,12
 253 969 253 969 311 1001 c 0,13,14
 429 1064 429 1064 565 1064 c 0,15,16
 650 1064 650 1064 720.5 1042 c 128,-1,17
 791 1020 791 1020 845 978 c 128,-1,18
 899 936 899 936 935.5 875 c 128,-1,19
 972 814 972 814 988 737 c 1,20,21
 944 730 944 730 902 724.5 c 128,-1,22
 860 719 860 719 817 713 c 1,23,24
 791 816 791 816 727.5 869.5 c 128,-1,25
 664 923 664 923 572 923 c 0,26,27
 503 923 503 923 448 898.5 c 128,-1,28
 393 874 393 874 348 825 c 0,29,30
 262 729 262 729 262 521 c 0,31,32
 262 311 262 311 345 215 c 0,33,34
 429 118 429 118 562 118 c 0,35,36
 670 118 670 118 742 182 c 128,-1,37
 814 246 814 246 833 378 c 1,38,-1
 1005 356 l 1,0,1
EndSplineSet
EndChar

StartChar: d
Encoding: 100 100 71
Width: 1139
GlyphClass: 2
Flags: W
LayerCount: 2
Fore
SplineSet
829 0 m 1,0,-1
 829 140 l 1,1,2
 724 -24 724 -24 528 -24 c 0,3,4
 401 -24 401 -24 295 45 c 0,5,6
 191 112 191 112 130 236 c 1,7,8
 72 359 72 359 72 519 c 0,9,10
 72 674 72 674 125 802 c 1,11,12
 180 929 180 929 284 997 c 1,13,14
 390 1064 390 1064 520 1064 c 0,15,16
 616 1064 616 1064 692 1023 c 128,-1,17
 768 982 768 982 817 915 c 1,18,-1
 817 1439 l 1,19,-1
 991 1439 l 1,20,-1
 991 0 l 1,21,-1
 829 0 l 1,0,-1
252 519 m 0,22,23
 252 319 252 319 339 219 c 0,24,25
 427 118 427 118 545 118 c 0,26,27
 665 118 665 118 748 214 c 0,28,29
 832 311 832 311 832 505 c 0,30,31
 832 719 832 719 747 820 c 0,32,33
 661 922 661 922 537 922 c 0,34,35
 416 922 416 922 333 824 c 0,36,37
 252 727 252 727 252 519 c 0,22,23
EndSplineSet
EndChar

StartChar: e
Encoding: 101 101 72
Width: 1139
GlyphClass: 2
Flags: W
LayerCount: 2
Fore
SplineSet
1047 310 m 1,0,1
 1002 150 1002 150 884.5 63 c 128,-1,2
 767 -24 767 -24 582 -24 c 0,3,4
 349 -24 349 -24 213 116 c 256,5,6
 77 256 77 256 77 512 c 0,7,8
 77 646 77 646 111.5 746.5 c 128,-1,9
 146 847 146 847 215 920 c 0,10,11
 351 1064 351 1064 572 1064 c 0,12,13
 785 1064 785 1064 919 923 c 0,14,15
 1054 780 1054 780 1054 522 c 0,16,17
 1054 515 1054 515 1054 504 c 128,-1,18
 1054 493 1054 493 1053 477 c 1,19,-1
 258 477 l 1,20,21
 268 303 268 303 358 211 c 0,22,23
 448 118 448 118 583 118 c 0,24,25
 683 118 683 118 754 170 c 128,-1,26
 825 222 825 222 867 332 c 1,27,-1
 1047 310 l 1,0,1
869 618 m 1,28,29
 857 752 857 752 800 819 c 0,30,31
 712 923 712 923 574 923 c 0,32,33
 511 923 511 923 459 902 c 128,-1,34
 407 881 407 881 362 840 c 0,35,36
 277 760 277 760 268 618 c 1,37,-1
 869 618 l 1,28,29
EndSplineSet
EndChar

StartChar: f
Encoding: 102 102 73
Width: 569
GlyphClass: 2
Flags: W
LayerCount: 2
Fore
SplineSet
181 0 m 1,0,-1
 181 907 l 1,1,-1
 21 907 l 1,2,-1
 21 1041 l 1,3,-1
 181 1041 l 1,4,-1
 181 1154 l 2,5,6
 181 1256 181 1256 200 1309 c 1,7,8
 213 1342 213 1342 236.5 1370 c 128,-1,9
 260 1398 260 1398 293.5 1419 c 128,-1,10
 327 1440 327 1440 371.5 1451.5 c 128,-1,11
 416 1463 416 1463 473 1463 c 0,12,13
 511 1463 511 1463 552 1459 c 128,-1,14
 593 1455 593 1455 639 1447 c 1,15,16
 632 1408 632 1408 626 1370.5 c 128,-1,17
 620 1333 620 1333 613 1296 c 1,18,19
 587 1301 587 1301 559.5 1303 c 128,-1,20
 532 1305 532 1305 508 1305 c 0,21,22
 426 1305 426 1305 390 1269 c 0,23,24
 355 1235 355 1235 355 1139 c 2,25,-1
 355 1041 l 1,26,-1
 562 1041 l 1,27,-1
 562 907 l 1,28,-1
 355 907 l 1,29,-1
 355 0 l 1,30,-1
 181 0 l 1,0,-1
EndSplineSet
EndChar

StartChar: g
Encoding: 103 103 74
Width: 1139
GlyphClass: 2
Flags: W
LayerCount: 2
Fore
SplineSet
274 -116 m 1,0,1
 284 -195 284 -195 336 -232 c 0,2,3
 404 -281 404 -281 522 -281 c 0,4,5
 649 -281 649 -281 718 -232 c 128,-1,6
 787 -183 787 -183 811 -93 c 0,7,8
 817 -68 817 -68 820.5 -19 c 128,-1,9
 824 30 824 30 824 106 c 2,10,-1
 824 142 l 1,11,12
 701 0 701 0 526 0 c 0,13,14
 308 0 308 0 188 155 c 1,15,16
 68 308 68 308 68 526 c 0,17,18
 68 600 68 600 81.5 669 c 128,-1,19
 95 738 95 738 123 801 c 0,20,21
 181 928 181 928 282 996 c 1,22,23
 334 1029 334 1029 396 1046.5 c 128,-1,24
 458 1064 458 1064 527 1064 c 0,25,26
 715 1064 715 1064 841 910 c 1,27,-1
 841 1041 l 1,28,-1
 1002 1041 l 1,29,-1
 1002 140 l 2,30,31
 1002 -104 1002 -104 951 -205 c 0,32,33
 899 -307 899 -307 792 -365 c 0,34,35
 683 -424 683 -424 523 -424 c 0,36,37
 334 -424 334 -424 217 -339 c 0,38,39
 159 -297 159 -297 130.5 -235.5 c 128,-1,40
 102 -174 102 -174 104 -90 c 1,41,-1
 274 -116 l 1,0,1
248 539 m 0,42,43
 248 333 248 333 332 238 c 0,44,45
 374 190 374 190 427 166.5 c 128,-1,46
 480 143 480 143 543 143 c 0,47,48
 670 143 670 143 754 237 c 0,49,50
 839 332 839 332 839 533 c 0,51,52
 839 628 839 628 816 700.5 c 128,-1,53
 793 773 793 773 751 823 c 1,54,55
 708 871 708 871 654.5 896.5 c 128,-1,56
 601 922 601 922 540 922 c 0,57,58
 419 922 419 922 333 824 c 0,59,60
 248 728 248 728 248 539 c 0,42,43
EndSplineSet
EndChar

StartChar: h
Encoding: 104 104 75
Width: 1139
GlyphClass: 2
Flags: W
LayerCount: 2
Fore
SplineSet
137 0 m 1,0,-1
 137 1439 l 1,1,-1
 312 1439 l 1,2,-1
 312 916 l 1,3,4
 443 1064 443 1064 634 1064 c 0,5,6
 752 1064 752 1064 838 1018.5 c 128,-1,7
 924 973 924 973 962 893 c 0,8,9
 1000 811 1000 811 1000 661 c 2,10,-1
 1000 0 l 1,11,-1
 825 0 l 1,12,-1
 825 661 l 2,13,14
 825 794 825 794 765.5 855 c 128,-1,15
 706 916 706 916 597 916 c 0,16,17
 516 916 516 916 444 874 c 1,18,-1
 445 874 l 1,19,20
 372 834 372 834 342 763 c 0,21,22
 312 694 312 694 312 569 c 2,23,-1
 312 0 l 1,24,-1
 137 0 l 1,0,-1
EndSplineSet
EndChar

StartChar: i
Encoding: 105 105 76
Width: 455
GlyphClass: 2
Flags: W
LayerCount: 2
Fore
SplineSet
139 1239 m 1,0,-1
 139 1439 l 1,1,-1
 314 1439 l 1,2,-1
 314 1239 l 1,3,-1
 139 1239 l 1,0,-1
139 0 m 1,4,-1
 139 1041 l 1,5,-1
 314 1041 l 1,6,-1
 314 0 l 1,7,-1
 139 0 l 1,4,-1
EndSplineSet
EndChar

StartChar: j
Encoding: 106 106 77
Width: 455
GlyphClass: 2
Flags: W
LayerCount: 2
Fore
SplineSet
137 1237 m 1,0,-1
 137 1439 l 1,1,-1
 312 1439 l 1,2,-1
 312 1237 l 1,3,-1
 137 1237 l 1,0,-1
-58 -260 m 1,4,5
 -33 -266 -33 -266 -12 -269 c 128,-1,6
 9 -272 9 -272 25 -272 c 0,7,8
 82 -272 82 -272 109 -235 c 0,9,10
 137 -196 137 -196 137 -55 c 2,11,-1
 137 1041 l 1,12,-1
 312 1041 l 1,13,-1
 312 -59 l 2,14,15
 312 -252 312 -252 261 -326 c 1,16,17
 197 -424 197 -424 47 -424 c 0,18,19
 12 -424 12 -424 -23 -420.5 c 128,-1,20
 -58 -417 -58 -417 -92 -407 c 1,21,-1
 -58 -260 l 1,4,5
EndSplineSet
EndChar

StartChar: k
Encoding: 107 107 78
Width: 1024
GlyphClass: 2
Flags: W
LayerCount: 2
Fore
SplineSet
138 0 m 1,0,-1
 138 1439 l 1,1,-1
 313 1439 l 1,2,-1
 313 612 l 1,3,4
 418 715 418 715 528.5 825.5 c 128,-1,5
 639 936 639 936 745 1041 c 1,6,-1
 973 1041 l 1,7,-1
 567 656 l 1,8,9
 680 491 680 491 791 328 c 128,-1,10
 902 165 902 165 1015 0 c 1,11,-1
 798 0 l 1,12,-1
 445 536 l 1,13,-1
 313 413 l 1,14,-1
 313 0 l 1,15,-1
 138 0 l 1,0,-1
EndSplineSet
EndChar

StartChar: l
Encoding: 108 108 79
Width: 455
GlyphClass: 2
Flags: W
LayerCount: 2
Fore
SplineSet
134 0 m 1,0,-1
 134 1439 l 1,1,-1
 309 1439 l 1,2,-1
 309 0 l 1,3,-1
 134 0 l 1,0,-1
EndSplineSet
EndChar

StartChar: m
Encoding: 109 109 80
Width: 1706
GlyphClass: 2
Flags: W
LayerCount: 2
Fore
SplineSet
137 0 m 1,0,-1
 137 1041 l 1,1,-1
 292 1041 l 1,2,-1
 292 886 l 1,3,4
 346 967 346 967 429.5 1015.5 c 128,-1,5
 513 1064 513 1064 619 1064 c 0,6,7
 736 1064 736 1064 811.5 1015 c 128,-1,8
 887 966 887 966 919 877 c 1,9,10
 1047 1064 1047 1064 1249 1064 c 0,11,12
 1407 1064 1407 1064 1491 979.5 c 128,-1,13
 1575 895 1575 895 1575 715 c 2,14,-1
 1575 0 l 1,15,-1
 1402 0 l 1,16,-1
 1402 657 l 2,17,18
 1402 763 1402 763 1384 810 c 0,19,20
 1367 856 1367 856 1319 886 c 0,21,22
 1296 900 1296 900 1268.5 907.5 c 128,-1,23
 1241 915 1241 915 1209 915 c 0,24,25
 1094 915 1094 915 1020 840 c 1,26,27
 945 766 945 766 945 605 c 2,28,-1
 945 0 l 1,29,-1
 770 0 l 1,30,-1
 770 677 l 2,31,32
 770 796 770 796 725.5 855.5 c 128,-1,33
 681 915 681 915 579 915 c 0,34,35
 500 915 500 915 435 875 c 0,36,37
 369 835 369 835 341 760 c 0,38,39
 312 683 312 683 312 540 c 2,40,-1
 312 0 l 1,41,-1
 137 0 l 1,0,-1
EndSplineSet
EndChar

StartChar: n
Encoding: 110 110 81
Width: 1139
GlyphClass: 2
Flags: W
LayerCount: 2
Fore
SplineSet
137 0 m 1,0,-1
 137 1041 l 1,1,-1
 294 1041 l 1,2,-1
 294 885 l 1,3,4
 415 1064 415 1064 636 1064 c 0,5,6
 731 1064 731 1064 812 1030 c 0,7,8
 892 997 892 997 932 943 c 0,9,10
 951 917 951 917 965.5 882 c 128,-1,11
 980 847 980 847 988 813 c 0,12,13
 993 788 993 788 995.5 745 c 128,-1,14
 998 702 998 702 998 640 c 2,15,-1
 998 0 l 1,16,-1
 823 0 l 1,17,-1
 823 633 l 2,18,19
 823 686 823 686 817.5 727.5 c 128,-1,20
 812 769 812 769 802 796 c 1,21,22
 791 821 791 821 771.5 843.5 c 128,-1,23
 752 866 752 866 726 882 c 256,24,25
 700 898 700 898 667 906.5 c 128,-1,26
 634 915 634 915 598 915 c 0,27,28
 483 915 483 915 396 842 c 1,29,30
 312 768 312 768 312 568 c 2,31,-1
 312 0 l 1,32,-1
 137 0 l 1,0,-1
EndSplineSet
EndChar

StartChar: o
Encoding: 111 111 82
Width: 1139
GlyphClass: 2
Flags: W
LayerCount: 2
Fore
SplineSet
70 520 m 0,0,1
 70 663 70 663 113 770.5 c 128,-1,2
 156 878 156 878 234 949 c 1,3,4
 302 1005 302 1005 386.5 1034.5 c 128,-1,5
 471 1064 471 1064 567 1064 c 0,6,7
 784 1064 784 1064 924 924 c 0,8,9
 1063 785 1063 785 1063 535 c 0,10,11
 1063 335 1063 335 1001 219 c 0,12,13
 939 101 939 101 823 40 c 1,14,15
 705 -24 705 -24 567 -24 c 0,16,17
 346 -24 346 -24 207 116 c 1,18,19
 70 256 70 256 70 520 c 0,0,1
567 118 m 0,20,21
 704 118 704 118 793 220 c 1,22,23
 883 320 883 320 883 526 c 0,24,25
 883 621 883 621 859 695.5 c 128,-1,26
 835 770 835 770 792 820 c 1,27,28
 747 870 747 870 690.5 896 c 128,-1,29
 634 922 634 922 567 922 c 0,30,31
 431 922 431 922 340 821 c 0,32,33
 250 721 250 721 250 520 c 0,34,35
 250 320 250 320 340 219 c 0,36,37
 431 118 431 118 567 118 c 0,20,21
EndSplineSet
EndChar

StartChar: p
Encoding: 112 112 83
Width: 1139
GlyphClass: 2
Flags: W
LayerCount: 2
Fore
SplineSet
137 -401 m 1,0,-1
 137 1041 l 1,1,-1
 296 1041 l 1,2,-1
 296 899 l 1,3,4
 356 982 356 982 430 1023 c 128,-1,5
 504 1064 504 1064 608 1064 c 0,6,7
 675 1064 675 1064 735 1046 c 128,-1,8
 795 1028 795 1028 845.5 994 c 128,-1,9
 896 960 896 960 936.5 911.5 c 128,-1,10
 977 863 977 863 1004 802 c 1,11,12
 1030 740 1030 740 1043.5 671 c 128,-1,13
 1057 602 1057 602 1057 528 c 0,14,15
 1057 369 1057 369 998 240 c 1,16,17
 937 112 937 112 828 44 c 1,18,19
 717 -24 717 -24 595 -24 c 0,20,21
 505 -24 505 -24 432.5 15 c 128,-1,22
 360 54 360 54 312 113 c 1,23,-1
 312 -401 l 1,24,-1
 137 -401 l 1,0,-1
583 118 m 0,25,26
 703 118 703 118 791 219 c 0,27,28
 878 320 878 320 878 529 c 0,29,30
 878 730 878 730 793 829 c 1,31,32
 708 930 708 930 591 930 c 0,33,34
 533 930 533 930 481 902.5 c 128,-1,35
 429 875 429 875 384 822 c 1,36,37
 341 769 341 769 318 691.5 c 128,-1,38
 295 614 295 614 295 515 c 0,39,40
 295 313 295 313 379 216 c 0,41,42
 465 118 465 118 583 118 c 0,25,26
EndSplineSet
EndChar

StartChar: q
Encoding: 113 113 84
Width: 1139
GlyphClass: 2
Flags: W
LayerCount: 2
Fore
SplineSet
817 -401 m 1,0,-1
 817 117 l 1,1,2
 769 52 769 52 695 15 c 0,3,4
 618 -24 618 -24 535 -24 c 0,5,6
 345 -24 345 -24 210 123 c 0,7,8
 74 271 74 271 74 530 c 0,9,10
 74 688 74 688 129 812 c 1,11,12
 187 938 187 938 290 1000 c 0,13,14
 395 1064 395 1064 521 1064 c 0,15,16
 619 1064 619 1064 697.5 1022.5 c 128,-1,17
 776 981 776 981 835 895 c 1,18,-1
 835 1041 l 1,19,-1
 992 1041 l 1,20,-1
 992 -401 l 1,21,-1
 817 -401 l 1,0,-1
254 523 m 0,22,23
 254 322 254 322 341 220 c 0,24,25
 427 118 427 118 550 118 c 0,26,27
 667 118 667 118 751 215 c 256,28,29
 835 312 835 312 835 508 c 0,30,31
 835 609 835 609 812 689 c 128,-1,32
 789 769 789 769 746 822 c 1,33,34
 702 874 702 874 650 901.5 c 128,-1,35
 598 929 598 929 538 929 c 0,36,37
 420 929 420 929 336 829 c 0,38,39
 254 731 254 731 254 523 c 0,22,23
EndSplineSet
EndChar

StartChar: r
Encoding: 114 114 85
Width: 682
GlyphClass: 2
Flags: W
LayerCount: 2
Fore
SplineSet
136 0 m 1,0,-1
 136 1041 l 1,1,-1
 292 1041 l 1,2,-1
 292 883 l 1,3,-1
 297 882 l 1,4,5
 358 993 358 993 412 1029 c 0,6,7
 464 1064 464 1064 526 1064 c 0,8,9
 571 1064 571 1064 615.5 1050.5 c 128,-1,10
 660 1037 660 1037 708 1009 c 1,11,-1
 648 849 l 1,12,13
 616 865 616 865 582.5 875 c 128,-1,14
 549 885 549 885 517 885 c 0,15,16
 456 885 456 885 408.5 850 c 128,-1,17
 361 815 361 815 340 753 c 1,18,19
 310 659 310 659 310 545 c 2,20,-1
 310 0 l 1,21,-1
 136 0 l 1,0,-1
EndSplineSet
EndChar

StartChar: s
Encoding: 115 115 86
Width: 1024
GlyphClass: 2
Flags: W
LayerCount: 2
Fore
SplineSet
238 335 m 1,0,1
 253 229 253 229 322.5 173.5 c 128,-1,2
 392 118 392 118 517 118 c 256,3,4
 642 118 642 118 704 168 c 1,5,6
 765 219 765 219 765 286 c 0,7,8
 765 348 765 348 711 382 c 0,9,10
 692 395 692 395 646 409.5 c 128,-1,11
 600 424 600 424 525 443 c 0,12,13
 326 492 326 492 249 527 c 0,14,15
 213 544 213 544 184 569.5 c 128,-1,16
 155 595 155 595 135 625 c 1,17,18
 95 690 95 690 95 765 c 0,19,20
 95 835 95 835 127.5 894 c 128,-1,21
 160 953 160 953 216 992 c 0,22,23
 237 1007 237 1007 266 1020 c 128,-1,24
 295 1033 295 1033 330 1043 c 128,-1,25
 365 1053 365 1053 404 1058.5 c 128,-1,26
 443 1064 443 1064 485 1064 c 0,27,28
 611 1064 611 1064 704.5 1029.5 c 128,-1,29
 798 995 798 995 843 934 c 0,30,31
 863 907 863 907 879 862.5 c 128,-1,32
 895 818 895 818 904 774 c 1,33,34
 861 768 861 768 819 763.5 c 128,-1,35
 777 759 777 759 734 753 c 1,36,37
 721 833 721 833 662.5 878 c 128,-1,38
 604 923 604 923 498 923 c 0,39,40
 372 923 372 923 318 882 c 256,41,42
 264 841 264 841 264 786 c 0,43,44
 264 752 264 752 287 723 c 0,45,46
 310 695 310 695 357 675 c 0,47,48
 371 670 371 670 411 659 c 128,-1,49
 451 648 451 648 517 629 c 1,50,51
 613 604 613 604 679.5 584 c 128,-1,52
 746 564 746 564 784 547 c 0,53,54
 822 531 822 531 851 508.5 c 128,-1,55
 880 486 880 486 902 456 c 0,56,57
 945 398 945 398 945 305 c 0,58,59
 945 217 945 217 891 139 c 1,60,61
 838 59 838 59 742 19 c 1,62,63
 692 -3 692 -3 636 -13.5 c 128,-1,64
 580 -24 580 -24 518 -24 c 0,65,66
 311 -24 311 -24 203 59.5 c 128,-1,67
 95 143 95 143 65 308 c 1,68,-1
 238 335 l 1,0,1
EndSplineSet
EndChar

StartChar: t
Encoding: 116 116 87
Width: 569
GlyphClass: 2
Flags: W
LayerCount: 2
Fore
SplineSet
553 1 m 1,0,1
 515 -7 515 -7 481.5 -10.5 c 128,-1,2
 448 -14 448 -14 419 -14 c 0,3,4
 322 -14 322 -14 268.5 15.5 c 128,-1,5
 215 45 215 45 193 95 c 0,6,7
 171 144 171 144 171 304 c 2,8,-1
 171 907 l 1,9,-1
 39 907 l 1,10,-1
 39 1041 l 1,11,-1
 171 1041 l 1,12,-1
 171 1301 l 1,13,14
 213 1326 213 1326 258 1351 c 128,-1,15
 303 1376 303 1376 345 1402 c 1,16,-1
 345 1041 l 1,17,-1
 526 1041 l 1,18,-1
 526 907 l 1,19,-1
 345 907 l 1,20,-1
 345 294 l 2,21,22
 345 218 345 218 354 196 c 1,23,24
 365 173 365 173 386 161 c 0,25,26
 408 148 408 148 450 148 c 0,27,28
 465 148 465 148 483.5 149.5 c 128,-1,29
 502 151 502 151 526 155 c 1,30,-1
 553 1 l 1,0,1
EndSplineSet
EndChar

StartChar: u
Encoding: 117 117 88
Width: 1139
GlyphClass: 2
Flags: W
LayerCount: 2
Fore
SplineSet
836 0 m 1,0,-1
 836 160 l 1,1,2
 707 -24 707 -24 495 -24 c 0,3,4
 450 -24 450 -24 405 -14.5 c 128,-1,5
 360 -5 360 -5 319 12 c 0,6,7
 281 28 281 28 250 51 c 128,-1,8
 219 74 219 74 199 99 c 1,9,10
 182 124 182 124 167.5 159 c 128,-1,11
 153 194 153 194 144 230 c 1,12,13
 133 284 133 284 133 396 c 2,14,-1
 133 1041 l 1,15,-1
 308 1041 l 1,16,-1
 308 464 l 2,17,18
 308 393 308 393 311 347 c 128,-1,19
 314 301 314 301 319 276 c 1,20,21
 336 206 336 206 392 165 c 128,-1,22
 448 124 448 124 531 124 c 0,23,24
 573 124 573 124 611 135 c 128,-1,25
 649 146 649 146 685 166 c 1,26,27
 720 187 720 187 746.5 215 c 128,-1,28
 773 243 773 243 787 277 c 0,29,30
 801 313 801 313 809 365 c 128,-1,31
 817 417 817 417 817 483 c 2,32,-1
 817 1041 l 1,33,-1
 992 1041 l 1,34,-1
 992 0 l 1,35,-1
 836 0 l 1,0,-1
EndSplineSet
EndChar

StartChar: v
Encoding: 118 118 89
Width: 1024
GlyphClass: 2
Flags: W
LayerCount: 2
Fore
SplineSet
434 0 m 1,0,-1
 29 1041 l 1,1,-1
 213 1041 l 1,2,-1
 442 417 l 2,3,4
 461 365 461 365 479 307.5 c 128,-1,5
 497 250 497 250 513 195 c 1,6,7
 525 236 525 236 543 291 c 128,-1,8
 561 346 561 346 583 405 c 0,9,10
 611 480 611 480 641 560.5 c 128,-1,11
 671 641 671 641 701.5 722.5 c 128,-1,12
 732 804 732 804 762 884.5 c 128,-1,13
 792 965 792 965 820 1041 c 1,14,-1
 999 1041 l 1,15,16
 899 781 899 781 797.5 520.5 c 128,-1,17
 696 260 696 260 596 0 c 1,18,-1
 434 0 l 1,0,-1
EndSplineSet
EndChar

StartChar: w
Encoding: 119 119 90
Width: 1479
GlyphClass: 2
Flags: W
LayerCount: 2
Fore
SplineSet
334 0 m 1,0,1
 252 262 252 262 171 520.5 c 128,-1,2
 90 779 90 779 9 1041 c 1,3,-1
 188 1041 l 1,4,5
 230 893 230 893 273 739.5 c 128,-1,6
 316 586 316 586 358 439 c 2,7,-1
 421 214 l 1,8,-1
 427 215 l 1,9,10
 428 219 428 219 432.5 235.5 c 128,-1,11
 437 252 437 252 443 277 c 2,12,-1
 482 431 l 1,13,-1
 482 430 l 1,14,15
 524 581 524 581 567 735 c 128,-1,16
 610 889 610 889 652 1041 c 1,17,-1
 832 1041 l 1,18,-1
 991 436 l 1,19,-1
 991 437 l 1,20,-1
 1048 226 l 1,21,-1
 1112 438 l 2,22,23
 1156 585 1156 585 1202.5 739 c 128,-1,24
 1249 893 1249 893 1294 1041 c 1,25,-1
 1463 1041 l 1,26,27
 1381 781 1381 781 1297 520.5 c 128,-1,28
 1213 260 1213 260 1131 0 c 1,29,-1
 949 0 l 1,30,31
 907 158 907 158 864.5 313 c 128,-1,32
 822 468 822 468 780 624 c 1,33,-1
 780 623 l 1,34,-1
 738 803 l 1,35,-1
 732 804 l 1,36,37
 679 604 679 604 624.5 402 c 128,-1,38
 570 200 570 200 517 0 c 1,39,-1
 334 0 l 1,0,1
EndSplineSet
EndChar

StartChar: x
Encoding: 120 120 91
Width: 1024
GlyphClass: 2
Flags: W
LayerCount: 2
Fore
SplineSet
18 0 m 1,0,-1
 407 541 l 1,1,-1
 47 1041 l 1,2,-1
 267 1041 l 1,3,-1
 430 797 l 2,4,5
 453 763 453 763 473 731 c 128,-1,6
 493 699 493 699 507 675 c 1,7,8
 529 708 529 708 550 738.5 c 128,-1,9
 571 769 571 769 590 795 c 0,10,11
 634 856 634 856 679.5 918 c 128,-1,12
 725 980 725 980 769 1041 c 1,13,-1
 980 1041 l 1,14,-1
 612 551 l 1,15,16
 712 413 712 413 810 275.5 c 128,-1,17
 908 138 908 138 1008 0 c 1,18,-1
 792 0 l 1,19,-1
 574 323 l 1,20,-1
 514 416 l 1,21,22
 445 314 445 314 373 208 c 128,-1,23
 301 102 301 102 232 0 c 1,24,-1
 18 0 l 1,0,-1
EndSplineSet
EndChar

StartChar: y
Encoding: 121 121 92
Width: 1024
GlyphClass: 2
Flags: W
LayerCount: 2
Fore
SplineSet
109 -241 m 1,0,1
 166 -256 166 -256 210 -256 c 0,2,3
 272 -256 272 -256 308 -236.5 c 128,-1,4
 344 -217 344 -217 368 -180 c 0,5,6
 376 -167 376 -167 390.5 -134 c 128,-1,7
 405 -101 405 -101 424 -48 c 0,8,9
 426 -43 426 -43 428.5 -36 c 128,-1,10
 431 -29 431 -29 434 -22 c 0,11,12
 436 -18 436 -18 437 -13.5 c 128,-1,13
 438 -9 438 -9 440 -4 c 1,14,15
 338 258 338 258 238 518.5 c 128,-1,16
 138 779 138 779 36 1041 c 1,17,-1
 224 1041 l 1,18,-1
 446 437 l 2,19,20
 467 380 467 380 486 319.5 c 128,-1,21
 505 259 505 259 523 194 c 1,22,-1
 529 195 l 1,23,24
 545 257 545 257 563 315.5 c 128,-1,25
 581 374 581 374 603 433 c 0,26,27
 659 582 659 582 717.5 737 c 128,-1,28
 776 892 776 892 831 1041 c 1,29,-1
 1005 1041 l 1,30,-1
 600 -19 l 1,31,32
 568 -106 568 -106 542.5 -164.5 c 128,-1,33
 517 -223 517 -223 499 -256 c 0,34,35
 451 -343 451 -343 390 -383.5 c 128,-1,36
 329 -424 329 -424 243 -424 c 0,37,38
 217 -424 217 -424 189.5 -419.5 c 128,-1,39
 162 -415 162 -415 130 -404 c 1,40,-1
 109 -241 l 1,0,1
EndSplineSet
EndChar

StartChar: z
Encoding: 122 122 93
Width: 1024
GlyphClass: 2
Flags: W
LayerCount: 2
Fore
SplineSet
42 0 m 1,0,-1
 42 142 l 1,1,-1
 41 141 l 1,2,-1
 723 907 l 1,3,4
 664 904 664 904 611.5 902.5 c 128,-1,5
 559 901 559 901 514 901 c 2,6,-1
 82 901 l 1,7,-1
 82 1041 l 1,8,-1
 948 1041 l 1,9,-1
 948 926 l 1,10,-1
 949 927 l 1,11,12
 806 763 806 763 660 595.5 c 128,-1,13
 514 428 514 428 371 264 c 1,14,-1
 257 140 l 1,15,16
 318 145 318 145 377 147 c 128,-1,17
 436 149 436 149 490 149 c 2,18,-1
 980 149 l 1,19,-1
 980 0 l 1,20,-1
 42 0 l 1,0,-1
EndSplineSet
EndChar

StartChar: braceleft
Encoding: 123 123 94
Width: 673
GlyphClass: 2
Flags: W
LayerCount: 2
Fore
SplineSet
142 780 m 1,0,1
 217 783 217 783 264.5 822.5 c 128,-1,2
 312 862 312 862 329 927 c 0,3,4
 337 961 337 961 341.5 1019 c 128,-1,5
 346 1077 346 1077 346 1156 c 0,6,7
 347 1235 347 1235 348.5 1289 c 128,-1,8
 350 1343 350 1343 352 1369 c 1,9,10
 359 1427 359 1427 374.5 1469 c 128,-1,11
 390 1511 390 1511 413 1541.5 c 128,-1,12
 436 1572 436 1572 466 1591 c 128,-1,13
 496 1610 496 1610 534 1623 c 1,14,15
 553 1627 553 1627 584.5 1629.5 c 128,-1,16
 616 1632 616 1632 655 1633 c 1,17,-1
 708 1633 l 1,18,-1
 708 1485 l 1,19,-1
 682 1485 l 2,20,21
 578 1485 578 1485 542 1447 c 1,22,23
 507 1408 507 1408 507 1283 c 0,24,25
 507 1156 507 1156 504.5 1076.5 c 128,-1,26
 502 997 502 997 497 962 c 1,27,28
 488 913 488 913 472.5 871 c 128,-1,29
 457 829 457 829 437 803 c 0,30,31
 416 776 416 776 381 750 c 128,-1,32
 346 724 346 724 298 703 c 1,33,34
 408 658 408 658 458 565 c 0,35,36
 507 474 507 474 507 267 c 0,37,38
 507 174 507 174 508 117.5 c 128,-1,39
 509 61 509 61 511 40 c 0,40,41
 519 -27 519 -27 551 -53 c 0,42,43
 584 -79 584 -79 682 -79 c 2,44,-1
 708 -79 l 1,45,-1
 708 -228 l 1,46,-1
 655 -228 l 2,47,48
 557 -228 557 -228 515 -213 c 0,49,50
 453 -190 453 -190 413 -140 c 128,-1,51
 373 -90 373 -90 359 -16 c 1,52,53
 353 23 353 23 350 85.5 c 128,-1,54
 347 148 347 148 346 235 c 1,55,56
 346 409 346 409 329 477 c 0,57,58
 312 544 312 544 264 584 c 0,59,60
 241 603 241 603 210.5 613.5 c 128,-1,61
 180 624 180 624 142 625 c 1,62,-1
 142 780 l 1,0,1
EndSplineSet
EndChar

StartChar: bar
Encoding: 124 124 95
Width: 522
GlyphClass: 2
Flags: W
LayerCount: 2
Fore
SplineSet
188 -419 m 1,0,-1
 188 1444 l 1,1,-1
 338 1444 l 1,2,-1
 338 -419 l 1,3,-1
 188 -419 l 1,0,-1
EndSplineSet
EndChar

StartChar: braceright
Encoding: 125 125 96
Width: 747
GlyphClass: 2
Flags: W
LayerCount: 2
Fore
SplineSet
728 625 m 1,0,1
 654 622 654 622 605.5 582 c 128,-1,2
 557 542 557 542 540 477 c 0,3,4
 532 444 532 444 528 383 c 128,-1,5
 524 322 524 322 523 235 c 1,6,7
 523 147 523 147 520 85 c 128,-1,8
 517 23 517 23 510 -16 c 0,9,10
 498 -91 498 -91 458 -141 c 256,11,12
 418 -191 418 -191 354 -213 c 0,13,14
 312 -228 312 -228 215 -228 c 2,15,-1
 162 -228 l 1,16,-1
 162 -79 l 1,17,-1
 188 -79 l 2,18,19
 282 -79 282 -79 317 -53 c 1,20,21
 350 -26 350 -26 359 40 c 0,22,23
 361 61 361 61 362 117.5 c 128,-1,24
 363 174 363 174 363 267 c 0,25,26
 363 474 363 474 412 565 c 0,27,28
 461 657 461 657 571 703 c 1,29,30
 523 725 523 725 489 750 c 128,-1,31
 455 775 455 775 433 803 c 0,32,33
 413 829 413 829 397.5 870 c 128,-1,34
 382 911 382 911 373 962 c 1,35,36
 368 997 368 997 365.5 1076.5 c 128,-1,37
 363 1156 363 1156 363 1283 c 0,38,39
 363 1406 363 1406 327 1447 c 1,40,41
 291 1485 291 1485 188 1485 c 2,42,-1
 162 1485 l 1,43,-1
 162 1633 l 1,44,-1
 215 1633 l 1,45,46
 256 1632 256 1632 286 1630 c 128,-1,47
 316 1628 316 1628 335 1623 c 0,48,49
 373 1611 373 1611 404 1592 c 128,-1,50
 435 1573 435 1573 458 1543.5 c 128,-1,51
 481 1514 481 1514 496 1471.5 c 128,-1,52
 511 1429 511 1429 518 1369 c 0,53,54
 520 1344 520 1344 521.5 1291 c 128,-1,55
 523 1238 523 1238 523 1156 c 1,56,57
 524 1077 524 1077 528 1019 c 128,-1,58
 532 961 532 961 540 927 c 0,59,60
 557 862 557 862 605 822.5 c 128,-1,61
 653 783 653 783 728 780 c 1,62,-1
 728 625 l 1,0,1
EndSplineSet
EndChar

StartChar: asciitilde
Encoding: 126 126 97
Width: 1178
GlyphClass: 2
Flags: W
LayerCount: 2
Fore
SplineSet
88 736 m 1,0,-1
 87 735 l 1,1,2
 191 850 191 850 360 852 c 0,3,4
 418 852 418 852 483 834 c 0,5,6
 515 825 515 825 563 808 c 128,-1,7
 611 791 611 791 670 767 c 0,8,9
 703 754 703 754 729.5 745 c 128,-1,10
 756 736 756 736 773 731 c 0,11,12
 790 727 790 727 807 725 c 128,-1,13
 824 723 824 723 842 723 c 0,14,15
 906 723 906 723 973 758 c 128,-1,16
 1040 793 1040 793 1095 851 c 1,17,-1
 1095 653 l 1,18,19
 1033 596 1033 596 968 569 c 128,-1,20
 903 542 903 542 824 542 c 0,21,22
 769 542 769 542 711 556 c 0,23,24
 683 563 683 563 639.5 579 c 128,-1,25
 596 595 596 595 539 620 c 1,26,27
 481 647 481 647 432 659.5 c 128,-1,28
 383 672 383 672 343 672 c 0,29,30
 278 672 278 672 223 644 c 256,31,32
 168 616 168 616 88 543 c 1,33,-1
 88 736 l 1,0,-1
EndSplineSet
EndChar

StartChar: exclamdown
Encoding: 161 161 99
Width: 682
GlyphClass: 2
Flags: W
LayerCount: 2
Fore
SplineSet
445 1041 m 1,0,-1
 445 843 l 1,1,-1
 243 843 l 1,2,-1
 243 1041 l 1,3,-1
 445 1041 l 1,0,-1
398 682 m 1,4,5
 412 493 412 493 425.5 301.5 c 128,-1,6
 439 110 439 110 453 -79 c 1,7,-1
 453 -398 l 1,8,-1
 235 -398 l 1,9,-1
 235 -79 l 1,10,11
 248 112 248 112 261 301.5 c 128,-1,12
 274 491 274 491 287 682 c 1,13,-1
 398 682 l 1,4,5
EndSplineSet
EndChar

StartChar: cent
Encoding: 162 162 100
Width: 1139
GlyphClass: 2
Flags: W
LayerCount: 2
Fore
SplineSet
519 123 m 1,0,1
 555 113 555 113 584 113 c 0,2,3
 636 113 636 113 682 131.5 c 128,-1,4
 728 150 728 150 766 184 c 1,5,6
 843 257 843 257 860 378 c 1,7,8
 904 373 904 373 947 368.5 c 128,-1,9
 990 364 990 364 1034 359 c 1,10,11
 1001 180 1001 180 877 76 c 0,12,13
 755 -27 755 -27 587 -27 c 0,14,15
 540 -27 540 -27 482 -13 c 1,16,17
 453 -110 453 -110 422.5 -207.5 c 128,-1,18
 392 -305 392 -305 363 -402 c 1,19,20
 336 -394 336 -394 310 -386.5 c 128,-1,21
 284 -379 284 -379 257 -371 c 1,22,-1
 372 20 l 1,23,24
 315 46 315 46 267 92 c 128,-1,25
 219 138 219 138 183 200 c 0,26,27
 146 263 146 263 127.5 342.5 c 128,-1,28
 109 422 109 422 109 516 c 0,29,30
 109 691 109 691 167 816 c 128,-1,31
 225 941 225 941 341 1003 c 0,32,33
 459 1065 459 1065 579 1065 c 0,34,35
 599 1065 599 1065 624.5 1063 c 128,-1,36
 650 1061 650 1061 682 1058 c 1,37,38
 711 1153 711 1153 739 1248 c 128,-1,39
 767 1343 767 1343 795 1438 c 1,40,41
 821 1430 821 1430 847 1422.5 c 128,-1,42
 873 1415 873 1415 899 1407 c 1,43,-1
 787 1027 l 1,44,45
 886 986 886 986 939.5 913.5 c 128,-1,46
 993 841 993 841 1015 737 c 1,47,48
 972 730 972 730 930 724.5 c 128,-1,49
 888 719 888 719 845 713 c 1,50,51
 820 821 820 821 744 882 c 1,52,-1
 519 123 l 1,0,1
643 925 m 1,53,54
 611 928 611 928 589 928 c 0,55,56
 547 928 547 928 507.5 917 c 128,-1,57
 468 906 468 906 433 883.5 c 128,-1,58
 398 861 398 861 370 825.5 c 128,-1,59
 342 790 342 790 324 743 c 0,60,61
 289 649 289 649 289 524 c 0,62,63
 289 393 289 393 322 303.5 c 128,-1,64
 355 214 355 214 417 168 c 1,65,-1
 643 925 l 1,53,54
EndSplineSet
EndChar

StartChar: sterling
Encoding: 163 163 101
Width: 1139
GlyphClass: 2
Flags: W
LayerCount: 2
Fore
SplineSet
710 792 m 1,0,-1
 710 650 l 1,1,-1
 424 650 l 1,2,3
 435 627 435 627 439.5 604.5 c 128,-1,4
 444 582 444 582 444 562 c 0,5,6
 444 475 444 475 401.5 379.5 c 128,-1,7
 359 284 359 284 261 182 c 1,8,9
 348 206 348 206 413 206 c 0,10,11
 454 206 454 206 500.5 200 c 128,-1,12
 547 194 547 194 599 181 c 1,13,14
 687 162 687 162 744.5 151.5 c 128,-1,15
 802 141 802 141 834 141 c 0,16,17
 909 141 909 141 1025 194 c 1,18,19
 1039 153 1039 153 1053.5 115 c 128,-1,20
 1068 77 1068 77 1082 36 c 1,21,22
 1037 17 1037 17 1001.5 5 c 128,-1,23
 966 -7 966 -7 940 -13 c 0,24,25
 892 -25 892 -25 841 -25 c 0,26,27
 820 -25 820 -25 799 -23 c 128,-1,28
 778 -21 778 -21 756 -17 c 0,29,30
 743 -15 743 -15 711.5 -6 c 128,-1,31
 680 3 680 3 626 19 c 1,32,33
 575 33 575 33 542.5 42.5 c 128,-1,34
 510 52 510 52 493 56 c 1,35,36
 470 60 470 60 446 62 c 128,-1,37
 422 64 422 64 398 64 c 0,38,39
 362 64 362 64 323 57.5 c 128,-1,40
 284 51 284 51 245 39.5 c 128,-1,41
 206 28 206 28 168 11.5 c 128,-1,42
 130 -5 130 -5 96 -25 c 1,43,44
 79 17 79 17 63 57 c 128,-1,45
 47 97 47 97 30 140 c 1,46,47
 78 166 78 166 118.5 203.5 c 128,-1,48
 159 241 159 241 192 288 c 0,49,50
 227 338 227 338 243.5 397.5 c 128,-1,51
 260 457 260 457 260 526 c 0,52,53
 260 586 260 586 243 650 c 1,54,-1
 46 650 l 1,55,-1
 46 792 l 1,56,-1
 202 792 l 1,57,58
 185 850 185 850 174 891 c 128,-1,59
 163 932 163 932 159 955 c 0,60,61
 155 979 155 979 152.5 1005 c 128,-1,62
 150 1031 150 1031 150 1054 c 0,63,64
 150 1155 150 1155 189 1234.5 c 128,-1,65
 228 1314 228 1314 303 1371 c 1,66,67
 366 1415 366 1415 441 1439 c 128,-1,68
 516 1463 516 1463 602 1463 c 0,69,70
 781 1463 781 1463 899 1364 c 1,71,72
 958 1317 958 1317 994 1248.5 c 128,-1,73
 1030 1180 1030 1180 1044 1093 c 1,74,75
 1000 1086 1000 1086 957 1080.5 c 128,-1,76
 914 1075 914 1075 870 1068 c 1,77,78
 863 1122 863 1122 837.5 1170.5 c 128,-1,79
 812 1219 812 1219 779 1253 c 1,80,81
 742 1284 742 1284 695.5 1302.5 c 128,-1,82
 649 1321 649 1321 598 1321 c 0,83,84
 487 1321 487 1321 411 1250 c 0,85,86
 336 1180 336 1180 336 1079 c 0,87,88
 336 966 336 966 393 792 c 1,89,-1
 710 792 l 1,0,-1
EndSplineSet
EndChar

StartChar: currency
Encoding: 164 164 102
Width: 1139
GlyphClass: 2
Flags: W
LayerCount: 2
Fore
SplineSet
76 1077 m 1,0,1
 104 1106 104 1106 132.5 1134.5 c 128,-1,2
 161 1163 161 1163 189 1192 c 1,3,-1
 328 1055 l 1,4,5
 435 1126 435 1126 566 1126 c 0,6,7
 698 1126 698 1126 804 1055 c 1,8,-1
 943 1192 l 1,9,10
 972 1163 972 1163 1000.5 1134.5 c 128,-1,11
 1029 1106 1029 1106 1057 1077 c 1,12,-1
 917 944 l 1,13,14
 989 835 989 835 989 713 c 0,15,16
 989 587 989 587 917 480 c 1,17,18
 950 449 950 449 987.5 413 c 128,-1,19
 1025 377 1025 377 1057 346 c 1,20,21
 1028 318 1028 318 1000 289.5 c 128,-1,22
 972 261 972 261 943 232 c 1,23,-1
 804 369 l 1,24,25
 699 297 699 297 566 297 c 0,26,27
 435 297 435 297 328 369 c 1,28,29
 293 335 293 335 258.5 301 c 128,-1,30
 224 267 224 267 189 232 c 1,31,32
 163 259 163 259 132.5 289.5 c 128,-1,33
 102 320 102 320 76 346 c 1,34,-1
 216 480 l 1,35,36
 181 534 181 534 162.5 592 c 128,-1,37
 144 650 144 650 144 713 c 0,38,39
 144 833 144 833 216 944 c 1,40,-1
 76 1077 l 1,0,1
302 713 m 0,41,42
 302 606 302 606 379 530 c 1,43,44
 457 455 457 455 565 455 c 0,45,46
 674 455 674 455 751 530 c 0,47,48
 828 606 828 606 828 713 c 0,49,50
 828 817 828 817 751 893 c 1,51,52
 677 969 677 969 565 969 c 0,53,54
 457 969 457 969 379 893 c 0,55,56
 302 817 302 817 302 713 c 0,41,42
EndSplineSet
EndChar

StartChar: yen
Encoding: 165 165 103
Width: 1139
GlyphClass: 2
Flags: W
LayerCount: 2
Fore
SplineSet
481 0 m 1,0,-1
 481 320 l 1,1,-1
 64 320 l 1,2,-1
 64 453 l 1,3,-1
 481 453 l 1,4,-1
 481 597 l 1,5,-1
 64 597 l 1,6,-1
 64 739 l 1,7,-1
 408 739 l 1,8,9
 306 914 306 914 204.5 1088.5 c 128,-1,10
 103 1263 103 1263 1 1439 c 1,11,-1
 195 1439 l 1,12,13
 266 1313 266 1313 339.5 1185 c 128,-1,14
 413 1057 413 1057 485 932 c 0,15,16
 509 889 509 889 529.5 848.5 c 128,-1,17
 550 808 550 808 564 773 c 1,18,19
 577 802 577 802 598.5 844.5 c 128,-1,20
 620 887 620 887 649 941 c 1,21,22
 716 1061 716 1061 786.5 1189 c 128,-1,23
 857 1317 857 1317 923 1439 c 1,24,-1
 1131 1439 l 1,25,-1
 725 739 l 1,26,-1
 1069 739 l 1,27,-1
 1069 597 l 1,28,-1
 655 597 l 1,29,-1
 655 453 l 1,30,-1
 1069 453 l 1,31,-1
 1069 320 l 1,32,-1
 655 320 l 1,33,-1
 655 0 l 1,34,-1
 481 0 l 1,0,-1
EndSplineSet
EndChar

StartChar: brokenbar
Encoding: 166 166 104
Width: 532
GlyphClass: 2
Flags: W
LayerCount: 2
Fore
SplineSet
343 1463 m 1,0,-1
 343 690 l 1,1,-1
 191 690 l 1,2,-1
 191 1463 l 1,3,-1
 343 1463 l 1,0,-1
343 350 m 1,4,-1
 343 -424 l 1,5,-1
 191 -424 l 1,6,-1
 191 350 l 1,7,-1
 343 350 l 1,4,-1
EndSplineSet
EndChar

StartChar: section
Encoding: 167 167 105
Width: 1139
GlyphClass: 2
Flags: W
LayerCount: 2
Fore
SplineSet
321 -47 m 1,0,1
 349 -174 349 -174 411 -226 c 1,2,3
 475 -278 475 -278 580 -278 c 0,4,5
 683 -278 683 -278 742 -226 c 0,6,7
 801 -173 801 -173 801 -105 c 0,8,9
 801 -79 801 -79 791 -56.5 c 128,-1,10
 781 -34 781 -34 764 -12 c 1,11,12
 732 25 732 25 644.5 87 c 128,-1,13
 557 149 557 149 423 230 c 0,14,15
 352 273 352 273 298 309 c 128,-1,16
 244 345 244 345 215 369 c 1,17,-1
 215 369 l 1,18,19
 158 419 158 419 120 489 c 0,20,21
 83 558 83 558 83 631 c 0,22,23
 83 726 83 726 142 802 c 1,24,25
 203 878 203 878 310 909 c 1,26,27
 274 943 274 943 249 973.5 c 128,-1,28
 224 1004 224 1004 209 1033 c 128,-1,29
 194 1062 194 1062 187 1091.5 c 128,-1,30
 180 1121 180 1121 180 1154 c 0,31,32
 180 1280 180 1280 279 1371 c 1,33,34
 377 1463 377 1463 543 1463 c 0,35,36
 730 1463 730 1463 834 1377 c 128,-1,37
 938 1291 938 1291 960 1125 c 1,38,39
 913 1120 913 1120 868.5 1115.5 c 128,-1,40
 824 1111 824 1111 778 1107 c 1,41,42
 767 1167 767 1167 748.5 1208.5 c 128,-1,43
 730 1250 730 1250 703 1275 c 128,-1,44
 676 1300 676 1300 640 1310.5 c 128,-1,45
 604 1321 604 1321 559 1321 c 0,46,47
 467 1321 467 1321 407 1271 c 1,48,49
 350 1221 350 1221 350 1162 c 0,50,51
 350 1112 350 1112 387 1067 c 1,52,53
 417 1033 417 1033 493.5 978.5 c 128,-1,54
 570 924 570 924 695 850 c 0,55,56
 772 804 772 804 825 769 c 128,-1,57
 878 734 878 734 907 712 c 1,58,59
 975 654 975 654 1010 590 c 128,-1,60
 1045 526 1045 526 1045 455 c 0,61,62
 1045 342 1045 342 973 266 c 0,63,64
 951 243 951 243 912 220 c 128,-1,65
 873 197 873 197 815 173 c 1,66,67
 977 51 977 51 977 -103 c 0,68,69
 977 -189 977 -189 926 -266 c 1,70,71
 878 -342 878 -342 784 -382 c 1,72,73
 691 -424 691 -424 581 -424 c 0,74,75
 486 -424 486 -424 410 -400 c 128,-1,76
 334 -376 334 -376 279 -331 c 128,-1,77
 224 -286 224 -286 190 -221 c 128,-1,78
 156 -156 156 -156 145 -73 c 1,79,-1
 321 -47 l 1,0,1
731 236 m 1,80,81
 806 274 806 274 843 323.5 c 128,-1,82
 880 373 880 373 880 422 c 0,83,84
 880 479 880 479 827 541 c 0,85,86
 772 605 772 605 601 709 c 0,87,88
 468 789 468 789 395 845 c 1,89,90
 312 799 312 799 276.5 753.5 c 128,-1,91
 241 708 241 708 241 652 c 0,92,93
 241 588 241 588 288 532 c 0,94,95
 311 504 311 504 364.5 465 c 128,-1,96
 418 426 418 426 496 381 c 0,97,98
 631 303 631 303 728 236 c 1,99,-1
 731 236 l 1,80,81
EndSplineSet
EndChar

StartChar: dieresis
Encoding: 168 168 106
Width: 682
GlyphClass: 2
Flags: W
LayerCount: 2
Fore
SplineSet
64 1250 m 1,0,-1
 64 1448 l 1,1,-1
 246 1448 l 1,2,-1
 246 1250 l 1,3,-1
 64 1250 l 1,0,-1
438 1250 m 1,4,-1
 438 1448 l 1,5,-1
 621 1448 l 1,6,-1
 621 1250 l 1,7,-1
 438 1250 l 1,4,-1
EndSplineSet
EndChar

StartChar: copyright
Encoding: 169 169 107
Width: 1711
GlyphClass: 2
Flags: W
LayerCount: 2
Fore
SplineSet
1693 722 m 0,0,1
 1693 531 1693 531 1593 354 c 0,2,3
 1543 265 1543 265 1474 197 c 128,-1,4
 1405 129 1405 129 1315 79 c 1,5,6
 1135 -18 1135 -18 939 -18 c 256,7,8
 743 -18 743 -18 563 79 c 1,9,10
 385 178 385 178 285 354 c 0,11,12
 185 531 185 531 185 722 c 0,13,14
 185 914 185 914 286 1093 c 0,15,16
 388 1272 388 1272 568 1366 c 0,17,18
 659 1414 659 1414 751.5 1438.5 c 128,-1,19
 844 1463 844 1463 939 1463 c 0,20,21
 1035 1463 1035 1463 1127 1438.5 c 128,-1,22
 1219 1414 1219 1414 1311 1366 c 0,23,24
 1492 1272 1492 1272 1592 1093 c 0,25,26
 1693 914 1693 914 1693 722 c 0,0,1
939 1353 m 0,27,28
 861 1353 861 1353 781.5 1331 c 128,-1,29
 702 1309 702 1309 627 1270 c 1,30,31
 552 1228 552 1228 492 1169 c 128,-1,32
 432 1110 432 1110 389 1036 c 1,33,34
 304 884 304 884 304 718 c 0,35,36
 304 555 304 555 387 404 c 1,37,38
 472 254 472 254 624 169 c 0,39,40
 775 84 775 84 939 84 c 256,41,42
 1103 84 1103 84 1255 169 c 0,43,44
 1408 254 1408 254 1491 404 c 0,45,46
 1574 555 1574 555 1574 718 c 0,47,48
 1574 800 1574 800 1552 880 c 128,-1,49
 1530 960 1530 960 1489 1036 c 1,50,51
 1447 1108 1447 1108 1386.5 1168.5 c 128,-1,52
 1326 1229 1326 1229 1251 1270 c 1,53,54
 1178 1308 1178 1308 1097 1330.5 c 128,-1,55
 1016 1353 1016 1353 939 1353 c 0,27,28
1303 566 m 1,56,57
 1288 509 1288 509 1254.5 459 c 128,-1,58
 1221 409 1221 409 1175 371 c 1,59,60
 1127 336 1127 336 1068 317.5 c 128,-1,61
 1009 299 1009 299 940 299 c 0,62,63
 766 299 766 299 655 411 c 1,64,65
 601 467 601 467 573.5 543 c 128,-1,66
 546 619 546 619 546 720 c 1,67,68
 544 818 544 818 573.5 896 c 128,-1,69
 603 974 603 974 657 1028 c 128,-1,70
 711 1082 711 1082 785 1110 c 128,-1,71
 859 1138 859 1138 948 1137 c 1,72,73
 1079 1137 1079 1137 1166.5 1075.5 c 128,-1,74
 1254 1014 1254 1014 1287 909 c 1,75,76
 1258 902 1258 902 1229.5 895 c 128,-1,77
 1201 888 1201 888 1173 881 c 1,78,79
 1143 955 1143 955 1084 993 c 128,-1,80
 1025 1031 1025 1031 944 1031 c 0,81,82
 826 1031 826 1031 752 950 c 0,83,84
 714 908 714 908 695 850.5 c 128,-1,85
 676 793 676 793 676 717 c 0,86,87
 676 567 676 567 748 488 c 0,88,89
 819 411 819 411 933 411 c 0,90,91
 1027 411 1027 411 1094 462 c 0,92,93
 1128 488 1128 488 1150.5 521.5 c 128,-1,94
 1173 555 1173 555 1184 599 c 1,95,-1
 1303 566 l 1,56,57
EndSplineSet
EndChar

StartChar: ordfeminine
Encoding: 170 170 108
Width: 758
GlyphClass: 2
Flags: W
LayerCount: 2
Fore
SplineSet
547 839 m 1,0,1
 425 734 425 734 292 734 c 0,2,3
 179 734 179 734 115 793 c 0,4,5
 49 855 49 855 49 948 c 0,6,7
 49 1014 49 1014 86 1061.5 c 128,-1,8
 123 1109 123 1109 193 1135 c 1,9,10
 210 1140 210 1140 235.5 1145.5 c 128,-1,11
 261 1151 261 1151 291 1156 c 2,12,-1
 439 1178 l 1,13,14
 475 1185 475 1185 500.5 1190.5 c 128,-1,15
 526 1196 526 1196 538 1199 c 1,16,17
 536 1271 536 1271 524 1293 c 1,18,19
 510 1316 510 1316 473 1334 c 0,20,21
 456 1342 456 1342 431.5 1347 c 128,-1,22
 407 1352 407 1352 378 1352 c 0,23,24
 298 1352 298 1352 258 1320.5 c 128,-1,25
 218 1289 218 1289 208 1230 c 1,26,27
 174 1238 174 1238 142.5 1246.5 c 128,-1,28
 111 1255 111 1255 77 1262 c 1,29,30
 89 1348 89 1348 164 1404 c 1,31,32
 240 1463 240 1463 380 1463 c 0,33,34
 544 1463 544 1463 611 1404 c 0,35,36
 677 1345 677 1345 677 1227 c 2,37,-1
 677 991 l 1,38,-1
 676 931 l 1,39,40
 676 805 676 805 716 752 c 1,41,-1
 573 752 l 1,42,43
 565 770 565 770 559 792 c 128,-1,44
 553 814 553 814 552 837 c 1,45,-1
 547 839 l 1,0,1
533 1086 m 1,46,47
 506 1079 506 1079 457.5 1070 c 128,-1,48
 409 1061 409 1061 342 1051 c 0,49,50
 299 1044 299 1044 267.5 1033.5 c 128,-1,51
 236 1023 236 1023 222 1011 c 0,52,53
 193 985 193 985 193 948 c 0,54,55
 193 906 193 906 227.5 877 c 128,-1,56
 262 848 262 848 327 848 c 0,57,58
 402 848 402 848 456 886 c 1,59,60
 510 926 510 926 529 982 c 0,61,62
 533 993 533 993 534.5 1018 c 128,-1,63
 536 1043 536 1043 537 1084 c 1,64,-1
 533 1086 l 1,46,47
EndSplineSet
EndChar

StartChar: guillemotleft
Encoding: 171 171 109
Width: 1139
GlyphClass: 2
Flags: W
LayerCount: 2
Fore
SplineSet
336 517 m 1,0,1
 401 405 401 405 466 294 c 128,-1,2
 531 183 531 183 595 71 c 1,3,-1
 455 71 l 1,4,5
 377 180 377 180 295.5 294 c 128,-1,6
 214 408 214 408 136 517 c 1,7,8
 214 627 214 627 295.5 741 c 128,-1,9
 377 855 377 855 455 964 c 1,10,-1
 597 964 l 1,11,-1
 336 517 l 1,0,1
725 517 m 1,12,13
 791 405 791 405 857 294 c 128,-1,14
 923 183 923 183 989 71 c 1,15,-1
 842 71 l 1,16,17
 767 179 767 179 686 294 c 128,-1,18
 605 409 605 409 530 517 c 1,19,20
 605 626 605 626 686 741 c 128,-1,21
 767 856 767 856 842 964 c 1,22,-1
 989 964 l 1,23,-1
 725 517 l 1,12,13
EndSplineSet
EndChar

StartChar: logicalnot
Encoding: 172 172 110
Width: 1196
GlyphClass: 2
Flags: W
LayerCount: 2
Fore
SplineSet
1082 418 m 1,0,-1
 917 418 l 1,1,-1
 917 848 l 1,2,-1
 116 848 l 1,3,-1
 116 1010 l 1,4,-1
 1082 1010 l 1,5,-1
 1082 418 l 1,0,-1
EndSplineSet
EndChar

StartChar: uni00AD
Encoding: 173 173 111
Width: 1
GlyphClass: 2
Flags: W
LayerCount: 2
Fore
SplineSet
514 1120 m 1,0,-1
 517 1120 l 1,1,2
 516 1119 516 1119 516 1118 c 2,3,-1
 516 1117 l 1,4,-1
 514 1120 l 1,0,-1
EndSplineSet
EndChar

StartChar: registered
Encoding: 174 174 112
Width: 1509
GlyphClass: 2
Flags: W
LayerCount: 2
Fore
SplineSet
1513 722 m 0,0,1
 1513 531 1513 531 1413 354 c 0,2,3
 1363 265 1363 265 1294 197 c 128,-1,4
 1225 129 1225 129 1135 79 c 1,5,6
 955 -18 955 -18 759 -18 c 256,7,8
 563 -18 563 -18 383 79 c 1,9,10
 205 178 205 178 105 354 c 0,11,12
 5 531 5 531 5 722 c 0,13,14
 5 914 5 914 106 1093 c 0,15,16
 208 1272 208 1272 388 1366 c 0,17,18
 479 1414 479 1414 571.5 1438.5 c 128,-1,19
 664 1463 664 1463 759 1463 c 0,20,21
 855 1463 855 1463 947 1438.5 c 128,-1,22
 1039 1414 1039 1414 1131 1366 c 0,23,24
 1312 1272 1312 1272 1412 1093 c 0,25,26
 1513 914 1513 914 1513 722 c 0,0,1
759 1344 m 0,27,28
 681 1344 681 1344 601.5 1323 c 128,-1,29
 522 1302 522 1302 447 1263 c 1,30,31
 372 1222 372 1222 312 1164.5 c 128,-1,32
 252 1107 252 1107 209 1033 c 0,33,34
 124 885 124 885 124 722 c 0,35,36
 124 562 124 562 207 414 c 1,37,38
 292 268 292 268 444 183 c 1,39,40
 595 101 595 101 759 101 c 256,41,42
 923 101 923 101 1075 183 c 1,43,44
 1228 268 1228 268 1311 414 c 0,45,46
 1394 562 1394 562 1394 722 c 0,47,48
 1394 802 1394 802 1372 881 c 128,-1,49
 1350 960 1350 960 1309 1033 c 1,50,51
 1267 1105 1267 1105 1206.5 1164 c 128,-1,52
 1146 1223 1146 1223 1071 1263 c 0,53,54
 998 1301 998 1301 917 1322.5 c 128,-1,55
 836 1344 836 1344 759 1344 c 0,27,28
430 314 m 1,56,-1
 430 1108 l 1,57,-1
 707 1108 l 2,58,59
 848 1108 848 1108 914 1086 c 0,60,61
 978 1064 978 1064 1015 1010 c 0,62,63
 1033 984 1033 984 1043 954.5 c 128,-1,64
 1053 925 1053 925 1053 894 c 0,65,66
 1053 808 1053 808 989 743 c 1,67,68
 927 678 927 678 822 671 c 1,69,-1
 821 667 l 1,70,71
 867 648 867 648 890 625 c 1,72,73
 913 604 913 604 943.5 562.5 c 128,-1,74
 974 521 974 521 1009 468 c 0,75,76
 1035 429 1035 429 1058.5 390.5 c 128,-1,77
 1082 352 1082 352 1107 314 c 1,78,-1
 953 314 l 1,79,-1
 882 439 l 2,80,81
 797 588 797 588 743 625 c 1,82,83
 725 639 725 639 698 646.5 c 128,-1,84
 671 654 671 654 636 654 c 2,85,-1
 556 654 l 1,86,-1
 556 314 l 1,87,-1
 430 314 l 1,56,-1
556 760 m 1,88,-1
 718 760 l 2,89,90
 834 760 834 760 876 793 c 1,91,92
 896 810 896 810 907.5 833 c 128,-1,93
 919 856 919 856 919 883 c 0,94,95
 919 920 919 920 898.5 948 c 128,-1,96
 878 976 878 976 841 991 c 0,97,98
 805 1005 805 1005 708 1005 c 2,99,-1
 556 1005 l 1,100,-1
 556 760 l 1,88,-1
EndSplineSet
EndChar

StartChar: macron
Encoding: 175 175 113
Width: 1131
GlyphClass: 2
Flags: W
LayerCount: 2
Fore
SplineSet
-29 1541 m 1,0,-1
 -29 1663 l 1,1,-1
 1162 1663 l 1,2,-1
 1162 1541 l 1,3,-1
 -29 1541 l 1,0,-1
EndSplineSet
EndChar

StartChar: degree
Encoding: 176 176 114
Width: 819
GlyphClass: 2
Flags: W
LayerCount: 2
Fore
SplineSet
131 1193 m 0,0,1
 131 1305 131 1305 211 1384 c 0,2,3
 292 1463 292 1463 406 1463 c 0,4,5
 521 1463 521 1463 602 1384 c 0,6,7
 682 1305 682 1305 682 1193 c 0,8,9
 682 1079 682 1079 600 1000 c 1,10,11
 520 921 520 921 406 921 c 0,12,13
 293 921 293 921 211 1000 c 0,14,15
 131 1078 131 1078 131 1193 c 0,0,1
407 1024 m 0,16,17
 477 1024 477 1024 527 1073 c 0,18,19
 578 1123 578 1123 578 1193 c 0,20,21
 578 1260 578 1260 527 1310 c 256,22,23
 476 1360 476 1360 407 1360 c 0,24,25
 335 1360 335 1360 284 1310 c 0,26,27
 234 1261 234 1261 234 1193 c 0,28,29
 234 1122 234 1122 284 1073 c 256,30,31
 334 1024 334 1024 407 1024 c 0,16,17
EndSplineSet
EndChar

StartChar: plusminus
Encoding: 177 177 115
Width: 1124
GlyphClass: 2
Flags: W
LayerCount: 2
Fore
SplineSet
481 256 m 1,0,-1
 481 653 l 1,1,-1
 80 653 l 1,2,-1
 80 813 l 1,3,-1
 481 813 l 1,4,-1
 481 1206 l 1,5,-1
 645 1206 l 1,6,-1
 645 813 l 1,7,-1
 1046 813 l 1,8,-1
 1046 653 l 1,9,-1
 645 653 l 1,10,-1
 645 256 l 1,11,-1
 481 256 l 1,0,-1
1046 0 m 1,12,-1
 80 0 l 1,13,-1
 80 162 l 1,14,-1
 1046 162 l 1,15,-1
 1046 0 l 1,12,-1
EndSplineSet
EndChar

StartChar: uni00B2
Encoding: 178 178 116
Width: 682
GlyphClass: 2
Flags: W
LayerCount: 2
Fore
SplineSet
27 721 m 1,0,1
 30 750 30 750 42 776.5 c 128,-1,2
 54 803 54 803 74 830 c 0,3,4
 137 914 137 914 281 1016 c 0,5,6
 423 1117 423 1117 453 1150 c 0,7,8
 491 1191 491 1191 491 1234 c 0,9,10
 491 1282 491 1282 455.5 1313 c 128,-1,11
 420 1344 420 1344 350 1344 c 0,12,13
 283 1344 283 1344 248 1320 c 1,14,15
 216 1296 216 1296 194 1232 c 1,16,17
 157 1236 157 1236 122 1240 c 128,-1,18
 87 1244 87 1244 50 1248 c 1,19,20
 80 1354 80 1354 150.5 1405 c 128,-1,21
 221 1456 221 1456 353 1456 c 0,22,23
 501 1456 501 1456 573 1398 c 0,24,25
 643 1341 643 1341 643 1258 c 0,26,27
 643 1217 643 1217 627.5 1177.5 c 128,-1,28
 612 1138 612 1138 585 1103 c 1,29,30
 562 1077 562 1077 511 1035 c 128,-1,31
 460 993 460 993 379 936 c 1,32,33
 339 906 339 906 308 882 c 128,-1,34
 277 858 277 858 257 836 c 1,35,-1
 647 836 l 1,36,-1
 647 721 l 1,37,-1
 27 721 l 1,0,1
EndSplineSet
EndChar

StartChar: uni00B3
Encoding: 179 179 117
Width: 682
GlyphClass: 2
Flags: W
LayerCount: 2
Fore
SplineSet
176 925 m 1,0,1
 186 898 186 898 200 876.5 c 128,-1,2
 214 855 214 855 229 844 c 0,3,4
 272 814 272 814 334 814 c 0,5,6
 404 814 404 814 450 854 c 0,7,8
 494 891 494 891 494 948 c 0,9,10
 494 998 494 998 457 1028 c 128,-1,11
 420 1058 420 1058 332 1058 c 0,12,13
 328 1058 328 1058 321 1058 c 128,-1,14
 314 1058 314 1058 308 1057 c 0,15,16
 306 1057 306 1057 303 1056.5 c 128,-1,17
 300 1056 300 1056 298 1056 c 0,18,19
 292 1055 292 1055 287.5 1055 c 128,-1,20
 283 1055 283 1055 279 1055 c 1,21,22
 284 1081 284 1081 290 1106.5 c 128,-1,23
 296 1132 296 1132 301 1158 c 1,24,25
 383 1158 383 1158 420.5 1188 c 128,-1,26
 458 1218 458 1218 458 1261 c 0,27,28
 458 1299 458 1299 427.5 1325 c 128,-1,29
 397 1351 397 1351 336 1351 c 0,30,31
 307 1351 307 1351 285 1345.5 c 128,-1,32
 263 1340 263 1340 245.5 1328 c 128,-1,33
 228 1316 228 1316 215 1297 c 128,-1,34
 202 1278 202 1278 190 1251 c 1,35,36
 156 1256 156 1256 122 1261.5 c 128,-1,37
 88 1267 88 1267 54 1272 c 1,38,39
 94 1372 94 1372 155 1414 c 0,40,41
 217 1456 217 1456 337 1456 c 0,42,43
 480 1456 480 1456 544 1403 c 1,44,45
 610 1351 610 1351 610 1274 c 0,46,47
 610 1221 610 1221 574 1178.5 c 128,-1,48
 538 1136 538 1136 472 1118 c 1,49,-1
 472 1114 l 1,50,51
 562 1093 562 1093 603.5 1044.5 c 128,-1,52
 645 996 645 996 645 929 c 0,53,54
 645 837 645 837 566 771 c 0,55,56
 486 704 486 704 343 704 c 0,57,58
 203 704 203 704 130 757 c 128,-1,59
 57 810 57 810 35 910 c 1,60,-1
 176 925 l 1,0,1
EndSplineSet
EndChar

StartChar: acute
Encoding: 180 180 118
Width: 682
GlyphClass: 2
Flags: W
LayerCount: 2
Fore
SplineSet
226 1175 m 1,0,1
 258 1243 258 1243 292 1310.5 c 128,-1,2
 326 1378 326 1378 359 1447 c 1,3,-1
 588 1447 l 1,4,5
 534 1378 534 1378 479.5 1310.5 c 128,-1,6
 425 1243 425 1243 371 1175 c 1,7,-1
 226 1175 l 1,0,1
EndSplineSet
EndChar

StartChar: uni00B5
Encoding: 181 181 119
Width: 1180
GlyphClass: 2
Flags: W
LayerCount: 2
Fore
SplineSet
1018 1041 m 1,0,-1
 1018 0 l 1,1,-1
 862 0 l 1,2,-1
 862 132 l 1,3,4
 803 45 803 45 754 16 c 1,5,-1
 755 16 l 1,6,7
 684 -25 684 -25 592 -25 c 0,8,9
 552 -25 552 -25 515 -16.5 c 128,-1,10
 478 -8 478 -8 446 8 c 0,11,12
 421 21 421 21 393.5 47 c 128,-1,13
 366 73 366 73 335 110 c 1,14,-1
 335 -401 l 1,15,-1
 163 -401 l 1,16,-1
 163 1041 l 1,17,-1
 335 1041 l 1,18,-1
 335 600 l 2,19,20
 335 360 335 360 361 286 c 0,21,22
 386 217 386 217 447 173 c 0,23,24
 505 132 505 132 584 132 c 0,25,26
 665 132 665 132 730 175 c 0,27,28
 794 218 794 218 820 287 c 0,29,30
 846 358 846 358 846 597 c 2,31,-1
 846 1041 l 1,32,-1
 1018 1041 l 1,0,-1
EndSplineSet
EndChar

StartChar: paragraph
Encoding: 182 182 120
Width: 1155
GlyphClass: 2
Flags: W
LayerCount: 2
Fore
SplineSet
525 -401 m 1,0,-1
 525 517 l 1,1,2
 442 521 442 521 375 549 c 128,-1,3
 308 577 308 577 259 623 c 1,4,5
 213 671 213 671 188 735 c 128,-1,6
 163 799 163 799 163 872 c 0,7,8
 163 1043 163 1043 269 1142 c 1,9,10
 379 1242 379 1242 585 1242 c 2,11,-1
 1149 1242 l 1,12,-1
 1149 1094 l 1,13,-1
 1020 1094 l 1,14,-1
 1020 -401 l 1,15,-1
 873 -401 l 1,16,-1
 873 1094 l 1,17,-1
 668 1094 l 1,18,-1
 668 -401 l 1,19,-1
 525 -401 l 1,0,-1
EndSplineSet
EndChar

StartChar: periodcentered
Encoding: 183 183 121
Width: 682
GlyphClass: 2
Flags: W
LayerCount: 2
Fore
SplineSet
241 626 m 1,0,-1
 241 824 l 1,1,-1
 441 824 l 1,2,-1
 441 626 l 1,3,-1
 241 626 l 1,0,-1
EndSplineSet
EndChar

StartChar: cedilla
Encoding: 184 184 122
Width: 682
GlyphClass: 2
Flags: W
LayerCount: 2
Fore
SplineSet
271 19 m 1,0,-1
 399 19 l 1,1,-1
 366 -86 l 1,2,3
 409 -91 409 -91 441 -105 c 128,-1,4
 473 -119 473 -119 494.5 -138 c 128,-1,5
 516 -157 516 -157 527 -181 c 128,-1,6
 538 -205 538 -205 538 -229 c 0,7,8
 538 -302 538 -302 467 -357 c 1,9,10
 396 -415 396 -415 251 -415 c 0,11,12
 211 -415 211 -415 176 -412.5 c 128,-1,13
 141 -410 141 -410 110 -404 c 1,14,15
 112 -374 112 -374 115.5 -347 c 128,-1,16
 119 -320 119 -320 121 -291 c 1,17,18
 153 -293 153 -293 175 -294 c 128,-1,19
 197 -295 197 -295 212 -295 c 0,20,21
 309 -295 309 -295 347 -270 c 1,22,23
 377 -249 377 -249 377 -220 c 1,24,25
 375 -207 375 -207 370 -195 c 128,-1,26
 365 -183 365 -183 349.5 -174 c 128,-1,27
 334 -165 334 -165 304 -159 c 128,-1,28
 274 -153 274 -153 220 -152 c 1,29,-1
 271 19 l 1,0,-1
EndSplineSet
EndChar

StartChar: uni00B9
Encoding: 185 185 123
Width: 594
GlyphClass: 2
Flags: W
LayerCount: 2
Fore
SplineSet
335 721 m 1,0,-1
 335 1270 l 1,1,2
 229 1189 229 1189 110 1156 c 1,3,-1
 110 1273 l 1,4,5
 141 1283 141 1283 175.5 1300.5 c 128,-1,6
 210 1318 210 1318 247 1344 c 1,7,8
 283 1368 283 1368 315 1396.5 c 128,-1,9
 347 1425 347 1425 370 1456 c 1,10,-1
 474 1456 l 1,11,-1
 474 721 l 1,12,-1
 335 721 l 1,0,-1
EndSplineSet
EndChar

StartChar: ordmasculine
Encoding: 186 186 124
Width: 748
GlyphClass: 2
Flags: W
LayerCount: 2
Fore
SplineSet
700 1095 m 256,0,1
 700 923 700 923 609 825 c 1,2,3
 517 728 517 728 375 728 c 0,4,5
 230 728 230 728 139 823 c 0,6,7
 47 919 47 919 47 1091 c 0,8,9
 47 1267 47 1267 138 1365 c 256,10,11
 229 1463 229 1463 374 1463 c 0,12,13
 517 1463 517 1463 609 1365 c 0,14,15
 700 1267 700 1267 700 1095 c 256,0,1
374 1336 m 0,16,17
 332 1336 332 1336 298 1322 c 128,-1,18
 264 1308 264 1308 240 1279 c 128,-1,19
 216 1250 216 1250 203 1204 c 128,-1,20
 190 1158 190 1158 190 1095 c 0,21,22
 190 1033 190 1033 203.5 987.5 c 128,-1,23
 217 942 217 942 241.5 912 c 128,-1,24
 266 882 266 882 299.5 868 c 128,-1,25
 333 854 333 854 374 854 c 256,26,27
 415 854 415 854 448.5 868 c 128,-1,28
 482 882 482 882 506 912 c 128,-1,29
 530 942 530 942 543.5 988.5 c 128,-1,30
 557 1035 557 1035 557 1100 c 0,31,32
 557 1160 557 1160 543.5 1205 c 128,-1,33
 530 1250 530 1250 505.5 1278.5 c 128,-1,34
 481 1307 481 1307 447.5 1321.5 c 128,-1,35
 414 1336 414 1336 374 1336 c 0,16,17
EndSplineSet
EndChar

StartChar: guillemotright
Encoding: 187 187 125
Width: 1017
GlyphClass: 2
Flags: W
LayerCount: 2
Fore
SplineSet
797 517 m 1,0,1
 732 630 732 630 666.5 741 c 128,-1,2
 601 852 601 852 536 964 c 1,3,-1
 678 964 l 1,4,5
 756 855 756 855 837.5 741 c 128,-1,6
 919 627 919 627 997 517 c 1,7,8
 919 408 919 408 837.5 294 c 128,-1,9
 756 180 756 180 678 71 c 1,10,-1
 537 71 l 1,11,-1
 797 517 l 1,0,1
408 517 m 1,12,13
 342 630 342 630 276 741 c 128,-1,14
 210 852 210 852 144 964 c 1,15,-1
 290 964 l 1,16,17
 365 856 365 856 446.5 741 c 128,-1,18
 528 626 528 626 603 517 c 1,19,20
 528 409 528 409 446.5 294 c 128,-1,21
 365 179 365 179 290 71 c 1,22,-1
 144 71 l 1,23,-1
 408 517 l 1,12,13
EndSplineSet
EndChar

StartChar: onequarter
Encoding: 188 188 126
Width: 1708
GlyphClass: 3
Flags: W
LayerCount: 2
Fore
SplineSet
255 -56 m 1,0,1
 387 124 387 124 526.5 317 c 128,-1,2
 666 510 666 510 807 704 c 128,-1,3
 948 898 948 898 1087.5 1090 c 128,-1,4
 1227 1282 1227 1282 1358 1463 c 1,5,-1
 1510 1463 l 1,6,7
 1379 1282 1379 1282 1239.5 1090 c 128,-1,8
 1100 898 1100 898 959 704 c 128,-1,9
 818 510 818 510 678.5 317 c 128,-1,10
 539 124 539 124 408 -56 c 1,11,-1
 255 -56 l 1,0,1
334 721 m 1,12,-1
 334 1270 l 1,13,14
 228 1189 228 1189 109 1156 c 1,15,-1
 109 1273 l 1,16,17
 140 1283 140 1283 174.5 1300.5 c 128,-1,18
 209 1318 209 1318 246 1344 c 0,19,20
 281 1368 281 1368 313.5 1396.5 c 128,-1,21
 346 1425 346 1425 369 1456 c 1,22,-1
 473 1456 l 1,23,-1
 473 721 l 1,24,-1
 334 721 l 1,12,-1
1437 -30 m 1,25,-1
 1437 121 l 1,26,-1
 1052 121 l 1,27,-1
 1052 240 l 1,28,-1
 1051 239 l 1,29,30
 1150 352 1150 352 1254 472 c 128,-1,31
 1358 592 1358 592 1457 705 c 1,32,-1
 1575 705 l 1,33,-1
 1575 223 l 1,34,-1
 1680 223 l 1,35,-1
 1680 121 l 1,36,-1
 1575 121 l 1,37,-1
 1575 -30 l 1,38,-1
 1437 -30 l 1,25,-1
1437 223 m 1,39,-1
 1437 491 l 1,40,-1
 1198 223 l 1,41,-1
 1437 223 l 1,39,-1
EndSplineSet
Ligature2: "'akhn' Akhand lookup 0 subtable" one slash four
EndChar

StartChar: onehalf
Encoding: 189 189 127
Width: 1708
GlyphClass: 3
Flags: W
LayerCount: 2
Fore
SplineSet
231 -56 m 1,0,1
 363 124 363 124 502.5 317 c 128,-1,2
 642 510 642 510 783 704 c 128,-1,3
 924 898 924 898 1063 1090 c 128,-1,4
 1202 1282 1202 1282 1333 1463 c 1,5,-1
 1486 1463 l 1,6,7
 1355 1282 1355 1282 1215.5 1090 c 128,-1,8
 1076 898 1076 898 935 704 c 128,-1,9
 794 510 794 510 654.5 317 c 128,-1,10
 515 124 515 124 384 -56 c 1,11,-1
 231 -56 l 1,0,1
334 721 m 1,12,-1
 334 1270 l 1,13,14
 228 1189 228 1189 109 1156 c 1,15,-1
 109 1273 l 1,16,17
 140 1283 140 1283 174.5 1300.5 c 128,-1,18
 209 1318 209 1318 246 1344 c 0,19,20
 281 1368 281 1368 313.5 1396.5 c 128,-1,21
 346 1425 346 1425 369 1456 c 1,22,-1
 473 1456 l 1,23,-1
 473 721 l 1,24,-1
 334 721 l 1,12,-1
1054 -30 m 1,25,26
 1057 -2 1057 -2 1069 24 c 128,-1,27
 1081 50 1081 50 1101 77 c 0,28,29
 1161 161 1161 161 1308 265 c 0,30,31
 1380 315 1380 315 1422.5 348.5 c 128,-1,32
 1465 382 1465 382 1480 399 c 0,33,34
 1498 419 1498 419 1508 440.5 c 128,-1,35
 1518 462 1518 462 1518 482 c 0,36,37
 1518 530 1518 530 1483 560.5 c 128,-1,38
 1448 591 1448 591 1377 591 c 0,39,40
 1310 591 1310 591 1275 567 c 0,41,42
 1259 557 1259 557 1245.5 534.5 c 128,-1,43
 1232 512 1232 512 1221 480 c 1,44,45
 1184 484 1184 484 1149 487.5 c 128,-1,46
 1114 491 1114 491 1076 495 c 1,47,48
 1091 548 1091 548 1116 587.5 c 128,-1,49
 1141 627 1141 627 1178 653 c 128,-1,50
 1215 679 1215 679 1265 692 c 128,-1,51
 1315 705 1315 705 1380 705 c 0,52,53
 1528 705 1528 705 1599 646 c 1,54,55
 1670 590 1670 590 1670 507 c 0,56,57
 1670 466 1670 466 1654.5 426.5 c 128,-1,58
 1639 387 1639 387 1611 351 c 1,59,60
 1588 325 1588 325 1537.5 282.5 c 128,-1,61
 1487 240 1487 240 1407 183 c 0,62,63
 1328 127 1328 127 1284 84 c 1,64,-1
 1674 84 l 1,65,-1
 1674 -30 l 1,66,-1
 1054 -30 l 1,25,26
EndSplineSet
Ligature2: "'akhn' Akhand lookup 0 subtable" one slash two
EndChar

StartChar: threequarters
Encoding: 190 190 128
Width: 1708
GlyphClass: 3
Flags: W
LayerCount: 2
Fore
SplineSet
255 -56 m 1,0,1
 387 124 387 124 526.5 317 c 128,-1,2
 666 510 666 510 807 704 c 128,-1,3
 948 898 948 898 1087.5 1090 c 128,-1,4
 1227 1282 1227 1282 1358 1463 c 1,5,-1
 1510 1463 l 1,6,7
 1379 1282 1379 1282 1239.5 1090 c 128,-1,8
 1100 898 1100 898 959 704 c 128,-1,9
 818 510 818 510 678.5 317 c 128,-1,10
 539 124 539 124 408 -56 c 1,11,-1
 255 -56 l 1,0,1
175 925 m 1,12,13
 185 898 185 898 199 876.5 c 128,-1,14
 213 855 213 855 228 844 c 0,15,16
 271 814 271 814 333 814 c 0,17,18
 403 814 403 814 449 854 c 0,19,20
 493 891 493 891 493 948 c 0,21,22
 493 998 493 998 456.5 1028 c 128,-1,23
 420 1058 420 1058 334 1058 c 1,24,25
 289 1055 289 1055 278 1055 c 1,26,27
 283 1081 283 1081 289 1106.5 c 128,-1,28
 295 1132 295 1132 301 1158 c 1,29,30
 383 1158 383 1158 420 1188 c 128,-1,31
 457 1218 457 1218 457 1261 c 0,32,33
 457 1299 457 1299 426.5 1325 c 128,-1,34
 396 1351 396 1351 335 1351 c 0,35,36
 306 1351 306 1351 284 1345.5 c 128,-1,37
 262 1340 262 1340 244.5 1328 c 128,-1,38
 227 1316 227 1316 214 1297 c 128,-1,39
 201 1278 201 1278 189 1251 c 1,40,41
 155 1256 155 1256 121 1261.5 c 128,-1,42
 87 1267 87 1267 53 1272 c 1,43,44
 93 1372 93 1372 154 1414 c 0,45,46
 216 1456 216 1456 336 1456 c 0,47,48
 479 1456 479 1456 543 1403 c 1,49,50
 609 1351 609 1351 609 1274 c 0,51,52
 609 1221 609 1221 573 1178.5 c 128,-1,53
 537 1136 537 1136 471 1118 c 1,54,-1
 471 1114 l 1,55,56
 561 1093 561 1093 602.5 1044.5 c 128,-1,57
 644 996 644 996 644 929 c 0,58,59
 644 837 644 837 566 771 c 1,60,61
 485 704 485 704 342 704 c 0,62,63
 202 704 202 704 129 757 c 128,-1,64
 56 810 56 810 35 910 c 1,65,-1
 175 925 l 1,12,13
1436 -30 m 1,66,-1
 1436 121 l 1,67,-1
 1052 121 l 1,68,-1
 1052 240 l 1,69,-1
 1051 239 l 1,70,71
 1149 352 1149 352 1253.5 472 c 128,-1,72
 1358 592 1358 592 1456 705 c 1,73,-1
 1575 705 l 1,74,-1
 1575 223 l 1,75,-1
 1680 223 l 1,76,-1
 1680 121 l 1,77,-1
 1575 121 l 1,78,-1
 1575 -30 l 1,79,-1
 1436 -30 l 1,66,-1
1436 223 m 1,80,-1
 1436 491 l 1,81,-1
 1198 223 l 1,82,-1
 1436 223 l 1,80,-1
EndSplineSet
Ligature2: "'akhn' Akhand lookup 0 subtable" three slash four
EndChar

StartChar: questiondown
Encoding: 191 191 129
Width: 1251
GlyphClass: 2
Flags: W
LayerCount: 2
Fore
SplineSet
732 1041 m 1,0,-1
 732 843 l 1,1,-1
 532 843 l 1,2,-1
 532 1041 l 1,3,-1
 732 1041 l 1,0,-1
720 686 m 1,4,5
 721 669 721 669 721 657 c 128,-1,6
 721 645 721 645 721 637 c 0,7,8
 721 532 721 532 690 455 c 0,9,10
 679 425 679 425 661.5 396 c 128,-1,11
 644 367 644 367 620 339 c 0,12,13
 602 318 602 318 570 288 c 128,-1,14
 538 258 538 258 490 217 c 0,15,16
 442 175 442 175 411.5 143 c 128,-1,17
 381 111 381 111 367 87 c 0,18,19
 340 38 340 38 340 -19 c 0,20,21
 340 -123 340 -123 423 -202 c 1,22,23
 507 -280 507 -280 627 -280 c 0,24,25
 743 -280 743 -280 821.5 -210 c 128,-1,26
 900 -140 900 -140 924 10 c 1,27,28
 970 5 970 5 1014 0.5 c 128,-1,29
 1058 -4 1058 -4 1103 -9 c 1,30,31
 1088 -104 1088 -104 1049.5 -180.5 c 128,-1,32
 1011 -257 1011 -257 950.5 -311 c 128,-1,33
 890 -365 890 -365 809 -393.5 c 128,-1,34
 728 -422 728 -422 630 -422 c 0,35,36
 415 -422 415 -422 287 -308 c 0,37,38
 160 -194 160 -194 160 -30 c 0,39,40
 160 64 160 64 205 143 c 0,41,42
 228 183 228 183 271.5 231 c 128,-1,43
 315 279 315 279 380 335 c 0,44,45
 425 374 425 374 454 402.5 c 128,-1,46
 483 431 483 431 497 450 c 0,47,48
 525 487 525 487 537 534 c 1,49,-1
 537 533 l 1,50,51
 551 580 551 580 552 686 c 1,52,-1
 720 686 l 1,4,5
EndSplineSet
EndChar

StartChar: hi_om
Encoding: 2384 2384 130
Width: 1907
GlyphClass: 2
Flags: W
LayerCount: 2
Fore
SplineSet
247 447 m 1,0,1
 267 377 267 377 314.5 316.5 c 128,-1,2
 362 256 362 256 429 206 c 1,3,4
 488 159 488 159 559.5 132.5 c 128,-1,5
 631 106 631 106 711 104 c 1,6,7
 866 104 866 104 938 191 c 1,8,9
 995 262 995 262 995 345 c 0,10,11
 995 508 995 508 861 581 c 1,12,13
 793 614 793 614 703 614 c 0,14,15
 655 614 655 614 600 603 c 0,16,17
 589 601 589 601 578 598 c 128,-1,18
 567 595 567 595 556 593 c 1,19,20
 555 635 555 635 553.5 675.5 c 128,-1,21
 552 716 552 716 551 759 c 1,22,-1
 602 743 l 1,23,24
 644 732 644 732 715 732 c 0,25,26
 842 732 842 732 897 798 c 1,27,28
 947 864 947 864 947 942 c 0,29,30
 947 1016 947 1016 891 1068 c 1,31,32
 837 1109 837 1109 742 1110 c 1,33,34
 635 1114 635 1114 564 1061 c 1,35,36
 499 1004 499 1004 489 899 c 0,37,38
 488 888 488 888 486.5 876.5 c 128,-1,39
 485 865 485 865 484 855 c 1,40,41
 439 861 439 861 394 865.5 c 128,-1,42
 349 870 349 870 304 876 c 1,43,44
 306 887 306 887 309.5 897.5 c 128,-1,45
 313 908 313 908 315 918 c 0,46,47
 333 985 333 985 368 1038 c 128,-1,48
 403 1091 403 1091 455.5 1127.5 c 128,-1,49
 508 1164 508 1164 579.5 1184.5 c 128,-1,50
 651 1205 651 1205 742 1206 c 1,51,52
 825 1208 825 1208 894 1190 c 128,-1,53
 963 1172 963 1172 1016 1134 c 0,54,55
 1069 1095 1069 1095 1098 1045 c 128,-1,56
 1127 995 1127 995 1127 939 c 0,57,58
 1127 875 1127 875 1106.5 824 c 128,-1,59
 1086 773 1086 773 1049 738 c 1,60,61
 999 696 999 696 926 671 c 1,62,63
 971 658 971 658 1001 640 c 1,64,65
 1078 607 1078 607 1127 521 c 1,66,67
 1174 441 1174 441 1174 371 c 0,68,69
 1174 200 1174 200 1063 102 c 1,70,-1
 1063 103 l 1,71,72
 949 6 949 6 711 6 c 0,73,74
 626 6 626 6 555 26 c 128,-1,75
 484 46 484 46 430 83 c 1,76,77
 338 155 338 155 276 239 c 128,-1,78
 214 323 214 323 185 419 c 1,79,-1
 247 447 l 1,0,1
1369 360 m 1,80,81
 1415 320 1415 320 1517 320 c 0,82,83
 1555 320 1555 320 1589.5 337.5 c 128,-1,84
 1624 355 1624 355 1651 386 c 0,85,86
 1709 455 1709 455 1709 544 c 0,87,88
 1709 639 1709 639 1653 705 c 0,89,90
 1626 736 1626 736 1591 753 c 128,-1,91
 1556 770 1556 770 1517 770 c 0,92,93
 1454 770 1454 770 1399 753 c 128,-1,94
 1344 736 1344 736 1302 706 c 0,95,96
 1232 655 1232 655 1163 655 c 0,97,98
 1157 655 1157 655 1151 655.5 c 128,-1,99
 1145 656 1145 656 1139 657 c 1,100,-1
 1139 735 l 1,101,102
 1261 737 1261 737 1360 845 c 1,103,-1
 1360 844 l 1,104,105
 1417 879 1417 879 1470.5 897.5 c 128,-1,106
 1524 916 1524 916 1577 916 c 0,107,108
 1591 916 1591 916 1604.5 914.5 c 128,-1,109
 1618 913 1618 913 1632 911 c 1,110,-1
 1631 911 l 1,111,112
 1669 903 1669 903 1708.5 881 c 128,-1,113
 1748 859 1748 859 1786 822 c 1,114,115
 1823 788 1823 788 1847 727.5 c 128,-1,116
 1871 667 1871 667 1882 592 c 1,117,118
 1881 519 1881 519 1865.5 459 c 128,-1,119
 1850 399 1850 399 1818.5 353 c 128,-1,120
 1787 307 1787 307 1740.5 276 c 128,-1,121
 1694 245 1694 245 1631 232 c 1,122,123
 1547 234 1547 234 1474.5 254 c 128,-1,124
 1402 274 1402 274 1351 314 c 1,125,-1
 1369 360 l 1,80,81
966 1570 m 1,126,127
 1011 1569 1011 1569 1053.5 1567.5 c 128,-1,128
 1096 1566 1096 1566 1141 1565 c 1,129,-1
 1136 1523 l 1,130,-1
 1136 1490 l 2,131,132
 1136 1393 1136 1393 1173 1344 c 1,133,134
 1213 1295 1213 1295 1326 1295 c 1,135,136
 1489 1300 1489 1300 1489 1490 c 2,137,-1
 1489 1523 l 1,138,139
 1488 1534 1488 1534 1486.5 1544 c 128,-1,140
 1485 1554 1485 1554 1484 1565 c 1,141,142
 1529 1566 1529 1566 1572 1567.5 c 128,-1,143
 1615 1569 1615 1569 1660 1570 c 1,144,-1
 1660 1526 l 1,145,146
 1659 1492 1659 1492 1653.5 1457.5 c 128,-1,147
 1648 1423 1648 1423 1636 1390 c 128,-1,148
 1624 1357 1624 1357 1604.5 1327.5 c 128,-1,149
 1585 1298 1585 1298 1557 1272 c 1,150,151
 1518 1244 1518 1244 1454.5 1222.5 c 128,-1,152
 1391 1201 1391 1201 1313 1199 c 0,153,154
 1277 1199 1277 1199 1240 1204 c 128,-1,155
 1203 1209 1203 1209 1167.5 1221 c 128,-1,156
 1132 1233 1132 1233 1100 1251 c 128,-1,157
 1068 1269 1068 1269 1041 1295 c 1,158,159
 1010 1331 1010 1331 988.5 1391 c 128,-1,160
 967 1451 967 1451 966 1526 c 1,161,-1
 966 1570 l 1,126,127
1314 1463 m 256,162,163
 1295 1463 1295 1463 1278 1470.5 c 128,-1,164
 1261 1478 1261 1478 1248.5 1490 c 128,-1,165
 1236 1502 1236 1502 1228.5 1519 c 128,-1,166
 1221 1536 1221 1536 1221 1555 c 0,167,168
 1221 1596 1221 1596 1248.5 1622.5 c 128,-1,169
 1276 1649 1276 1649 1314 1649 c 0,170,171
 1333 1649 1333 1649 1350 1641.5 c 128,-1,172
 1367 1634 1367 1634 1380 1621.5 c 128,-1,173
 1393 1609 1393 1609 1400.5 1592 c 128,-1,174
 1408 1575 1408 1575 1408 1555 c 0,175,176
 1408 1536 1408 1536 1400.5 1519 c 128,-1,177
 1393 1502 1393 1502 1380 1490 c 128,-1,178
 1367 1478 1367 1478 1350 1470.5 c 128,-1,179
 1333 1463 1333 1463 1314 1463 c 256,162,163
EndSplineSet
EndChar

StartChar: uni0964
Encoding: 2404 2404 131
Width: 393
GlyphClass: 2
Flags: W
LayerCount: 2
Fore
SplineSet
338 -40 m 1,0,-1
 187 -40 l 1,1,-1
 187 1247 l 1,2,-1
 338 1247 l 1,3,-1
 338 -40 l 1,0,-1
EndSplineSet
EndChar

StartChar: uni0965
Encoding: 2405 2405 132
Width: 855
GlyphClass: 2
Flags: W
LayerCount: 2
Fore
SplineSet
800 -40 m 1,0,-1
 652 -40 l 1,1,-1
 652 1247 l 1,2,-1
 800 1247 l 1,3,-1
 800 -40 l 1,0,-1
336 -40 m 1,4,-1
 187 -40 l 1,5,-1
 187 1247 l 1,6,-1
 336 1247 l 1,7,-1
 336 -40 l 1,4,-1
EndSplineSet
EndChar

StartChar: ml_anusvara
Encoding: 3330 3330 135
Width: 1037
GlyphClass: 2
Flags: W
LayerCount: 2
Fore
SplineSet
603 883 m 0,0,1
 690 883 690 883 767 848.5 c 128,-1,2
 844 814 844 814 906 756 c 1,3,4
 963 691 963 691 993 607 c 128,-1,5
 1023 523 1023 523 1023 425 c 0,6,7
 1023 226 1023 226 905 111 c 0,8,9
 787 -3 787 -3 602 -3 c 0,10,11
 416 -3 416 -3 295 111 c 1,12,13
 175 226 175 226 175 429 c 256,14,15
 175 632 175 632 297 758 c 1,16,17
 422 883 422 883 603 883 c 0,0,1
851 430 m 0,18,19
 851 576 851 576 794 673 c 0,20,21
 738 770 738 770 603 770 c 0,22,23
 472 770 472 770 403 666 c 1,24,25
 346 565 346 565 346 430 c 0,26,27
 346 111 346 111 603 111 c 0,28,29
 851 111 851 111 851 430 c 0,18,19
EndSplineSet
EndChar

StartChar: ml_visarga
Encoding: 3331 3331 136
Width: 750
GlyphClass: 2
Flags: W
LayerCount: 2
Fore
SplineSet
253 1099 m 1,0,1
 339 1183 339 1183 463 1183 c 0,2,3
 589 1183 589 1183 663 1097 c 1,4,5
 736 1010 736 1010 736 888 c 256,6,7
 736 766 736 766 663 686 c 256,8,9
 590 606 590 606 464 606 c 256,10,11
 338 606 338 606 256 681 c 0,12,13
 175 756 175 756 175 887 c 0,14,15
 175 1019 175 1019 253 1099 c 1,0,1
670 481 m 1,16,17
 736 405 736 405 736 280 c 0,18,19
 736 220 736 220 717 169.5 c 128,-1,20
 698 119 698 119 662 77 c 1,21,22
 624 40 624 40 574.5 19.5 c 128,-1,23
 525 -1 525 -1 465 -1 c 0,24,25
 343 -1 343 -1 258 74 c 1,26,27
 175 150 175 150 175 282 c 0,28,29
 175 416 175 416 253 492 c 0,30,31
 337 574 337 574 465 574 c 256,32,33
 593 574 593 574 670 481 c 1,16,17
466 726 m 0,34,35
 574 726 574 726 574 894 c 0,36,37
 574 1063 574 1063 456 1063 c 256,38,39
 338 1063 338 1063 338 894 c 0,40,41
 338 726 338 726 466 726 c 0,34,35
466 119 m 0,42,43
 574 119 574 119 574 286 c 0,44,45
 574 455 574 455 456 455 c 256,46,47
 338 455 338 455 338 286 c 0,48,49
 338 119 338 119 466 119 c 0,42,43
EndSplineSet
EndChar

StartChar: ml_a
Encoding: 3333 3333 138
Width: 2810
GlyphClass: 2
Flags: W
LayerCount: 2
Fore
SplineSet
1146 97 m 0,0,1
 1229 97 1229 97 1275.5 148.5 c 128,-1,2
 1322 200 1322 200 1322 287 c 0,3,4
 1322 373 1322 373 1275.5 425 c 128,-1,5
 1229 477 1229 477 1147 477 c 0,6,7
 1140 477 1140 477 1054 470 c 1,8,-1
 997 460 l 1,9,-1
 1001 619 l 1,10,-1
 1058 610 l 1,11,12
 1108 601 1108 601 1137 601 c 0,13,14
 1213 601 1213 601 1258 649.5 c 128,-1,15
 1303 698 1303 698 1303 781 c 0,16,17
 1303 862 1303 862 1251 928.5 c 128,-1,18
 1199 995 1199 995 1123 1009 c 1,19,20
 1001 961 1001 961 938 828.5 c 128,-1,21
 875 696 875 696 875 532.5 c 128,-1,22
 875 369 875 369 933 247 c 0,23,24
 1005 97 1005 97 1146 97 c 0,0,1
2535 191 m 0,25,26
 2582 270 2582 270 2582 385 c 0,27,28
 2582 499 2582 499 2531 568 c 128,-1,29
 2480 637 2480 637 2380 637 c 0,30,31
 2278 637 2278 637 2225 562.5 c 128,-1,32
 2172 488 2172 488 2172 373 c 0,33,34
 2172 257 2172 257 2218 185 c 1,35,36
 2270 101 2270 101 2377 101 c 0,37,38
 2482 101 2482 101 2535 191 c 0,25,26
875 1072 m 1,40,-1
 835 1072 l 2,41,42
 645 1072 645 1072 490 925 c 1,43,44
 362 781 362 781 362 563 c 0,45,46
 362 265 362 265 567 114 c 1,47,-1
 609 86 l 1,48,-1
 523 -31 l 1,49,-1
 482 -7 l 1,50,51
 175 184 175 184 175 577 c 1,52,53
 192 908 192 908 468 1090 c 1,54,55
 625 1181 625 1181 831 1181 c 0,56,57
 877 1181 877 1181 919 1177 c 1,58,59
 1020 1171 1020 1171 1081 1150.5 c 128,-1,60
 1142 1130 1142 1130 1147 1128 c 1,61,62
 1251 1171 1251 1171 1383 1171 c 0,63,64
 1635 1171 1635 1171 1774 1016 c 1,65,66
 1943 1176 1943 1176 2210 1176 c 0,67,68
 2476 1176 2476 1176 2636 1000.5 c 128,-1,69
 2796 825 2796 825 2796 580 c 0,70,71
 2796 332 2796 332 2704 178 c 1,72,73
 2590 -16 2590 -16 2366 -16 c 0,74,75
 2198 -16 2198 -16 2093 94 c 128,-1,76
 1988 204 1988 204 1988 369 c 128,-1,77
 1988 534 1988 534 2088 644 c 128,-1,78
 2188 754 2188 754 2366 754 c 0,79,80
 2511 754 2511 754 2620 653 c 1,81,82
 2609 813 2609 813 2502 930 c 1,83,84
 2385 1061 2385 1061 2204 1061 c 2,85,-1
 2192 1061 l 2,86,87
 2104 1061 2104 1061 2014 1014.5 c 128,-1,88
 1924 968 1924 968 1888.5 893.5 c 128,-1,89
 1853 819 1853 819 1853 710 c 2,90,-1
 1853 4 l 1,91,-1
 1683 4 l 1,92,-1
 1683 717 l 2,93,94
 1683 828 1683 828 1649 898 c 128,-1,95
 1615 968 1615 968 1528 1013 c 0,96,97
 1444 1057 1444 1057 1349 1057 c 0,98,99
 1332 1057 1332 1057 1316 1056 c 1,100,101
 1481 962 1481 962 1481 777 c 0,102,103
 1481 685 1481 685 1438.5 627.5 c 128,-1,104
 1396 570 1396 570 1351 542 c 1,105,106
 1402 515 1402 515 1447 456 c 128,-1,107
 1492 397 1492 397 1492 301 c 0,108,109
 1492 158 1492 158 1390.5 73.5 c 128,-1,110
 1289 -11 1289 -11 1146 -11 c 0,111,112
 916 -11 916 -11 791 169 c 0,113,114
 685 320 685 320 685 549 c 0,115,116
 685 909 685 909 952 1061 c 1,117,39
 916 1069 916 1069 875 1072 c 1,40,-1
EndSplineSet
EndChar

StartChar: ml_aa
Encoding: 3334 3334 139
Width: 3223
GlyphClass: 2
Flags: W
LayerCount: 2
Fore
SplineSet
2377 111 m 0,0,1
 2496 111 2496 111 2553 230 c 1,2,3
 2611 347 2611 347 2611 522 c 0,4,5
 2611 698 2611 698 2579 789 c 1,6,7
 2389 776 2389 776 2290 642 c 1,8,9
 2209 514 2209 514 2209 362 c 0,10,11
 2209 309 2209 309 2219.5 265.5 c 128,-1,12
 2230 222 2230 222 2250 189 c 1,13,14
 2307 111 2307 111 2377 111 c 0,0,1
1146 97 m 0,15,16
 1229 97 1229 97 1275.5 148.5 c 128,-1,17
 1322 200 1322 200 1322 287 c 0,18,19
 1322 373 1322 373 1275.5 425 c 128,-1,20
 1229 477 1229 477 1147 477 c 0,21,22
 1140 477 1140 477 1054 470 c 1,23,-1
 997 460 l 1,24,-1
 1001 619 l 1,25,-1
 1058 610 l 1,26,27
 1108 601 1108 601 1137 601 c 0,28,29
 1213 601 1213 601 1258 649.5 c 128,-1,30
 1303 698 1303 698 1303 781 c 0,31,32
 1303 862 1303 862 1251 928.5 c 128,-1,33
 1199 995 1199 995 1123 1009 c 1,34,35
 1001 961 1001 961 938 828.5 c 128,-1,36
 875 696 875 696 875 532 c 0,37,38
 875 369 875 369 933 247 c 0,39,40
 1005 97 1005 97 1146 97 c 0,15,16
2703 912 m 1,41,42
 2814 906 2814 906 2905 864 c 0,43,44
 3000 820 3000 820 3069 745 c 1,45,46
 3135 661 3135 661 3172 558.5 c 128,-1,47
 3209 456 3209 456 3209 342 c 0,48,49
 3209 39 3209 39 3022 -150 c 1,50,51
 2842 -327 2842 -327 2568 -327 c 0,52,53
 2480 -327 2480 -327 2386.5 -305.5 c 128,-1,54
 2293 -284 2293 -284 2190 -228 c 1,55,-1
 2290 -120 l 1,56,57
 2432 -207 2432 -207 2578 -207 c 0,58,59
 2672 -207 2672 -207 2755.5 -172.5 c 128,-1,60
 2839 -138 2839 -138 2900 -62 c 1,61,62
 2964 13 2964 13 2998 117 c 128,-1,63
 3032 221 3032 221 3034 339 c 0,64,65
 3035 347 3035 347 3035 357 c 0,66,67
 3035 366 3035 366 3035 373 c 0,68,69
 3035 436 3035 436 3020 496.5 c 128,-1,70
 3005 557 3005 557 2976 611 c 0,71,72
 2909 737 2909 737 2772 774 c 1,73,74
 2786 733 2786 733 2793 674 c 128,-1,75
 2800 615 2800 615 2800 535 c 0,76,77
 2800 310 2800 310 2692 163 c 1,78,79
 2572 -10 2572 -10 2377 -10 c 0,80,81
 2243 -10 2243 -10 2140 82 c 1,82,83
 2038 176 2038 176 2036 372 c 0,84,85
 2036 375 2036 375 2036 378 c 0,86,87
 2036 474 2036 474 2069 561 c 0,88,89
 2103 649 2103 649 2169 726 c 1,90,91
 2235 792 2235 792 2320.5 833 c 128,-1,92
 2406 874 2406 874 2509 887 c 1,93,-1
 2531 891 l 1,94,95
 2514 917 2514 917 2502 930 c 0,96,97
 2385 1061 2385 1061 2204 1061 c 2,98,-1
 2192 1061 l 2,99,100
 2104 1061 2104 1061 2014 1014.5 c 128,-1,101
 1924 968 1924 968 1888.5 893.5 c 128,-1,102
 1853 819 1853 819 1853 710 c 2,103,-1
 1853 4 l 1,104,-1
 1683 4 l 1,105,-1
 1683 717 l 2,106,107
 1683 828 1683 828 1649 898 c 128,-1,108
 1615 968 1615 968 1528 1013 c 0,109,110
 1444 1057 1444 1057 1349 1057 c 0,111,112
 1332 1057 1332 1057 1316 1056 c 1,113,114
 1481 962 1481 962 1481 777 c 0,115,116
 1481 685 1481 685 1438.5 627.5 c 128,-1,117
 1396 570 1396 570 1351 542 c 1,118,119
 1402 515 1402 515 1447 456 c 128,-1,120
 1492 397 1492 397 1492 301 c 0,121,122
 1492 158 1492 158 1390.5 73.5 c 128,-1,123
 1289 -11 1289 -11 1146 -11 c 0,124,125
 916 -11 916 -11 791 169 c 0,126,127
 685 320 685 320 685 549 c 0,128,129
 685 909 685 909 952 1061 c 1,130,131
 916 1069 916 1069 875 1072 c 1,132,-1
 835 1072 l 2,133,134
 645 1072 645 1072 490 925 c 1,135,136
 362 781 362 781 362 563 c 0,137,138
 362 265 362 265 567 114 c 1,139,-1
 609 86 l 1,140,-1
 523 -31 l 1,141,-1
 482 -7 l 1,142,143
 175 184 175 184 175 577 c 1,144,145
 192 908 192 908 468 1090 c 1,146,147
 625 1181 625 1181 831 1181 c 0,148,149
 877 1181 877 1181 919 1177 c 1,150,151
 1020 1171 1020 1171 1081 1150.5 c 128,-1,152
 1142 1130 1142 1130 1147 1128 c 1,153,154
 1251 1171 1251 1171 1383 1171 c 0,155,156
 1635 1171 1635 1171 1774 1016 c 1,157,158
 1943 1176 1943 1176 2210 1176 c 0,159,160
 2476 1176 2476 1176 2636 1001 c 0,161,162
 2674 959 2674 959 2703 912 c 1,41,42
EndSplineSet
EndChar

StartChar: ml_i
Encoding: 3335 3335 140
Width: 2026
GlyphClass: 2
Flags: W
LayerCount: 2
Fore
SplineSet
740 529 m 0,0,1
 740 745 740 745 565 745 c 0,2,3
 480 745 480 745 424 699 c 256,4,5
 368 653 368 653 368 588 c 0,6,7
 368 478 368 478 422 408 c 1,8,9
 468 342 468 342 555 342 c 0,10,11
 644 342 644 342 692 407 c 0,12,13
 740 471 740 471 740 529 c 0,0,1
342 1033 m 1,14,15
 488 1172 488 1172 731 1172 c 0,16,17
 1026 1172 1026 1172 1160 980 c 1,18,19
 1303 1172 1303 1172 1506 1172 c 2,20,-1
 1526 1172 l 2,21,22
 1752 1172 1752 1172 1884 1024 c 0,23,24
 2020 870 2020 870 2020 628 c 0,25,26
 2020 385 2020 385 1857 227 c 128,-1,27
 1694 69 1694 69 1403 69 c 2,28,-1
 535 69 l 2,29,30
 467 69 467 69 408.5 31.5 c 128,-1,31
 350 -6 350 -6 350 -74 c 0,32,33
 350 -141 350 -141 404 -174 c 128,-1,34
 458 -207 458 -207 532 -207 c 2,35,-1
 1977 -207 l 1,36,-1
 1977 -357 l 1,37,-1
 508 -357 l 2,38,39
 372 -357 372 -357 281.5 -279.5 c 128,-1,40
 191 -202 191 -202 191 -73 c 0,41,42
 191 58 191 58 281.5 129.5 c 128,-1,43
 372 201 372 201 508 201 c 2,44,-1
 1378 201 l 2,45,46
 1582 201 1582 201 1710 308 c 0,47,48
 1839 416 1839 416 1839 635 c 2,49,-1
 1839 642 l 1,50,51
 1840 657 1840 657 1840 672 c 0,52,53
 1840 801 1840 801 1778 915 c 0,54,55
 1709 1042 1709 1042 1539 1045 c 1,56,57
 1367 1032 1367 1032 1302.5 942.5 c 128,-1,58
 1238 853 1238 853 1238 736 c 2,59,-1
 1238 296 l 1,60,-1
 1062 296 l 1,61,-1
 1062 736 l 2,62,63
 1062 862 1062 862 989.5 952.5 c 128,-1,64
 917 1043 917 1043 747 1051 c 1,65,66
 555 1043 555 1043 474 966 c 1,67,68
 419 904 419 904 410 832 c 1,69,70
 474 864 474 864 565 864 c 0,71,72
 736 864 736 864 831 773 c 1,73,74
 926 680 926 680 926 543 c 0,75,76
 926 404 926 404 821 313 c 1,77,-1
 821 314 l 1,78,79
 708 222 708 222 555 222 c 0,80,81
 401 222 401 222 298 309 c 1,82,-1
 298 308 l 1,83,84
 183 409 183 409 183 602 c 1,85,86
 179 718 179 718 214 818 c 1,87,88
 250 927 250 927 342 1033 c 1,14,15
EndSplineSet
EndChar

StartChar: ml_ii
Encoding: 3336 3336 141
Width: 3642
GlyphClass: 2
Flags: W
LayerCount: 2
Fore
SplineSet
2847 1027 m 1,0,1
 2975 1181 2975 1181 3150 1181 c 0,2,3
 3260 1181 3260 1181 3352.5 1137 c 128,-1,4
 3445 1093 3445 1093 3514 1013 c 1,5,6
 3573 937 3573 937 3604.5 842.5 c 128,-1,7
 3636 748 3636 748 3636 641 c 0,8,9
 3636 353 3636 353 3462 176 c 0,10,11
 3290 0 3290 0 3045 0 c 0,12,13
 2966 0 2966 0 2890.5 17.5 c 128,-1,14
 2815 35 2815 35 2746 67 c 1,15,16
 2717 83 2717 83 2687 107 c 128,-1,17
 2657 131 2657 131 2630 162 c 1,18,19
 2602 192 2602 192 2581 222.5 c 128,-1,20
 2560 253 2560 253 2544 285 c 1,21,22
 2576 302 2576 302 2607.5 318.5 c 128,-1,23
 2639 335 2639 335 2672 352 c 1,24,25
 2731 235 2731 235 2824.5 177.5 c 128,-1,26
 2918 120 2918 120 3045 120 c 0,27,28
 3139 120 3139 120 3214 157 c 128,-1,29
 3289 194 3289 194 3348 270 c 1,30,31
 3461 419 3461 419 3461 641 c 0,32,33
 3461 819 3461 819 3392 937 c 1,34,35
 3309 1060 3309 1060 3150 1060 c 0,36,37
 3045 1060 3045 1060 2988 994 c 1,38,39
 2932 927 2932 927 2932 861 c 2,40,-1
 2932 553 l 1,41,-1
 2758 553 l 1,42,-1
 2758 848 l 2,43,44
 2758 915 2758 915 2694 989 c 1,45,46
 2659 1024 2659 1024 2620.5 1042 c 128,-1,47
 2582 1060 2582 1060 2536 1060 c 0,48,49
 2321 1060 2321 1060 2321 763 c 0,50,51
 2321 703 2321 703 2330 642 c 128,-1,52
 2339 581 2339 581 2359 520 c 1,53,54
 2327 508 2327 508 2296.5 496 c 128,-1,55
 2266 484 2266 484 2234 471 c 1,56,57
 2146 612 2146 612 2146 763 c 0,58,59
 2146 956 2146 956 2252 1067 c 0,60,61
 2306 1123 2306 1123 2378 1152 c 128,-1,62
 2450 1181 2450 1181 2541 1181 c 0,63,64
 2722 1181 2722 1181 2844 1027 c 1,65,-1
 2847 1027 l 1,0,1
740 529 m 0,66,67
 740 745 740 745 565 745 c 0,68,69
 480 745 480 745 424 699 c 256,70,71
 368 653 368 653 368 588 c 0,72,73
 368 478 368 478 422 408 c 1,74,75
 468 342 468 342 555 342 c 0,76,77
 644 342 644 342 692 407 c 0,78,79
 740 471 740 471 740 529 c 0,66,67
342 1033 m 1,80,81
 488 1172 488 1172 731 1172 c 0,82,83
 1026 1172 1026 1172 1160 980 c 1,84,85
 1303 1172 1303 1172 1506 1172 c 2,86,-1
 1526 1172 l 2,87,88
 1752 1172 1752 1172 1884 1024 c 0,89,90
 2020 870 2020 870 2020 628 c 0,91,92
 2020 385 2020 385 1857 227 c 128,-1,93
 1694 69 1694 69 1403 69 c 2,94,-1
 535 69 l 2,95,96
 467 69 467 69 408.5 31.5 c 128,-1,97
 350 -6 350 -6 350 -74 c 0,98,99
 350 -141 350 -141 404 -174 c 128,-1,100
 458 -207 458 -207 532 -207 c 2,101,-1
 1977 -207 l 1,102,-1
 1977 -357 l 1,103,-1
 508 -357 l 2,104,105
 372 -357 372 -357 281.5 -279.5 c 128,-1,106
 191 -202 191 -202 191 -73 c 0,107,108
 191 58 191 58 281.5 129.5 c 128,-1,109
 372 201 372 201 508 201 c 2,110,-1
 1378 201 l 2,111,112
 1582 201 1582 201 1710 308 c 0,113,114
 1839 416 1839 416 1839 635 c 2,115,-1
 1839 642 l 1,116,117
 1840 657 1840 657 1840 672 c 0,118,119
 1840 801 1840 801 1778 915 c 0,120,121
 1709 1042 1709 1042 1539 1045 c 1,122,123
 1367 1032 1367 1032 1302.5 942.5 c 128,-1,124
 1238 853 1238 853 1238 736 c 2,125,-1
 1238 296 l 1,126,-1
 1062 296 l 1,127,-1
 1062 736 l 2,128,129
 1062 862 1062 862 989.5 952.5 c 128,-1,130
 917 1043 917 1043 747 1051 c 1,131,132
 555 1043 555 1043 474 966 c 1,133,134
 419 904 419 904 410 832 c 1,135,136
 474 864 474 864 565 864 c 0,137,138
 736 864 736 864 831 773 c 1,139,140
 926 680 926 680 926 543 c 0,141,142
 926 404 926 404 821 313 c 1,143,-1
 821 314 l 1,144,145
 708 222 708 222 555 222 c 0,146,147
 401 222 401 222 298 309 c 1,148,-1
 298 308 l 1,149,150
 183 409 183 409 183 602 c 1,151,152
 179 718 179 718 214 818 c 1,153,154
 250 927 250 927 342 1033 c 1,80,81
EndSplineSet
EndChar

StartChar: ml_u
Encoding: 3337 3337 142
Width: 1510
GlyphClass: 2
Flags: W
LayerCount: 2
Fore
SplineSet
561 349 m 0,0,1
 720 349 720 349 720 559 c 0,2,3
 720 768 720 768 556 768 c 0,4,5
 474 768 474 768 422 712 c 0,6,7
 370 655 370 655 370 598 c 0,8,9
 370 349 370 349 561 349 c 0,0,1
1302 519 m 0,10,11
 1310 565 1310 565 1310 616 c 0,12,13
 1310 672 1310 672 1301 718.5 c 128,-1,14
 1292 765 1292 765 1274.5 804.5 c 128,-1,15
 1257 844 1257 844 1231 877.5 c 128,-1,16
 1205 911 1205 911 1172 940 c 1,17,18
 1026 1059 1026 1059 809 1059 c 1,19,20
 493 1045 493 1045 408 857 c 1,21,22
 480 889 480 889 559 889 c 0,23,24
 717 889 717 889 819 780 c 0,25,26
 909 683 909 683 909 545 c 0,27,28
 909 408 909 408 817 323 c 1,29,30
 720 230 720 230 564 230 c 0,31,32
 486 230 486 230 419 252.5 c 128,-1,33
 352 275 352 275 299 317 c 1,34,35
 238 368 238 368 206.5 442 c 128,-1,36
 175 516 175 516 175 610 c 0,37,38
 175 732 175 732 214 835.5 c 128,-1,39
 253 939 253 939 324 1018 c 1,40,41
 405 1098 405 1098 527 1139.5 c 128,-1,42
 649 1181 649 1181 809 1181 c 0,43,44
 1077 1181 1077 1181 1271 1059 c 1,45,46
 1494 904 1494 904 1496 585 c 1,47,48
 1484 305 1484 305 1299 157 c 1,49,50
 1155 36 1155 36 767 30 c 1,51,-1
 586 30 l 1,52,53
 348 25 348 25 367 -86 c 1,54,55
 370 -207 370 -207 577 -207 c 2,56,-1
 1464 -207 l 1,57,-1
 1464 -355 l 1,58,-1
 614 -355 l 2,59,60
 202 -355 202 -355 200 -92 c 1,61,62
 202 107 202 107 398 149 c 0,63,64
 485 168 485 168 671 172 c 1,65,-1
 779 172 l 2,66,67
 1240 172 1240 172 1302 519 c 0,10,11
EndSplineSet
EndChar

StartChar: ml_uu
Encoding: 3338 3338 143
Width: 3172
GlyphClass: 2
Flags: W
LayerCount: 2
Fore
SplineSet
561 349 m 0,0,1
 720 349 720 349 720 559 c 0,2,3
 720 768 720 768 556 768 c 0,4,5
 474 768 474 768 422 712 c 0,6,7
 370 655 370 655 370 598 c 0,8,9
 370 349 370 349 561 349 c 0,0,1
1302 519 m 0,10,11
 1310 565 1310 565 1310 616 c 0,12,13
 1310 672 1310 672 1301 718.5 c 128,-1,14
 1292 765 1292 765 1274.5 804.5 c 128,-1,15
 1257 844 1257 844 1231 877.5 c 128,-1,16
 1205 911 1205 911 1172 940 c 1,17,18
 1026 1059 1026 1059 809 1059 c 1,19,20
 493 1045 493 1045 408 857 c 1,21,22
 480 889 480 889 559 889 c 0,23,24
 717 889 717 889 819 780 c 0,25,26
 909 683 909 683 909 545 c 0,27,28
 909 408 909 408 817 323 c 1,29,30
 720 230 720 230 564 230 c 0,31,32
 486 230 486 230 419 252.5 c 128,-1,33
 352 275 352 275 299 317 c 1,34,35
 238 368 238 368 206.5 442 c 128,-1,36
 175 516 175 516 175 610 c 0,37,38
 175 732 175 732 214 835.5 c 128,-1,39
 253 939 253 939 324 1018 c 1,40,41
 405 1098 405 1098 527 1139.5 c 128,-1,42
 649 1181 649 1181 809 1181 c 0,43,44
 1077 1181 1077 1181 1271 1059 c 1,45,46
 1494 904 1494 904 1496 585 c 1,47,48
 1484 305 1484 305 1299 157 c 1,49,50
 1155 36 1155 36 767 30 c 1,51,-1
 586 30 l 1,52,53
 348 25 348 25 367 -86 c 1,54,55
 370 -207 370 -207 577 -207 c 2,56,-1
 1464 -207 l 1,57,-1
 1464 -355 l 1,58,-1
 614 -355 l 2,59,60
 202 -355 202 -355 200 -92 c 1,61,62
 202 107 202 107 398 149 c 0,63,64
 485 168 485 168 671 172 c 1,65,-1
 779 172 l 2,66,67
 1240 172 1240 172 1302 519 c 0,10,11
2369 1033 m 1,68,69
 2497 1187 2497 1187 2672 1187 c 0,70,71
 2782 1187 2782 1187 2874.5 1143 c 128,-1,72
 2967 1099 2967 1099 3036 1019 c 1,73,74
 3095 943 3095 943 3126.5 848.5 c 128,-1,75
 3158 754 3158 754 3158 647 c 0,76,77
 3158 359 3158 359 2984 182 c 0,78,79
 2812 6 2812 6 2567 6 c 0,80,81
 2488 6 2488 6 2412.5 23.5 c 128,-1,82
 2337 41 2337 41 2268 73 c 1,83,84
 2239 89 2239 89 2209 113 c 128,-1,85
 2179 137 2179 137 2152 168 c 1,86,87
 2124 198 2124 198 2103 228.5 c 128,-1,88
 2082 259 2082 259 2066 291 c 1,89,90
 2098 308 2098 308 2129.5 324.5 c 128,-1,91
 2161 341 2161 341 2194 358 c 1,92,93
 2253 241 2253 241 2346.5 183 c 128,-1,94
 2440 125 2440 125 2567 125 c 0,95,96
 2661 125 2661 125 2736 162.5 c 128,-1,97
 2811 200 2811 200 2870 275 c 1,98,99
 2983 424 2983 424 2983 647 c 0,100,101
 2983 825 2983 825 2914 943 c 1,102,103
 2831 1066 2831 1066 2672 1066 c 0,104,105
 2567 1066 2567 1066 2510 1000 c 1,106,107
 2454 933 2454 933 2454 866 c 2,108,-1
 2454 559 l 1,109,-1
 2280 559 l 1,110,-1
 2280 854 l 2,111,112
 2280 921 2280 921 2216 995 c 1,113,114
 2181 1030 2181 1030 2142.5 1048 c 128,-1,115
 2104 1066 2104 1066 2058 1066 c 0,116,117
 1843 1066 1843 1066 1843 769 c 0,118,119
 1843 709 1843 709 1852 648 c 128,-1,120
 1861 587 1861 587 1881 526 c 1,121,122
 1849 514 1849 514 1818.5 502 c 128,-1,123
 1788 490 1788 490 1756 477 c 1,124,125
 1668 617 1668 617 1668 769 c 0,126,127
 1668 961 1668 961 1774 1073 c 0,128,129
 1828 1129 1828 1129 1900 1158 c 128,-1,130
 1972 1187 1972 1187 2063 1187 c 0,131,132
 2244 1187 2244 1187 2366 1033 c 1,133,-1
 2369 1033 l 1,68,69
EndSplineSet
EndChar

StartChar: ml_ru
Encoding: 3339 3339 144
Width: 1514
GlyphClass: 2
Flags: W
LayerCount: 2
Fore
SplineSet
1156 -148 m 1,0,1
 1315 -73 1315 -73 1313 38 c 1,2,3
 1313 148 1313 148 1167 221 c 1,4,5
 1108 248 1108 248 1040.5 262 c 128,-1,6
 973 276 973 276 884 277 c 1,7,-1
 777 277 l 2,8,9
 702 277 702 277 632.5 261.5 c 128,-1,10
 563 246 563 246 508 221 c 1,11,12
 437 185 437 185 399.5 140 c 128,-1,13
 362 95 362 95 361 40 c 1,14,15
 361 -71 361 -71 522 -148 c 1,16,17
 589 -178 589 -178 665 -194.5 c 128,-1,18
 741 -211 741 -211 850 -212 c 1,19,20
 937 -211 937 -211 1012.5 -194.5 c 128,-1,21
 1088 -178 1088 -178 1156 -148 c 1,0,1
612 909 m 0,22,23
 612 1058 612 1058 506 1058 c 0,24,25
 481 1058 481 1058 461.5 1046.5 c 128,-1,26
 442 1035 442 1035 428 1015 c 128,-1,27
 414 995 414 995 407 968.5 c 128,-1,28
 400 942 400 942 400 911 c 0,29,30
 400 851 400 851 428 810 c 0,31,32
 457 767 457 767 507 767 c 0,33,34
 558 767 558 767 585 808 c 0,35,36
 612 848 612 848 612 909 c 0,22,23
1062 909 m 0,37,38
 1062 847 1062 847 1090 807 c 128,-1,39
 1118 767 1118 767 1168 767 c 0,40,41
 1216 767 1216 767 1246 810 c 0,42,43
 1260 830 1260 830 1267.5 856.5 c 128,-1,44
 1275 883 1275 883 1275 911 c 0,45,46
 1275 971 1275 971 1249 1013 c 0,47,48
 1222 1058 1222 1058 1171 1058 c 0,49,50
 1062 1058 1062 1058 1062 909 c 0,37,38
1268 331 m 1,51,52
 1353 293 1353 293 1423 215 c 0,53,54
 1496 135 1496 135 1496 35 c 0,55,56
 1496 -168 1496 -168 1254 -270 c 1,57,58
 1089 -338 1089 -338 851 -338 c 0,59,60
 715 -338 715 -338 611 -319 c 128,-1,61
 507 -300 507 -300 424 -267 c 1,62,63
 305 -214 305 -214 242.5 -138.5 c 128,-1,64
 180 -63 180 -63 180 35 c 0,65,66
 180 86 180 86 198 130.5 c 128,-1,67
 216 175 216 175 252 215 c 0,68,69
 327 297 327 297 410 334 c 1,70,71
 364 358 364 358 322.5 397.5 c 128,-1,72
 281 437 281 437 246 494 c 0,73,74
 175 607 175 607 175 772 c 0,75,76
 175 938 175 938 266 1055 c 256,77,78
 357 1172 357 1172 509 1172 c 0,79,80
 568 1172 568 1172 615 1154.5 c 128,-1,81
 662 1137 662 1137 699 1104 c 0,82,83
 773 1036 773 1036 773 917 c 0,84,85
 773 799 773 799 698 726 c 0,86,87
 625 654 625 654 523 654 c 0,88,89
 423 654 423 654 366 708 c 0,90,91
 362 711 362 711 356.5 718 c 128,-1,92
 351 725 351 725 343 733 c 1,93,94
 387 387 387 387 848 390 c 1,95,96
 1291 390 1291 390 1333 743 c 1,97,98
 1323 730 1323 730 1316 722 c 128,-1,99
 1309 714 1309 714 1304 708 c 1,100,101
 1249 665 1249 665 1200 660.5 c 128,-1,102
 1151 656 1151 656 1149 656 c 0,103,104
 1050 656 1050 656 976 727 c 0,105,106
 902 797 902 797 902 916 c 0,107,108
 902 1033 902 1033 977 1104 c 1,109,110
 1052 1172 1052 1172 1166 1172 c 0,111,112
 1318 1172 1318 1172 1410 1055 c 1,113,114
 1500 938 1500 938 1500 772 c 0,115,116
 1500 608 1500 608 1429 494 c 1,117,118
 1360 381 1360 381 1268 336 c 1,119,-1
 1268 331 l 1,51,52
EndSplineSet
EndChar

StartChar: ml_li
Encoding: 3340 3340 145
Width: 2310
GlyphClass: 2
Flags: W
LayerCount: 2
Fore
SplineSet
374 394 m 0,0,1
 374 254 374 254 433 170 c 1,2,3
 492 84 492 84 598 84 c 0,4,5
 705 84 705 84 764 163 c 0,6,7
 822 240 822 240 822 367 c 0,8,9
 822 506 822 506 764 580 c 0,10,11
 705 656 705 656 599 656 c 256,12,13
 493 656 493 656 434 579 c 1,14,15
 374 504 374 504 374 394 c 0,0,1
2037 580 m 1,16,17
 1978 656 1978 656 1872 656 c 256,18,19
 1766 656 1766 656 1707 581 c 0,20,21
 1649 508 1649 508 1649 370 c 0,22,23
 1649 246 1649 246 1707 170 c 0,24,25
 1766 92 1766 92 1873 92 c 0,26,27
 1979 92 1979 92 2038 176 c 256,28,29
 2097 260 2097 260 2097 397 c 0,30,31
 2097 506 2097 506 2037 580 c 1,16,17
1432 988 m 1,33,34
 1331 911 1331 911 1331 816 c 2,35,-1
 1331 10 l 1,36,-1
 1143 10 l 1,37,-1
 1144 819 l 2,38,39
 1144 914 1144 914 1039 991 c 1,40,41
 938 1067 938 1067 792 1062 c 1,42,43
 584 1061 584 1061 467 939 c 0,44,45
 351 817 351 817 357 653 c 1,46,47
 398 695 398 695 424 712 c 0,48,49
 468 740 468 740 517.5 754.5 c 128,-1,50
 567 769 567 769 623 769 c 0,51,52
 777 769 777 769 885 662 c 0,53,54
 992 555 992 555 992 387 c 0,55,56
 992 193 992 193 892 78 c 1,57,58
 791 -34 791 -34 612 -34 c 0,59,60
 388 -34 388 -34 269 149 c 0,61,62
 175 294 175 294 175 536 c 2,63,-1
 175 566 l 2,64,65
 175 846 175 846 343 1010 c 0,66,67
 512 1175 512 1175 797 1180 c 1,68,69
 882 1179 882 1179 937.5 1167 c 128,-1,70
 993 1155 993 1155 1041 1137 c 1,71,72
 1113 1103 1113 1103 1163.5 1063.5 c 128,-1,73
 1214 1024 1214 1024 1244 980 c 1,74,75
 1390 1183 1390 1183 1674 1180 c 1,76,77
 1959 1175 1959 1175 2128 1010 c 0,78,79
 2296 846 2296 846 2296 566 c 2,80,-1
 2296 536 l 2,81,82
 2296 294 2296 294 2202 149 c 0,83,84
 2083 -34 2083 -34 1859 -34 c 0,85,86
 1680 -34 1680 -34 1579 78 c 1,87,88
 1479 193 1479 193 1479 387 c 0,89,90
 1479 555 1479 555 1586 662 c 0,91,92
 1694 769 1694 769 1848 769 c 0,93,94
 1904 769 1904 769 1953.5 754.5 c 128,-1,95
 2003 740 2003 740 2047 712 c 0,96,97
 2073 695 2073 695 2114 653 c 1,98,99
 2120 817 2120 817 2004 939 c 0,100,101
 1887 1061 1887 1061 1679 1062 c 1,102,32
 1529 1057 1529 1057 1432 988 c 1,33,34
EndSplineSet
EndChar

StartChar: ml_e
Encoding: 3342 3342 147
Width: 2608
GlyphClass: 2
Flags: W
LayerCount: 2
Fore
SplineSet
1829 2 m 1,0,-1
 1410 2 l 1,1,2
 1422 -137 1422 -137 1466 -229 c 0,3,4
 1532 -365 1532 -365 1684 -365 c 0,5,6
 1834 -365 1834 -365 1834 -143 c 0,7,8
 1834 -102 1834 -102 1832 -65 c 0,9,10
 1829 -9 1829 -9 1829 2 c 1,0,-1
2579 9 m 0,12,13
 2565 -103 2565 -103 2534 -191 c 0,14,15
 2517 -238 2517 -238 2490.5 -285.5 c 128,-1,16
 2464 -333 2464 -333 2432 -375 c 1,17,18
 2389 -425 2389 -425 2343 -458 c 128,-1,19
 2297 -491 2297 -491 2250 -505 c 1,20,-1
 2159 -428 l 1,21,22
 2265 -393 2265 -393 2325.5 -254 c 128,-1,23
 2386 -115 2386 -115 2397 116 c 0,24,25
 2399 168 2399 168 2401 350 c 1,26,27
 2401 656 2401 656 2305 838 c 1,28,29
 2182 1055 2182 1055 1909 1055 c 1,30,31
 1663 1054 1663 1054 1532 880 c 128,-1,32
 1401 706 1401 706 1401 247 c 2,33,-1
 1401 116 l 1,34,-1
 1830 116 l 1,35,-1
 1831 941 l 1,36,-1
 2010 939 l 1,37,-1
 2011 7 l 2,38,39
 2011 -221 2011 -221 1977 -310 c 0,40,41
 1912 -478 1912 -478 1668 -478 c 0,42,43
 1445 -478 1445 -478 1329 -309 c 1,44,45
 1245 -184 1245 -184 1220 0 c 1,46,-1
 658 0 l 1,47,-1
 629 89 l 1,48,-1
 652 103 l 1,49,50
 803 181 803 181 799 378 c 1,51,52
 799 497 799 497 743.5 568 c 128,-1,53
 688 639 688 639 583 644 c 1,54,55
 473 644 473 644 416 572 c 128,-1,56
 359 500 359 500 359 385 c 0,57,58
 359 170 359 170 502 103 c 1,59,-1
 535 91 l 1,60,-1
 491 -11 l 1,61,-1
 442 5 l 1,62,63
 315 49 315 49 245 136 c 128,-1,64
 175 223 175 223 175 391 c 0,65,66
 175 557 175 557 291.5 658 c 128,-1,67
 408 759 408 759 584 759 c 256,68,69
 760 759 760 759 873 658 c 128,-1,70
 986 557 986 557 986 392 c 0,71,72
 986 226 986 226 877 114 c 1,73,-1
 1206 114 l 1,74,-1
 1206 116 l 1,75,76
 1204 203 1204 203 1203 270 c 1,77,78
 1203 654 1203 654 1354 890 c 0,79,80
 1539 1179 1539 1179 1906 1179 c 0,81,82
 2272 1179 2272 1179 2447 924 c 1,83,84
 2594 712 2594 712 2594 351 c 1,85,11
 2592 116 2592 116 2579 9 c 0,12,13
EndSplineSet
EndChar

StartChar: ml_ee
Encoding: 3343 3343 148
Width: 2589
GlyphClass: 2
Flags: W
LayerCount: 2
Fore
SplineSet
1789 2 m 1,0,-1
 1410 2 l 1,1,2
 1422 -137 1422 -137 1466 -229 c 0,3,4
 1532 -365 1532 -365 1664 -365 c 0,5,6
 1794 -365 1794 -365 1794 -143 c 0,7,8
 1794 -102 1794 -102 1792 -65 c 0,9,10
 1789 -9 1789 -9 1789 2 c 1,0,-1
2531 675 m 1,11,12
 2531 597 2531 597 2502 529.5 c 128,-1,13
 2473 462 2473 462 2416 402 c 1,14,15
 2377 364 2377 364 2367 358 c 1,16,17
 2575 253 2575 253 2575 -61 c 0,18,19
 2575 -240 2575 -240 2473 -358 c 1,20,21
 2372 -479 2372 -479 2179 -483 c 1,22,23
 2114 -478 2114 -478 2065 -456 c 1,24,-1
 2065 -341 l 1,25,26
 2129 -356 2129 -356 2178 -357 c 0,27,28
 2273 -360 2273 -360 2330 -269 c 1,29,30
 2386 -167 2386 -167 2386 -61 c 0,31,32
 2386 211 2386 211 2207 274 c 1,33,34
 2196 276 2196 276 2183 277.5 c 128,-1,35
 2170 279 2170 279 2155 279 c 0,36,37
 2123 279 2123 279 2083 273 c 0,38,39
 2078 272 2078 272 2072.5 271 c 128,-1,40
 2067 270 2067 270 2062 268 c 1,41,-1
 2062 438 l 1,42,43
 2070 436 2070 436 2077 434 c 128,-1,44
 2084 432 2084 432 2092 430 c 0,45,46
 2125 421 2125 421 2155 421 c 0,47,48
 2184 421 2184 421 2208 430 c 1,49,50
 2343 491 2343 491 2343 677 c 0,51,52
 2343 758 2343 758 2305 838 c 1,53,54
 2182 1055 2182 1055 1909 1055 c 1,55,56
 1663 1054 1663 1054 1532 880 c 128,-1,57
 1401 706 1401 706 1401 247 c 2,58,-1
 1401 116 l 1,59,-1
 1790 116 l 1,60,-1
 1791 941 l 1,61,-1
 1970 939 l 1,62,-1
 1971 7 l 2,63,64
 1971 -221 1971 -221 1937 -310 c 0,65,66
 1872 -478 1872 -478 1648 -478 c 0,67,68
 1445 -478 1445 -478 1329 -309 c 1,69,70
 1245 -184 1245 -184 1220 0 c 1,71,-1
 658 0 l 1,72,-1
 629 89 l 1,73,-1
 652 103 l 1,74,75
 803 181 803 181 799 378 c 1,76,77
 799 497 799 497 743.5 568 c 128,-1,78
 688 639 688 639 583 644 c 1,79,80
 473 644 473 644 416 572 c 128,-1,81
 359 500 359 500 359 385 c 0,82,83
 359 170 359 170 502 103 c 1,84,-1
 535 91 l 1,85,-1
 491 -11 l 1,86,-1
 442 5 l 1,87,88
 315 49 315 49 245 136 c 128,-1,89
 175 223 175 223 175 391 c 0,90,91
 175 557 175 557 291.5 658 c 128,-1,92
 408 759 408 759 584 759 c 256,93,94
 760 759 760 759 873 658 c 128,-1,95
 986 557 986 557 986 392 c 0,96,97
 986 226 986 226 877 114 c 1,98,-1
 1206 114 l 1,99,-1
 1206 116 l 1,100,101
 1204 203 1204 203 1203 270 c 1,102,103
 1203 654 1203 654 1354 890 c 0,104,105
 1539 1179 1539 1179 1906 1179 c 0,106,107
 2264 1179 2264 1179 2453 931 c 1,108,109
 2526 841 2526 841 2531 675 c 1,11,12
EndSplineSet
EndChar

StartChar: ml_o
Encoding: 3346 3346 151
Width: 1520
GlyphClass: 2
Flags: W
LayerCount: 2
Fore
SplineSet
793 348 m 0,0,1
 793 441 793 441 750 514 c 0,2,3
 706 587 706 587 606 595 c 256,4,5
 506 603 506 603 435 548 c 0,6,7
 363 493 363 493 356 430 c 1,8,9
 359 328 359 328 399 256 c 0,10,11
 479 116 479 116 607 116 c 0,12,13
 793 116 793 116 793 348 c 0,0,1
360 641 m 1,14,15
 462 720 462 720 609 720 c 256,16,17
 756 720 756 720 863 623 c 1,18,19
 969 525 969 525 969 352 c 0,20,21
 969 188 969 188 876 88 c 1,22,23
 772 -14 772 -14 612 -14 c 0,24,25
 499 -14 499 -14 411.5 40 c 128,-1,26
 324 94 324 94 264 198 c 1,27,28
 224 271 224 271 201.5 358.5 c 128,-1,29
 179 446 179 446 177 530 c 1,30,-1
 175 562 l 1,31,32
 175 622 175 622 181 675 c 1,33,34
 199 770 199 770 242.5 852 c 128,-1,35
 286 934 286 934 348 997 c 1,36,37
 442 1086 442 1086 569.5 1134.5 c 128,-1,38
 697 1183 697 1183 850 1183 c 0,39,40
 883 1183 883 1183 915.5 1182 c 128,-1,41
 948 1181 948 1181 983 1177 c 128,-1,42
 1018 1173 1018 1173 1056 1165 c 128,-1,43
 1094 1157 1094 1157 1138 1145 c 1,44,45
 1221 1120 1221 1120 1306 1065 c 1,46,47
 1476 951 1476 951 1476 769 c 0,48,49
 1476 731 1476 731 1466 698 c 128,-1,50
 1456 665 1456 665 1436 635 c 0,51,52
 1396 577 1396 577 1364 560 c 1,53,54
 1506 476 1506 476 1506 307 c 0,55,56
 1506 229 1506 229 1465 166 c 128,-1,57
 1424 103 1424 103 1348 58 c 1,58,59
 1283 23 1283 23 1212.5 4 c 128,-1,60
 1142 -15 1142 -15 1065 -15 c 1,61,62
 1053 15 1053 15 1041 44 c 128,-1,63
 1029 73 1029 73 1017 102 c 1,64,65
 1156 102 1156 102 1245 161 c 1,66,67
 1330 226 1330 226 1330 318 c 0,68,69
 1330 417 1330 417 1281 462 c 1,70,71
 1244 492 1244 492 1162 492 c 0,72,73
 1151 492 1151 492 1129.5 491 c 128,-1,74
 1108 490 1108 490 1076 488 c 1,75,-1
 1076 625 l 1,76,77
 1086 625 1086 625 1098 624.5 c 128,-1,78
 1110 624 1110 624 1118 624 c 0,79,80
 1134 623 1134 623 1145 623 c 128,-1,81
 1156 623 1156 623 1163 623 c 0,82,83
 1175 623 1175 623 1187.5 625 c 128,-1,84
 1200 627 1200 627 1214 631 c 0,85,86
 1242 638 1242 638 1270 676 c 256,87,88
 1298 714 1298 714 1298 781 c 0,89,90
 1298 859 1298 859 1218 943 c 1,91,92
 1081 1069 1081 1069 847 1070 c 1,93,94
 724 1067 724 1067 627 1024.5 c 128,-1,95
 530 982 530 982 463 906 c 1,96,97
 410 844 410 844 382 777 c 128,-1,98
 354 710 354 710 355 643 c 1,99,-1
 360 641 l 1,14,15
EndSplineSet
EndChar

StartChar: ml_ka
Encoding: 3349 3349 154
Width: 1989
GlyphClass: 2
Flags: W
LayerCount: 2
Fore
SplineSet
644 172 m 1,0,1
 693 213 693 213 712 255 c 1,2,3
 671 345 671 345 648 422.5 c 128,-1,4
 625 500 625 500 621 566 c 1,5,-1
 546 566 l 2,6,7
 461 566 461 566 402 493 c 1,8,9
 353 426 353 426 353 347 c 0,10,11
 353 131 353 131 534 131 c 0,12,13
 591 131 591 131 644 172 c 1,0,1
808 566 m 1,14,15
 814 391 814 391 883 259 c 1,16,17
 920 201 920 201 968.5 163.5 c 128,-1,18
 1017 126 1017 126 1073 126 c 0,19,20
 1187 126 1187 126 1262 259 c 1,21,22
 1333 392 1333 392 1339 566 c 1,23,-1
 808 566 l 1,14,15
616 687 m 1,24,25
 627 869 627 869 710 990 c 1,26,27
 835 1176 835 1176 1076 1185 c 1,28,29
 1307 1174 1307 1174 1425 999 c 1,30,31
 1512 867 1512 867 1523 687 c 1,32,-1
 1578 687 l 2,33,34
 1645 687 1645 687 1721 668 c 0,35,36
 1795 650 1795 650 1841 611 c 1,37,38
 1898 569 1898 569 1936.5 503.5 c 128,-1,39
 1975 438 1975 438 1975 349 c 0,40,41
 1975 265 1975 265 1935 197 c 128,-1,42
 1895 129 1895 129 1823 82 c 1,43,44
 1767 50 1767 50 1706.5 32.5 c 128,-1,45
 1646 15 1646 15 1586 15 c 0,46,47
 1560 15 1560 15 1536.5 19 c 128,-1,48
 1513 23 1513 23 1488 32 c 1,49,50
 1481 62 1481 62 1475 92.5 c 128,-1,51
 1469 123 1469 123 1462 154 c 1,52,53
 1494 145 1494 145 1522 141 c 128,-1,54
 1550 137 1550 137 1573 137 c 0,55,56
 1598 137 1598 137 1614 141 c 0,57,58
 1643 149 1643 149 1666 160 c 128,-1,59
 1689 171 1689 171 1709 184 c 1,60,61
 1788 246 1788 246 1788 341 c 0,62,63
 1788 438 1788 438 1734 505 c 1,64,65
 1660 566 1660 566 1578 566 c 2,66,-1
 1526 566 l 1,67,68
 1523 460 1523 460 1488 361.5 c 128,-1,69
 1453 263 1453 263 1392 179 c 1,70,71
 1323 94 1323 94 1244.5 50 c 128,-1,72
 1166 6 1166 6 1079 6 c 0,73,74
 904 6 904 6 772 167 c 1,75,-1
 767 167 l 1,76,77
 744 130 744 130 715.5 101.5 c 128,-1,78
 687 73 687 73 655 51 c 1,79,80
 620 31 620 31 589 20 c 128,-1,81
 558 9 558 9 534 9 c 0,82,83
 466 9 466 9 403.5 31.5 c 128,-1,84
 341 54 341 54 285 98 c 1,85,86
 233 143 233 143 204 202.5 c 128,-1,87
 175 262 175 262 175 332 c 0,88,89
 175 478 175 478 278 576 c 1,90,91
 391 687 391 687 552 687 c 2,92,-1
 616 687 l 1,24,25
804 684 m 1,93,-1
 1340 684 l 1,94,95
 1334 810 1334 810 1311 887 c 0,96,97
 1286 968 1286 968 1224.5 1014.5 c 128,-1,98
 1163 1061 1163 1061 1086 1061 c 0,99,100
 806 1060 806 1060 804 684 c 1,93,-1
EndSplineSet
PairPos2: "'dist' Distance lookup 0 subtable" periodcentered dx=0 dy=0 dh=0 dv=0 dx=0 dy=0 dh=0 dv=0
EndChar

StartChar: ml_kha
Encoding: 3350 3350 155
Width: 1993
GlyphClass: 2
Flags: W
LayerCount: 2
Fore
SplineSet
599 659 m 256,0,1
 493 659 493 659 434 580 c 1,2,3
 373 503 373 503 373 393 c 0,4,5
 373 281 373 281 433 195 c 1,6,7
 492 108 492 108 598 108 c 0,8,9
 705 108 705 108 764 188 c 0,10,11
 822 267 822 267 822 385 c 0,12,13
 822 506 822 506 764 581 c 1,14,15
 705 659 705 659 599 659 c 256,0,1
1248 997 m 1,16,17
 1427 813 1427 813 1427 545 c 0,18,19
 1427 489 1427 489 1412.5 428.5 c 128,-1,20
 1398 368 1398 368 1371 306 c 1,21,22
 1344 248 1344 248 1312.5 201 c 128,-1,23
 1281 154 1281 154 1250 125 c 1,24,-1
 1793 125 l 1,25,-1
 1793 1183 l 1,26,-1
 1979 1183 l 1,27,-1
 1979 4 l 1,28,-1
 1083 4 l 1,29,30
 1067 24 1067 24 1052 42.5 c 128,-1,31
 1037 61 1037 61 1021 80 c 1,32,33
 1128 178 1128 178 1184 294.5 c 128,-1,34
 1240 411 1240 411 1240 545 c 0,35,36
 1240 742 1240 742 1132 896 c 1,37,38
 1011 1054 1011 1054 804 1065 c 1,39,40
 583 1063 583 1063 467 943 c 1,41,42
 349 818 349 818 351 651 c 1,43,44
 389 694 389 694 424 714 c 1,45,46
 468 743 468 743 517.5 757.5 c 128,-1,47
 567 772 567 772 622 772 c 0,48,49
 777 772 777 772 884 665 c 0,50,51
 992 557 992 557 992 389 c 0,52,53
 992 305 992 305 967 236 c 128,-1,54
 942 167 942 167 891 109 c 0,55,56
 790 -5 790 -5 611 -5 c 0,57,58
 386 -5 386 -5 269 179 c 1,59,60
 175 324 175 324 175 538 c 2,61,-1
 175 568 l 2,62,63
 175 850 175 850 346 1017 c 1,64,65
 508 1184 508 1184 812 1187 c 1,66,67
 1081 1180 1081 1180 1248 997 c 1,16,17
EndSplineSet
EndChar

StartChar: ml_ga
Encoding: 3351 3351 156
Width: 1854
GlyphClass: 2
Flags: W
LayerCount: 2
Fore
SplineSet
356 556 m 1,0,1
 347 395 347 395 435 241 c 1,2,3
 509 108 509 108 657 108 c 0,4,5
 915 108 915 108 915 557 c 0,6,7
 915 1182 915 1182 1357 1182 c 0,8,9
 1466 1182 1466 1182 1558.5 1131.5 c 128,-1,10
 1651 1081 1651 1081 1723 991 c 1,11,12
 1773 919 1773 919 1803 835 c 128,-1,13
 1833 751 1833 751 1840 664 c 1,14,-1
 1840 617 l 1,15,16
 1841 175 1841 175 1478 -18 c 1,17,-1
 1441 -35 l 1,18,-1
 1371 93 l 1,19,-1
 1412 109 l 1,20,21
 1644 223 1644 223 1658 555 c 1,22,23
 1677 802 1677 802 1592 914 c 1,24,25
 1509 1059 1509 1059 1356 1059 c 0,26,27
 1283 1059 1283 1059 1230 1021 c 128,-1,28
 1177 983 1177 983 1148 916 c 1,29,30
 1126 858 1126 858 1114 767.5 c 128,-1,31
 1102 677 1102 677 1102 557 c 0,32,33
 1102 325 1102 325 997 167 c 1,34,-1
 998 167 l 1,35,36
 869 -15 869 -15 655 -15 c 0,37,38
 440 -15 440 -15 307 160 c 1,39,40
 181 314 181 314 175 540 c 1,41,-1
 176 540 l 1,42,-1
 176 541 l 1,43,44
 175 983 175 983 538 1176 c 1,45,-1
 575 1194 l 1,46,-1
 645 1065 l 1,47,-1
 604 1050 l 1,48,49
 372 935 372 935 356 556 c 1,0,1
EndSplineSet
EndChar

StartChar: ml_gha
Encoding: 3352 3352 157
Width: 2870
GlyphClass: 2
Flags: W
LayerCount: 2
Fore
SplineSet
1991 494 m 1,0,-1
 1991 690 l 1,1,2
 1989 759 1989 759 1988 799.5 c 128,-1,3
 1987 840 1987 840 1986 850 c 0,4,5
 1981 887 1981 887 1966.5 919 c 128,-1,6
 1952 951 1952 951 1927 975 c 0,7,8
 1889 1012 1889 1012 1837 1033 c 128,-1,9
 1785 1054 1785 1054 1723 1054 c 0,10,11
 1594 1054 1594 1054 1527 978 c 1,12,13
 1462 901 1462 901 1462 722 c 2,14,-1
 1462 494 l 1,15,-1
 1991 494 l 1,0,-1
1277 496 m 1,16,-1
 1277 709 l 2,17,18
 1277 935 1277 935 1357 1030 c 0,19,20
 1483 1181 1483 1181 1716 1180 c 0,21,22
 1834 1179 1834 1179 1924 1141 c 128,-1,23
 2014 1103 2014 1103 2077 1030 c 1,24,25
 2119 977 2119 977 2140 891.5 c 128,-1,26
 2161 806 2161 806 2161 690 c 2,27,-1
 2161 376 l 1,28,-1
 1462 376 l 1,29,-1
 1462 116 l 1,30,-1
 2672 116 l 1,31,-1
 2669 1174 l 1,32,-1
 2855 1174 l 1,33,-1
 2856 -4 l 1,34,-1
 1272 -4 l 1,35,-1
 1272 382 l 1,36,-1
 658 382 l 1,37,-1
 629 471 l 1,38,-1
 652 485 l 1,39,40
 803 564 803 564 799 761 c 1,41,42
 799 879 799 879 743.5 950 c 128,-1,43
 688 1021 688 1021 583 1026 c 1,44,45
 473 1026 473 1026 416 954 c 128,-1,46
 359 882 359 882 359 767 c 0,47,48
 359 552 359 552 502 485 c 1,49,-1
 535 473 l 1,50,-1
 491 371 l 1,51,-1
 442 387 l 1,52,53
 315 431 315 431 245 518.5 c 128,-1,54
 175 606 175 606 175 773 c 0,55,56
 175 939 175 939 291.5 1040 c 128,-1,57
 408 1141 408 1141 584 1141 c 256,58,59
 760 1141 760 1141 873 1040 c 128,-1,60
 986 939 986 939 986 774 c 256,61,62
 986 609 986 609 877 496 c 1,63,-1
 1277 496 l 1,16,-1
EndSplineSet
EndChar

StartChar: ml_nga
Encoding: 3353 3353 158
Width: 2158
GlyphClass: 2
Flags: W
LayerCount: 2
Fore
SplineSet
600 656 m 0,0,1
 493 656 493 656 434 577 c 1,2,3
 373 502 373 502 373 381 c 0,4,5
 373 325 373 325 387.5 276.5 c 128,-1,6
 402 228 402 228 433 184 c 0,7,8
 492 97 492 97 599 97 c 256,9,10
 706 97 706 97 764 177 c 0,11,12
 822 256 822 256 822 373 c 0,13,14
 822 503 822 503 764 578 c 1,15,16
 706 656 706 656 600 656 c 0,0,1
794 1181 m 1,17,18
 861 1179 861 1179 919 1166.5 c 128,-1,19
 977 1154 977 1154 1028 1129.5 c 128,-1,20
 1079 1105 1079 1105 1124 1068 c 128,-1,21
 1169 1031 1169 1031 1210 981 c 1,22,23
 1250 1039 1250 1039 1305.5 1079 c 128,-1,24
 1361 1119 1361 1119 1435 1143 c 0,25,26
 1546 1179 1546 1179 1661 1179 c 0,27,28
 1771 1179 1771 1179 1857 1155.5 c 128,-1,29
 1943 1132 1943 1132 2007 1085 c 1,30,31
 2135 995 2135 995 2135 830 c 0,32,33
 2135 666 2135 666 2003 572 c 1,34,35
 2066 541 2066 541 2105 480 c 128,-1,36
 2144 419 2144 419 2144 326 c 0,37,38
 2144 147 2144 147 1991 54 c 0,39,40
 1878 -15 1878 -15 1729 -15 c 0,41,42
 1589 -15 1589 -15 1448 67 c 1,43,-1
 1541 164 l 1,44,45
 1579 130 1579 130 1618 117.5 c 128,-1,46
 1657 105 1657 105 1717 105 c 0,47,48
 1838 105 1838 105 1905 176 c 1,49,50
 1964 240 1964 240 1964 308 c 0,51,52
 1964 341 1964 341 1948.5 375.5 c 128,-1,53
 1933 410 1933 410 1904 441 c 0,54,55
 1874 473 1874 473 1833.5 490.5 c 128,-1,56
 1793 508 1793 508 1743 508 c 2,57,-1
 1580 508 l 1,58,-1
 1580 644 l 1,59,-1
 1743 644 l 2,60,61
 1790 644 1790 644 1826 659.5 c 128,-1,62
 1862 675 1862 675 1891 706 c 0,63,64
 1948 767 1948 767 1948 842 c 0,65,66
 1948 915 1948 915 1893 977 c 1,67,68
 1857 1016 1857 1016 1801 1037.5 c 128,-1,69
 1745 1059 1745 1059 1670 1059 c 0,70,71
 1519 1059 1519 1059 1412 986 c 0,72,73
 1361 951 1361 951 1333.5 906.5 c 128,-1,74
 1306 862 1306 862 1306 812 c 0,75,76
 1306 609 1306 609 1305.5 407.5 c 128,-1,77
 1305 206 1305 206 1305 3 c 1,78,-1
 1118 3 l 1,79,-1
 1117 805 l 2,80,81
 1117 856 1117 856 1093.5 901.5 c 128,-1,82
 1070 947 1070 947 1028 983 c 1,83,84
 942 1053 942 1053 777 1060 c 1,85,86
 586 1054 586 1054 468 938 c 1,87,88
 349 815 349 815 353 654 c 1,89,90
 369 676 369 676 424 711 c 0,91,92
 469 739 469 739 518 753.5 c 128,-1,93
 567 768 567 768 623 768 c 0,94,95
 777 768 777 768 884 662 c 1,96,97
 992 553 992 553 992 377 c 0,98,99
 992 293 992 293 967 224.5 c 128,-1,100
 942 156 942 156 891 98 c 0,101,102
 790 -15 790 -15 612 -15 c 0,103,104
 387 -15 387 -15 270 169 c 1,105,106
 175 314 175 314 175 535 c 2,107,-1
 175 566 l 2,108,109
 175 846 175 846 340 1007 c 1,110,111
 507 1167 507 1167 794 1181 c 1,17,18
EndSplineSet
EndChar

StartChar: ml_ca
Encoding: 3354 3354 159
Width: 1894
GlyphClass: 2
Flags: W
LayerCount: 2
Fore
SplineSet
1880 5 m 1,0,-1
 175 5 l 1,1,-1
 175 123 l 1,2,-1
 799 123 l 1,3,4
 962 182 962 182 962 405 c 0,5,6
 962 499 962 499 909 573 c 0,7,8
 882 609 882 609 841.5 628.5 c 128,-1,9
 801 648 801 648 748 648 c 0,10,11
 641 648 641 648 591 581 c 0,12,13
 542 515 542 515 542 423 c 0,14,15
 542 332 542 332 602 255 c 1,16,17
 575 241 575 241 550 227.5 c 128,-1,18
 525 214 525 214 498 200 c 1,19,20
 436 237 436 237 403 294.5 c 128,-1,21
 370 352 370 352 370 428 c 0,22,23
 370 509 370 509 404 575 c 128,-1,24
 438 641 438 641 501 689 c 1,25,26
 558 726 558 726 621 747 c 128,-1,27
 684 768 684 768 746 768 c 0,28,29
 911 768 911 768 1027 671 c 1,30,-1
 1027 672 l 1,31,32
 1148 565 1148 565 1148 402 c 256,33,34
 1148 239 1148 239 1006 123 c 1,35,-1
 1695 123 l 1,36,-1
 1695 1165 l 1,37,-1
 1880 1165 l 1,38,-1
 1880 5 l 1,0,-1
EndSplineSet
EndChar

StartChar: ml_cha
Encoding: 3355 3355 160
Width: 2736
GlyphClass: 2
Flags: W
LayerCount: 2
Fore
SplineSet
2074 385 m 0,0,1
 2074 268 2074 268 2131 188 c 1,2,3
 2161 148 2161 148 2202 128 c 128,-1,4
 2243 108 2243 108 2297 108 c 0,5,6
 2404 108 2404 108 2464 195 c 0,7,8
 2523 280 2523 280 2523 393 c 0,9,10
 2523 504 2523 504 2463 580 c 1,11,12
 2403 659 2403 659 2296 659 c 0,13,14
 2192 659 2192 659 2131 581 c 1,15,16
 2074 505 2074 505 2074 385 c 0,0,1
2124 1063 m 0,17,18
 1867 1065 1867 1065 1734 891 c 1,19,20
 1680 813 1680 813 1653.5 727 c 128,-1,21
 1627 641 1627 641 1627 542 c 0,22,23
 1627 409 1627 409 1683 293 c 128,-1,24
 1739 177 1739 177 1840 93 c 1,25,-1
 1785 4 l 1,26,-1
 175 4 l 1,27,-1
 175 123 l 1,28,-1
 799 123 l 1,29,30
 962 181 962 181 962 403 c 0,31,32
 962 496 962 496 909 570 c 0,33,34
 883 606 883 606 842 625.5 c 128,-1,35
 801 645 801 645 748 645 c 0,36,37
 643 645 643 645 592 577 c 0,38,39
 542 511 542 511 542 420 c 0,40,41
 542 374 542 374 556.5 333.5 c 128,-1,42
 571 293 571 293 603 254 c 1,43,44
 576 240 576 240 550.5 226.5 c 128,-1,45
 525 213 525 213 498 199 c 1,46,47
 436 236 436 236 403 293 c 128,-1,48
 370 350 370 350 370 426 c 0,49,50
 370 506 370 506 404 572 c 128,-1,51
 438 638 438 638 501 686 c 1,52,53
 558 722 558 722 621 743 c 128,-1,54
 684 764 684 764 746 764 c 0,55,56
 912 764 912 764 1027 667 c 1,57,-1
 1027 668 l 1,58,59
 1149 561 1149 561 1149 400 c 0,60,61
 1149 238 1149 238 1006 123 c 1,62,-1
 1095 123 l 1,63,-1
 1616 124 l 1,64,65
 1586 152 1586 152 1555 198 c 128,-1,66
 1524 244 1524 244 1495 305 c 1,67,68
 1440 429 1440 429 1440 542 c 0,69,70
 1440 679 1440 679 1484.5 790 c 128,-1,71
 1529 901 1529 901 1619 993 c 1,72,73
 1802 1176 1802 1176 2102 1181 c 1,74,75
 2239 1174 2239 1174 2354 1131 c 128,-1,76
 2469 1088 2469 1088 2550 1012 c 1,77,78
 2722 845 2722 845 2722 566 c 2,79,-1
 2722 535 l 2,80,81
 2722 429 2722 429 2698.5 340.5 c 128,-1,82
 2675 252 2675 252 2627 178 c 0,83,84
 2510 -5 2510 -5 2284 -5 c 0,85,86
 2106 -5 2106 -5 2005 108 c 1,87,88
 1955 166 1955 166 1930 234.5 c 128,-1,89
 1905 303 1905 303 1905 387 c 0,90,91
 1905 553 1905 553 2011 662 c 1,92,93
 2118 768 2118 768 2274 768 c 1,94,95
 2391 771 2391 771 2473 726 c 1,96,97
 2527 698 2527 698 2550 679 c 1,98,99
 2546 815 2546 815 2429 938 c 0,100,101
 2369 1000 2369 1000 2293 1031.5 c 128,-1,102
 2217 1063 2217 1063 2124 1063 c 0,17,18
EndSplineSet
EndChar

StartChar: ml_ja
Encoding: 3356 3356 161
Width: 1956
GlyphClass: 2
Flags: W
LayerCount: 2
Fore
SplineSet
1072 331 m 1,0,-1
 553 331 l 2,1,2
 463 331 463 331 415 291 c 128,-1,3
 367 251 367 251 367 189 c 0,4,5
 367 46 367 46 548 46 c 0,6,7
 753 46 753 46 969 138 c 1,8,9
 1109 209 1109 209 1380 336 c 1,10,11
 1255 330 1255 330 1072 331 c 1,0,-1
496 589 m 0,12,13
 622 589 622 589 622 736 c 0,14,15
 622 799 622 799 590.5 832 c 128,-1,16
 559 865 559 865 499 865 c 0,17,18
 435 865 435 865 405 830 c 128,-1,19
 375 795 375 795 375 739 c 0,20,21
 375 666 375 666 403.5 627.5 c 128,-1,22
 432 589 432 589 496 589 c 0,12,13
1773 171 m 0,23,24
 1773 285 1773 285 1646 285 c 0,25,26
 1537 285 1537 285 1367 185 c 1,27,28
 1416 40 1416 40 1595 40 c 0,29,30
 1773 40 1773 40 1773 171 c 0,23,24
1059 1033 m 1,32,33
 1214 1184 1214 1184 1442 1184 c 1,34,35
 1649 1186 1649 1186 1796.5 1071 c 128,-1,36
 1944 956 1944 956 1944 776 c 0,37,38
 1944 505 1944 505 1700 403 c 1,39,40
 1796 393 1796 393 1856 338 c 0,41,42
 1928 271 1928 271 1928 154 c 256,43,44
 1928 37 1928 37 1834 -32 c 128,-1,45
 1740 -101 1740 -101 1600 -101 c 0,46,47
 1459 -101 1459 -101 1353.5 -39.5 c 128,-1,48
 1248 22 1248 22 1204 121 c 1,49,50
 990 13 990 13 908 -12 c 1,51,52
 728 -83 728 -83 537 -83 c 0,53,54
 372 -83 372 -83 277 -18.5 c 128,-1,55
 182 46 182 46 182 172 c 0,56,57
 182 297 182 297 286 369 c 0,58,59
 335 403 335 403 391 419 c 1,60,61
 471 440 471 440 576 440 c 2,62,-1
 1098 440 l 2,63,64
 1407 440 1407 440 1537 487 c 0,65,66
 1735 558 1735 558 1735 770 c 0,67,68
 1735 905 1735 905 1659 982 c 128,-1,69
 1583 1059 1583 1059 1439 1061 c 1,70,71
 1308 1059 1308 1059 1228.5 988 c 128,-1,72
 1149 917 1149 917 1149 799 c 2,73,-1
 1149 504 l 1,74,-1
 971 504 l 1,75,-1
 971 739 l 2,76,77
 971 862 971 862 945 911 c 1,78,79
 876 1058 876 1058 655 1061 c 1,80,81
 561 1068 561 1068 498 1049 c 1,82,83
 395 1011 395 1011 350 917 c 1,84,-1
 352 919 l 1,85,86
 417 962 417 962 525 962 c 0,87,88
 575 962 575 962 622.5 947.5 c 128,-1,89
 670 933 670 933 703 906 c 1,90,91
 777 842 777 842 784 752 c 1,92,93
 786 625 786 625 707 557 c 1,94,95
 631 484 631 484 486 484 c 1,96,97
 344 486 344 486 259 578 c 1,98,99
 176 670 176 670 177 805 c 1,100,101
 177 982 177 982 300 1081 c 1,102,103
 357 1132 357 1132 441 1157 c 128,-1,104
 525 1182 525 1182 645 1182 c 0,105,106
 689 1182 689 1182 730 1175 c 1,107,31
 945 1150 945 1150 1059 1033 c 1,32,33
EndSplineSet
EndChar

StartChar: ml_jha
Encoding: 3357 3357 162
Width: 3319
GlyphClass: 2
Flags: W
LayerCount: 2
Fore
SplineSet
1038 125 m 256,0,1
 1143 125 1143 125 1199 232 c 1,2,3
 1256 338 1256 338 1256 493 c 0,4,5
 1256 820 1256 820 1047 978 c 1,6,7
 992 938 992 938 948.5 883 c 128,-1,8
 905 828 905 828 875 758 c 1,9,10
 822 625 822 625 822 482 c 0,11,12
 822 337 822 337 874 235 c 1,13,14
 933 125 933 125 1038 125 c 256,0,1
2831 2 m 1,15,16
 2604 8 2604 8 2475 190 c 1,17,18
 2308 2 2308 2 2106 2 c 0,19,20
 1972 2 1972 2 1876.5 46.5 c 128,-1,21
 1781 91 1781 91 1723 177 c 1,22,23
 1686 243 1686 243 1665.5 337.5 c 128,-1,24
 1645 432 1645 432 1645 551 c 0,25,26
 1645 573 1645 573 1645.5 594.5 c 128,-1,27
 1646 616 1646 616 1647 635 c 1,28,-1
 1647 692 l 2,29,30
 1647 1065 1647 1065 1356 1065 c 0,31,32
 1272 1065 1272 1065 1176 1030 c 1,33,34
 1199 1014 1199 1014 1223.5 991 c 128,-1,35
 1248 968 1248 968 1274 936 c 1,36,37
 1297 905 1297 905 1321 867.5 c 128,-1,38
 1345 830 1345 830 1365 792 c 1,39,40
 1400 720 1400 720 1418.5 642.5 c 128,-1,41
 1437 565 1437 565 1437 483 c 0,42,43
 1437 475 1437 475 1436.5 467 c 128,-1,44
 1436 459 1436 459 1436 451 c 0,45,46
 1429 269 1429 269 1310 137 c 1,47,48
 1188 6 1188 6 1032 6 c 0,49,50
 874 6 874 6 754 149 c 0,51,52
 635 291 635 291 635 469 c 0,53,54
 635 556 635 556 658.5 643 c 128,-1,55
 682 730 682 730 726 810 c 1,56,57
 749 847 749 847 773 880.5 c 128,-1,58
 797 914 797 914 823 944 c 0,59,60
 875 1002 875 1002 918 1032 c 1,61,62
 853 1064 853 1064 764 1064 c 0,63,64
 680 1064 680 1064 607.5 1027.5 c 128,-1,65
 535 991 535 991 479 926 c 0,66,67
 426 863 426 863 396.5 783.5 c 128,-1,68
 367 704 367 704 363 609 c 1,69,70
 375 233 375 233 607 121 c 1,71,-1
 648 105 l 1,72,-1
 578 -22 l 1,73,-1
 541 -4 l 1,74,75
 178 186 178 186 181 650 c 1,76,77
 187 757 187 757 236 858.5 c 128,-1,78
 285 960 285 960 363 1030 c 1,79,80
 449 1105 449 1105 548 1145 c 128,-1,81
 647 1185 647 1185 756 1185 c 0,82,83
 828 1185 828 1185 898.5 1166.5 c 128,-1,84
 969 1148 969 1148 1039 1111 c 1,85,86
 1126 1146 1126 1146 1204 1164 c 128,-1,87
 1282 1182 1282 1182 1353 1182 c 0,88,89
 1836 1182 1836 1182 1836 697 c 0,90,91
 1836 689 1836 689 1835.5 676 c 128,-1,92
 1835 663 1835 663 1835 655 c 0,93,94
 1834 628 1834 628 1833.5 586.5 c 128,-1,95
 1833 545 1833 545 1833 487 c 0,96,97
 1833 371 1833 371 1854 295 c 1,98,99
 1876 220 1876 220 1941 171 c 256,100,101
 2006 122 2006 122 2104 122 c 0,102,103
 2153 122 2153 122 2199.5 145.5 c 128,-1,104
 2246 169 2246 169 2289 213 c 1,105,106
 2329 256 2329 256 2353.5 297.5 c 128,-1,107
 2378 339 2378 339 2378 373 c 2,108,-1
 2378 1185 l 1,109,-1
 2566 1185 l 1,110,-1
 2566 371 l 2,111,112
 2566 350 2566 350 2583.5 316 c 128,-1,113
 2601 282 2601 282 2633 238 c 0,114,115
 2676 181 2676 181 2729 152 c 1,116,117
 2775 125 2775 125 2829 123 c 1,118,119
 2977 123 2977 123 3060 259 c 1,120,121
 3139 406 3139 406 3130 565 c 1,122,123
 3114 939 3114 939 2882 1052 c 1,124,-1
 2841 1067 l 1,125,-1
 2911 1194 l 1,126,-1
 2948 1176 l 1,127,128
 3311 986 3311 986 3310 550 c 1,129,-1
 3310 549 l 1,130,-1
 3311 549 l 1,131,132
 3305 325 3305 325 3179 173 c 1,133,134
 3051 8 3051 8 2831 2 c 1,15,16
EndSplineSet
EndChar

StartChar: ml_nya
Encoding: 3358 3358 163
Width: 2956
GlyphClass: 2
Flags: W
LayerCount: 2
Fore
SplineSet
374 391 m 0,0,1
 374 250 374 250 433 165 c 1,2,3
 492 78 492 78 598 78 c 0,4,5
 705 78 705 78 764 158 c 0,6,7
 822 236 822 236 822 364 c 0,8,9
 822 504 822 504 764 579 c 0,10,11
 705 656 705 656 599 656 c 256,12,13
 493 656 493 656 434 578 c 1,14,15
 374 502 374 502 374 391 c 0,0,1
1979 99 m 256,16,17
 2070 99 2070 99 2132 211 c 0,18,19
 2196 326 2196 326 2200 462 c 1,20,21
 2200 597 2200 597 2145 730 c 0,22,23
 2091 862 2091 862 1981 947 c 1,24,-1
 1977 947 l 1,25,26
 1863 851 1863 851 1813 730 c 0,27,28
 1758 597 1758 597 1758 462 c 1,29,30
 1762 326 1762 326 1826 211 c 0,31,32
 1888 99 1888 99 1979 99 c 256,16,17
1609 1058 m 1,33,34
 1509 1042 1509 1042 1432 988 c 1,35,36
 1331 911 1331 911 1331 816 c 2,37,-1
 1331 10 l 1,38,-1
 1143 10 l 1,39,-1
 1144 819 l 2,40,41
 1144 914 1144 914 1039 991 c 1,42,43
 938 1067 938 1067 792 1062 c 1,44,45
 584 1061 584 1061 467 939 c 0,46,47
 351 817 351 817 357 653 c 1,48,49
 398 695 398 695 424 712 c 0,50,51
 468 740 468 740 517.5 754.5 c 128,-1,52
 567 769 567 769 623 769 c 0,53,54
 777 769 777 769 885 662 c 0,55,56
 992 555 992 555 992 387 c 0,57,58
 992 193 992 193 892 78 c 1,59,60
 791 -34 791 -34 612 -34 c 0,61,62
 388 -34 388 -34 269 149 c 0,63,64
 175 294 175 294 175 536 c 2,65,-1
 175 566 l 2,66,67
 175 846 175 846 343 1010 c 0,68,69
 512 1175 512 1175 797 1180 c 1,70,71
 882 1179 882 1179 937.5 1167 c 128,-1,72
 993 1155 993 1155 1041 1137 c 1,73,74
 1113 1103 1113 1103 1163.5 1063.5 c 128,-1,75
 1214 1024 1214 1024 1244 980 c 1,76,77
 1390 1183 1390 1183 1663 1176 c 1,78,79
 1856 1161 1856 1161 1981 1089 c 1,80,81
 2137 1172 2137 1172 2340 1172 c 0,82,83
 2416 1172 2416 1172 2496 1147 c 128,-1,84
 2576 1122 2576 1122 2657 1076 c 0,85,86
 2680 1062 2680 1062 2704.5 1044.5 c 128,-1,87
 2729 1027 2729 1027 2749 1010 c 1,88,-1
 2749 1011 l 1,89,90
 2833 934 2833 934 2880 841.5 c 128,-1,91
 2927 749 2927 749 2939 641 c 0,92,93
 2940 629 2940 629 2942 604 c 1,94,95
 2933 164 2933 164 2580 -23 c 1,96,-1
 2543 -40 l 1,97,-1
 2473 88 l 1,98,-1
 2514 104 l 1,99,100
 2740 215 2740 215 2759 533 c 1,101,102
 2757 569 2757 569 2753 624 c 1,103,104
 2738 784 2738 784 2636 908 c 1,105,106
 2514 1051 2514 1051 2340 1051 c 0,107,108
 2196 1051 2196 1051 2116 1010 c 1,109,110
 2386 776 2386 776 2386 471 c 1,111,112
 2366 257 2366 257 2258 123 c 1,113,114
 2132 -21 2132 -21 1975 -21 c 0,115,116
 1826 -21 1826 -21 1700 123 c 1,117,118
 1592 257 1592 257 1572 471 c 1,119,120
 1572 771 1572 771 1843 1010 c 1,121,122
 1743 1062 1743 1062 1609 1058 c 1,33,34
EndSplineSet
EndChar

StartChar: ml_tta
Encoding: 3359 3359 164
Width: 1185
GlyphClass: 2
Flags: W
LayerCount: 2
Fore
SplineSet
1171 334 m 0,0,1
 1171 240 1171 240 1127 169 c 128,-1,2
 1083 98 1083 98 1002 54 c 1,3,4
 937 23 937 23 857 5 c 128,-1,5
 777 -13 777 -13 686 -13 c 0,6,7
 627 -13 627 -13 570 -4 c 128,-1,8
 513 5 513 5 458 22 c 0,9,10
 406 38 406 38 362 56 c 128,-1,11
 318 74 318 74 289 92 c 256,12,13
 260 110 260 110 230.5 136.5 c 128,-1,14
 201 163 201 163 175 193 c 1,15,16
 202 222 202 222 229.5 250 c 128,-1,17
 257 278 257 278 284 307 c 1,18,19
 341 217 341 217 463 158 c 1,20,21
 520 133 520 133 575 120.5 c 128,-1,22
 630 108 630 108 686 108 c 0,23,24
 1009 108 1009 108 1009 334 c 0,25,26
 1009 401 1009 401 938 455 c 1,27,28
 850 517 850 517 697 517 c 0,29,30
 208 517 208 517 208 813 c 0,31,32
 208 910 208 910 251 985 c 128,-1,33
 294 1060 294 1060 376 1112 c 1,34,35
 429 1142 429 1142 504.5 1160 c 128,-1,36
 580 1178 580 1178 671 1180 c 1,37,38
 819 1174 819 1174 941 1120 c 128,-1,39
 1063 1066 1063 1066 1150 964 c 1,40,41
 1118 940 1118 940 1086 915.5 c 128,-1,42
 1054 891 1054 891 1023 865 c 1,43,44
 894 1043 894 1043 673 1043 c 0,45,46
 533 1043 533 1043 450 973 c 1,47,48
 369 911 369 911 369 813 c 0,49,50
 369 637 369 637 697 637 c 0,51,52
 1171 637 1171 637 1171 334 c 0,0,1
EndSplineSet
EndChar

StartChar: ml_ttha
Encoding: 3360 3360 165
Width: 1399
GlyphClass: 2
Flags: W
LayerCount: 2
Fore
SplineSet
1211 1000 m 0,0,1
 1385 824 1385 824 1385 566 c 0,2,3
 1385 437 1385 437 1339 332 c 128,-1,4
 1293 227 1293 227 1199 146 c 0,5,6
 1107 66 1107 66 1002.5 25.5 c 128,-1,7
 898 -15 898 -15 781 -15 c 0,8,9
 545 -15 545 -15 361 149 c 0,10,11
 175 314 175 314 175 566 c 0,12,13
 175 819 175 819 358 998 c 1,14,15
 541 1175 541 1175 789 1175 c 0,16,17
 1038 1175 1038 1175 1211 1000 c 0,0,1
793 1055 m 0,18,19
 581 1055 581 1055 463 901 c 1,20,21
 361 752 361 752 361 570 c 0,22,23
 361 387 361 387 475 248 c 1,24,25
 598 107 598 107 784 107 c 0,26,27
 965 107 965 107 1087 246 c 1,28,29
 1200 381 1200 381 1200 568 c 256,30,31
 1200 755 1200 755 1089 906 c 1,32,33
 978 1055 978 1055 793 1055 c 0,18,19
EndSplineSet
EndChar

StartChar: ml_dda
Encoding: 3361 3361 166
Width: 2637
GlyphClass: 2
Flags: W
LayerCount: 2
Fore
SplineSet
2622 571 m 1,0,1
 2620 456 2620 456 2590 359 c 0,2,3
 2558 255 2558 255 2496 175 c 1,4,5
 2424 89 2424 89 2330.5 45 c 128,-1,6
 2237 1 2237 1 2122 1 c 0,7,8
 1925 1 1925 1 1800 206 c 1,9,10
 1674 2 1674 2 1444 2 c 0,11,12
 980 2 980 2 980 603 c 0,13,14
 980 823 980 823 917 944 c 1,15,16
 844 1065 844 1065 680 1065 c 1,17,18
 517 1047 517 1047 445 923 c 1,19,20
 364 795 364 795 364 584 c 1,21,22
 359 220 359 220 666 81 c 1,23,-1
 598 -39 l 1,24,-1
 564 -25 l 1,25,26
 380 52 380 52 277 218 c 0,27,28
 175 382 175 382 175 584 c 0,29,30
 175 861 175 861 322 1019 c 0,31,32
 473 1181 473 1181 727 1180 c 1,33,34
 1167 1162 1167 1162 1167 603 c 0,35,36
 1167 365 1167 365 1211 259 c 1,37,38
 1273 125 1273 125 1447 125 c 0,39,40
 1552 125 1552 125 1629 199 c 0,41,42
 1705 271 1705 271 1705 347 c 2,43,-1
 1705 1172 l 1,44,-1
 1893 1172 l 1,45,-1
 1894 358 l 1,46,47
 1902 274 1902 274 1952 221 c 1,48,49
 2009 125 2009 125 2120 125 c 0,50,51
 2285 125 2285 125 2360 255 c 0,52,53
 2397 320 2397 320 2416 402 c 0,54,55
 2433 477 2433 477 2435 571 c 1,56,-1
 2434 571 l 1,57,58
 2439 936 2439 936 2132 1074 c 1,59,-1
 2200 1195 l 1,60,-1
 2234 1180 l 1,61,62
 2418 1104 2418 1104 2521 938 c 0,63,64
 2623 773 2623 773 2623 571 c 1,65,-1
 2622 571 l 1,0,1
EndSplineSet
EndChar

StartChar: ml_ddha
Encoding: 3362 3362 167
Width: 2863
GlyphClass: 2
Flags: W
LayerCount: 2
Fore
SplineSet
2649 795 m 0,0,1
 2649 849 2649 849 2633.5 899 c 128,-1,2
 2618 949 2618 949 2589 991 c 0,3,4
 2560 1032 2560 1032 2518 1054.5 c 128,-1,5
 2476 1077 2476 1077 2422 1077 c 0,6,7
 2315 1077 2315 1077 2257 998 c 1,8,9
 2199 917 2199 917 2199 801 c 0,10,11
 2199 687 2199 687 2257 608 c 0,12,13
 2313 532 2313 532 2421 532 c 256,14,15
 2529 532 2529 532 2588 608 c 0,16,17
 2649 685 2649 685 2649 795 c 0,0,1
2250 112 m 1,18,19
 2440 121 2440 121 2558 243 c 0,20,21
 2674 363 2674 363 2678 519 c 1,22,23
 2550 413 2550 413 2407 413 c 2,24,-1
 2402 413 l 2,25,26
 2250 413 2250 413 2139 520 c 1,27,28
 2032 627 2032 627 2032 794 c 0,29,30
 2032 960 2032 960 2132 1074 c 0,31,32
 2233 1189 2233 1189 2413 1189 c 0,33,34
 2522 1189 2522 1189 2609 1139.5 c 128,-1,35
 2696 1090 2696 1090 2756 1006 c 1,36,37
 2801 932 2801 932 2825 841 c 128,-1,38
 2849 750 2849 750 2849 645 c 2,39,-1
 2849 616 l 2,40,41
 2849 333 2849 333 2676 165 c 1,42,43
 2505 -4 2505 -4 2211 -4 c 1,44,45
 1925 1 1925 1 1800 206 c 1,46,47
 1674 2 1674 2 1444 2 c 0,48,49
 980 2 980 2 980 603 c 0,50,51
 980 823 980 823 917 944 c 1,52,53
 844 1065 844 1065 680 1065 c 1,54,55
 517 1047 517 1047 445 923 c 1,56,57
 364 795 364 795 364 584 c 2,58,-1
 364 572 l 2,59,60
 364 218 364 218 666 81 c 1,61,-1
 598 -39 l 1,62,-1
 564 -25 l 1,63,64
 380 52 380 52 277 218 c 0,65,66
 175 382 175 382 175 584 c 0,67,68
 175 861 175 861 322 1019 c 0,69,70
 472 1180 472 1180 724 1180 c 2,71,-1
 727 1180 l 1,72,73
 1167 1162 1167 1162 1167 603 c 0,74,75
 1167 365 1167 365 1211 259 c 1,76,77
 1273 125 1273 125 1447 125 c 0,78,79
 1552 125 1552 125 1629 199 c 0,80,81
 1705 271 1705 271 1705 347 c 2,82,-1
 1705 1172 l 1,83,-1
 1893 1172 l 1,84,-1
 1894 358 l 2,85,86
 1894 277 1894 277 1965 200 c 1,87,88
 2073 112 2073 112 2237 112 c 2,89,-1
 2250 112 l 1,18,19
EndSplineSet
EndChar

StartChar: ml_nna
Encoding: 3363 3363 168
Width: 2905
GlyphClass: 2
Flags: W
LayerCount: 2
Fore
SplineSet
374 370 m 0,0,1
 374 259 374 259 433 173 c 256,2,3
 492 87 492 87 599 87 c 256,4,5
 706 87 706 87 765 167 c 0,6,7
 823 245 823 245 823 363 c 0,8,9
 823 502 823 502 765 576 c 1,10,11
 706 653 706 653 600 653 c 0,12,13
 496 653 496 653 434 575 c 0,14,15
 374 500 374 500 374 370 c 0,0,1
2652 907 m 1,17,18
 2617 976 2617 976 2556.5 1016.5 c 128,-1,19
 2496 1057 2496 1057 2383 1057 c 0,20,21
 2240 1057 2240 1057 2164 966 c 0,22,23
 2089 876 2089 876 2089 751 c 2,24,-1
 2089 5 l 1,25,-1
 1900 5 l 1,26,-1
 1900 751 l 2,27,28
 1900 876 1900 876 1841 961 c 1,29,30
 1782 1055 1782 1055 1649 1057 c 0,31,32
 1524 1059 1524 1059 1450 991 c 1,33,34
 1353 909 1353 909 1353 800 c 2,35,-1
 1353 5 l 1,36,-1
 1165 5 l 1,37,-1
 1165 832 l 2,38,39
 1165 898 1165 898 1078 971 c 1,40,41
 992 1045 992 1045 831 1059 c 1,42,43
 585 1057 585 1057 468 935 c 0,44,45
 350 812 350 812 363 656 c 1,46,47
 385 684 385 684 425 709 c 0,48,49
 514 765 514 765 624 765 c 0,50,51
 777 765 777 765 885 659 c 1,52,53
 992 552 992 552 992 367 c 0,54,55
 992 202 992 202 892 87 c 1,56,57
 791 -25 791 -25 613 -25 c 0,58,59
 389 -25 389 -25 270 158 c 0,60,61
 175 303 175 303 175 532 c 2,62,-1
 175 564 l 2,63,64
 175 844 175 844 347 1008 c 0,65,66
 435 1091 435 1091 556.5 1133.5 c 128,-1,67
 678 1176 678 1176 821 1178 c 1,68,69
 968 1171 968 1171 1070 1124.5 c 128,-1,70
 1172 1078 1172 1078 1257 980 c 1,71,72
 1407 1177 1407 1177 1637 1175 c 0,73,74
 1875 1173 1875 1173 1994 989 c 1,75,76
 2124 1175 2124 1175 2392 1175 c 0,77,78
 2670 1175 2670 1175 2802 969 c 1,79,80
 2891 828 2891 828 2891 586 c 0,81,82
 2891 385 2891 385 2789 222 c 0,83,84
 2686 58 2686 58 2468 -32 c 1,85,-1
 2400 87 l 1,86,87
 2707 224 2707 224 2712 602 c 1,88,16
 2705 790 2705 790 2652 907 c 1,17,18
EndSplineSet
EndChar

StartChar: ml_ta
Encoding: 3364 3364 169
Width: 2112
GlyphClass: 2
Flags: W
LayerCount: 2
Fore
SplineSet
1135 104 m 256,0,1
 1226 104 1226 104 1288 216 c 0,2,3
 1352 331 1352 331 1356 467 c 1,4,5
 1356 602 1356 602 1301 735 c 0,6,7
 1247 867 1247 867 1137 952 c 1,8,-1
 1133 952 l 1,9,10
 1019 856 1019 856 969 735 c 0,11,12
 914 602 914 602 914 467 c 1,13,14
 918 331 918 331 982 216 c 0,15,16
 1044 104 1044 104 1135 104 c 256,0,1
1131 -16 m 0,17,18
 982 -16 982 -16 856 127 c 1,19,20
 748 262 748 262 728 476 c 1,21,22
 728 776 728 776 999 1015 c 1,23,24
 907 1055 907 1055 769 1056 c 1,25,26
 586 1035 586 1035 481 911 c 1,27,28
 379 786 379 786 364 625 c 0,29,30
 360 580 360 580 358 543 c 1,31,32
 377 222 377 222 603 109 c 1,33,-1
 644 93 l 1,34,-1
 574 -36 l 1,35,-1
 537 -19 l 1,36,37
 184 171 184 171 175 605 c 1,38,39
 177 630 177 630 178 642 c 0,40,41
 190 751 190 751 237 845 c 128,-1,42
 284 939 284 939 368 1016 c 1,43,-1
 368 1015 l 1,44,45
 388 1033 388 1033 412.5 1050 c 128,-1,46
 437 1067 437 1067 460 1082 c 1,47,48
 541 1129 541 1129 621 1154 c 128,-1,49
 701 1179 701 1179 777 1179 c 1,50,51
 996 1176 996 1176 1137 1094 c 1,52,53
 1293 1177 1293 1177 1496 1177 c 0,54,55
 1572 1177 1572 1177 1652 1152 c 128,-1,56
 1732 1127 1732 1127 1813 1081 c 0,57,58
 1836 1067 1836 1067 1860.5 1049.5 c 128,-1,59
 1885 1032 1885 1032 1905 1015 c 1,60,-1
 1905 1016 l 1,61,62
 1989 939 1989 939 2036 846.5 c 128,-1,63
 2083 754 2083 754 2095 646 c 0,64,65
 2096 634 2096 634 2098 609 c 1,66,67
 2089 169 2089 169 1736 -18 c 1,68,-1
 1699 -35 l 1,69,-1
 1629 93 l 1,70,-1
 1670 109 l 1,71,72
 1896 220 1896 220 1915 538 c 1,73,74
 1913 574 1913 574 1909 629 c 1,75,76
 1894 789 1894 789 1792 912 c 1,77,78
 1670 1056 1670 1056 1496 1056 c 0,79,80
 1352 1056 1352 1056 1272 1015 c 1,81,82
 1542 781 1542 781 1542 476 c 1,83,84
 1522 262 1522 262 1414 127 c 1,85,86
 1288 -16 1288 -16 1131 -16 c 0,17,18
EndSplineSet
EndChar

StartChar: ml_tha
Encoding: 3365 3365 170
Width: 1859
GlyphClass: 2
Flags: W
LayerCount: 2
Fore
SplineSet
1664 142 m 1,0,-1
 1664 749 l 2,1,2
 1664 880 1664 880 1594 968 c 256,3,4
 1524 1056 1524 1056 1362 1056 c 0,5,6
 1201 1056 1201 1056 1121 967 c 0,7,8
 1041 877 1041 877 1041 749 c 2,9,-1
 1041 142 l 1,10,-1
 1664 142 l 1,0,-1
175 3 m 1,11,-1
 175 1184 l 1,12,-1
 364 1184 l 1,13,-1
 364 126 l 1,14,-1
 851 125 l 1,15,-1
 851 749 l 2,16,17
 851 949 851 949 990 1070 c 0,18,19
 1129 1192 1129 1192 1350 1192 c 0,20,21
 1492 1192 1492 1192 1595 1138.5 c 128,-1,22
 1698 1085 1698 1085 1758 990 c 1,23,24
 1799 913 1799 913 1822 827 c 128,-1,25
 1845 741 1845 741 1845 654 c 0,26,27
 1844 490 1844 490 1843 330 c 128,-1,28
 1842 170 1842 170 1841 6 c 1,29,-1
 175 3 l 1,11,-1
EndSplineSet
EndChar

StartChar: ml_da
Encoding: 3366 3366 171
Width: 1441
GlyphClass: 2
Flags: W
LayerCount: 2
Fore
SplineSet
803 1179 m 1,0,1
 1079 1179 1079 1179 1213 1096 c 1,2,3
 1399 991 1399 991 1399 820 c 2,4,-1
 1399 815 l 2,5,6
 1399 652 1399 652 1279 584 c 1,7,8
 1307 566 1307 566 1332.5 541.5 c 128,-1,9
 1358 517 1358 517 1381 484 c 0,10,11
 1427 419 1427 419 1427 323 c 0,12,13
 1427 140 1427 140 1285 57 c 1,14,15
 1175 -10 1175 -10 999 -10 c 0,16,17
 912 -10 912 -10 844 0 c 0,18,19
 824 3 824 3 801 7 c 1,20,-1
 798 165 l 1,21,22
 835 138 835 138 892.5 120.5 c 128,-1,23
 950 103 950 103 979 103 c 0,24,25
 1038 103 1038 103 1086 114.5 c 128,-1,26
 1134 126 1134 126 1171 152 c 1,27,28
 1247 200 1247 200 1247 312 c 0,29,30
 1247 413 1247 413 1178 461 c 1,31,32
 1143 483 1143 483 1081.5 495.5 c 128,-1,33
 1020 508 1020 508 935 508 c 2,34,-1
 825 508 l 1,35,-1
 825 659 l 1,36,-1
 944 658 l 1,37,38
 1019 659 1019 659 1071 668 c 128,-1,39
 1123 677 1123 677 1155.5 696 c 128,-1,40
 1188 715 1188 715 1202.5 743.5 c 128,-1,41
 1217 772 1217 772 1217 813 c 0,42,43
 1217 941 1217 941 1112 1007 c 1,44,45
 1037 1059 1037 1059 803 1061 c 1,46,47
 605 1058 605 1058 486 918 c 1,48,49
 360 773 360 773 356 573 c 1,50,-1
 356 566 l 2,51,52
 356 262 356 262 477 60 c 1,53,-1
 338 -43 l 1,54,55
 175 206 175 206 175 577 c 0,56,57
 175 837 175 837 350 1005 c 0,58,59
 522 1171 522 1171 803 1179 c 1,0,1
EndSplineSet
EndChar

StartChar: ml_dha
Encoding: 3367 3367 172
Width: 2114
GlyphClass: 2
Flags: W
LayerCount: 2
Fore
SplineSet
1226 317 m 1,0,1
 1226 314 1226 314 1227 310 c 0,2,3
 1232 267 1232 267 1241 243 c 1,4,5
 1331 81 1331 81 1507 81 c 1,6,7
 1705 91 1705 91 1806 228 c 1,8,9
 1904 351 1904 351 1918 520 c 0,10,11
 1922 565 1922 565 1924 601 c 1,12,13
 1906 919 1906 919 1688 1030 c 1,14,-1
 1638 1056 l 1,15,-1
 1706 1178 l 1,16,-1
 1752 1156 l 1,17,18
 2091 969 2091 969 2100 540 c 1,19,20
 2098 515 2098 515 2097 503 c 0,21,22
 2086 385 2086 385 2040.5 292.5 c 128,-1,23
 1995 200 1995 200 1914 124 c 1,24,-1
 1914 125 l 1,25,26
 1895 107 1895 107 1871.5 90.5 c 128,-1,27
 1848 74 1848 74 1826 59 c 1,28,29
 1748 12 1748 12 1671 -12.5 c 128,-1,30
 1594 -37 1594 -37 1518 -37 c 0,31,32
 1295 -37 1295 -37 1138 111 c 1,33,34
 980 -32 980 -32 757 -32 c 0,35,36
 681 -32 681 -32 604 -7.5 c 128,-1,37
 527 17 527 17 449 64 c 1,38,39
 427 79 427 79 403.5 95.5 c 128,-1,40
 380 112 380 112 361 130 c 1,41,-1
 361 129 l 1,42,43
 280 205 280 205 234.5 297.5 c 128,-1,44
 189 390 189 390 178 498 c 0,45,46
 177 510 177 510 175 545 c 1,47,48
 184 974 184 974 523 1161 c 1,49,-1
 582 1183 l 1,50,-1
 639 1061 l 1,51,-1
 587 1035 l 1,52,53
 369 924 369 924 351 606 c 1,54,55
 353 570 353 570 357 515 c 0,56,57
 371 356 371 356 469 233 c 1,58,59
 570 110 570 110 749 86 c 1,60,61
 967 101 967 101 1034 248 c 1,62,63
 1043 272 1043 272 1048.5 315.5 c 128,-1,64
 1054 359 1054 359 1054 423 c 2,65,-1
 1054 1142 l 1,66,-1
 1219 1142 l 1,67,-1
 1220 423 l 2,68,69
 1220 360 1220 360 1225 315 c 1,70,-1
 1226 317 l 1,0,1
EndSplineSet
EndChar

StartChar: ml_na
Encoding: 3368 3368 173
Width: 2114
GlyphClass: 2
Flags: W
LayerCount: 2
Fore
SplineSet
1225 831 m 1,0,1
 1220 786 1220 786 1220 723 c 2,2,-1
 1219 4 l 1,3,-1
 1054 4 l 1,4,-1
 1054 723 l 2,5,6
 1054 787 1054 787 1048.5 830.5 c 128,-1,7
 1043 874 1043 874 1034 898 c 1,8,9
 967 1045 967 1045 749 1060 c 1,10,11
 570 1036 570 1036 469 913 c 1,12,13
 371 790 371 790 357 631 c 0,14,15
 353 576 353 576 351 540 c 1,16,17
 369 222 369 222 587 111 c 1,18,-1
 639 85 l 1,19,-1
 582 -37 l 1,20,-1
 523 -15 l 1,21,22
 184 172 184 172 175 601 c 1,23,24
 177 636 177 636 178 648 c 0,25,26
 189 756 189 756 234.5 848.5 c 128,-1,27
 280 941 280 941 361 1017 c 1,28,-1
 361 1016 l 1,29,30
 380 1034 380 1034 403.5 1050.5 c 128,-1,31
 427 1067 427 1067 449 1082 c 1,32,33
 527 1129 527 1129 604 1153.5 c 128,-1,34
 681 1178 681 1178 757 1178 c 0,35,36
 980 1178 980 1178 1138 1035 c 1,37,38
 1295 1183 1295 1183 1518 1183 c 0,39,40
 1594 1183 1594 1183 1671 1158.5 c 128,-1,41
 1748 1134 1748 1134 1826 1087 c 1,42,43
 1848 1072 1848 1072 1871.5 1055.5 c 128,-1,44
 1895 1039 1895 1039 1914 1021 c 1,45,-1
 1914 1022 l 1,46,47
 1995 946 1995 946 2040.5 853.5 c 128,-1,48
 2086 761 2086 761 2097 643 c 0,49,50
 2098 631 2098 631 2100 606 c 1,51,52
 2091 177 2091 177 1752 -10 c 1,53,-1
 1706 -32 l 1,54,-1
 1638 90 l 1,55,-1
 1688 116 l 1,56,57
 1906 227 1906 227 1924 545 c 1,58,59
 1922 581 1922 581 1918 626 c 0,60,61
 1904 795 1904 795 1806 918 c 1,62,63
 1705 1055 1705 1055 1507 1065 c 1,64,65
 1331 1065 1331 1065 1241 903 c 1,66,67
 1232 879 1232 879 1227 836 c 0,68,69
 1226 832 1226 832 1226 829 c 1,70,-1
 1225 831 l 1,0,1
EndSplineSet
EndChar

StartChar: ml_nnna
Encoding: 3369 3369 174
Width: 2298
GlyphClass: 2
Flags: W
LayerCount: 2
Fore
SplineSet
374 394 m 0,0,1
 374 254 374 254 433 170 c 1,2,3
 492 84 492 84 598 84 c 0,4,5
 705 84 705 84 764 163 c 0,6,7
 822 240 822 240 822 367 c 0,8,9
 822 506 822 506 764 580 c 0,10,11
 705 656 705 656 599 656 c 256,12,13
 493 656 493 656 434 579 c 1,14,15
 374 504 374 504 374 394 c 0,0,1
1669 1063 m 1,16,17
 1531 1058 1531 1058 1432 988 c 1,18,19
 1331 911 1331 911 1331 816 c 2,20,-1
 1331 10 l 1,21,-1
 1143 10 l 1,22,-1
 1144 819 l 2,23,24
 1144 914 1144 914 1039 991 c 1,25,26
 938 1067 938 1067 792 1062 c 1,27,28
 584 1061 584 1061 467 939 c 0,29,30
 351 817 351 817 357 653 c 1,31,32
 398 695 398 695 424 712 c 0,33,34
 468 740 468 740 517.5 754.5 c 128,-1,35
 567 769 567 769 623 769 c 0,36,37
 777 769 777 769 885 662 c 0,38,39
 992 555 992 555 992 387 c 0,40,41
 992 193 992 193 892 78 c 1,42,43
 791 -34 791 -34 612 -34 c 0,44,45
 388 -34 388 -34 269 149 c 0,46,47
 175 294 175 294 175 536 c 2,48,-1
 175 566 l 2,49,50
 175 846 175 846 343 1010 c 0,51,52
 512 1175 512 1175 797 1180 c 1,53,54
 882 1179 882 1179 937.5 1167 c 128,-1,55
 993 1155 993 1155 1041 1137 c 1,56,57
 1113 1103 1113 1103 1163.5 1063.5 c 128,-1,58
 1214 1024 1214 1024 1244 980 c 1,59,60
 1390 1183 1390 1183 1668 1183 c 1,61,62
 1758 1181 1758 1181 1838 1156.5 c 128,-1,63
 1918 1132 1918 1132 1999 1085 c 1,64,65
 2022 1070 2022 1070 2046.5 1053.5 c 128,-1,66
 2071 1037 2071 1037 2091 1020 c 1,67,-1
 2091 1021 l 1,68,69
 2175 945 2175 945 2222 852 c 128,-1,70
 2269 759 2269 759 2281 642 c 0,71,72
 2282 630 2282 630 2284 585 c 1,73,74
 2275 157 2275 157 1922 -29 c 1,75,-1
 1885 -47 l 1,76,-1
 1815 81 l 1,77,-1
 1856 96 l 1,78,79
 2082 207 2082 207 2101 524 c 1,80,81
 2099 561 2099 561 2095 625 c 1,82,83
 2080 793 2080 793 1978 917 c 1,84,85
 1873 1052 1873 1052 1669 1063 c 1,16,17
EndSplineSet
EndChar

StartChar: ml_pa
Encoding: 3370 3370 175
Width: 1957
GlyphClass: 2
Flags: W
LayerCount: 2
Fore
SplineSet
883 124 m 1,0,-1
 1756 124 l 1,1,-1
 1756 1196 l 1,2,-1
 1943 1196 l 1,3,-1
 1943 3 l 1,4,-1
 658 4 l 1,5,-1
 629 93 l 1,6,-1
 652 107 l 1,7,8
 803 185 803 185 799 382 c 1,9,10
 799 501 799 501 743.5 572 c 128,-1,11
 688 643 688 643 583 648 c 1,12,13
 473 648 473 648 416 576 c 128,-1,14
 359 504 359 504 359 389 c 0,15,16
 359 173 359 173 502 107 c 1,17,-1
 535 95 l 1,18,-1
 491 -7 l 1,19,-1
 442 9 l 1,20,21
 315 53 315 53 245 140 c 128,-1,22
 175 227 175 227 175 395 c 0,23,24
 175 561 175 561 291.5 662 c 128,-1,25
 408 763 408 763 584 763 c 256,26,27
 760 763 760 763 873 662 c 128,-1,28
 986 561 986 561 986 396 c 0,29,30
 986 235 986 235 883 124 c 1,0,-1
EndSplineSet
EndChar

StartChar: ml_pha
Encoding: 3371 3371 176
Width: 2536
GlyphClass: 2
Flags: W
LayerCount: 2
Fore
SplineSet
2338 144 m 1,0,-1
 2338 752 l 2,1,2
 2338 814 2338 814 2317.5 870.5 c 128,-1,3
 2297 927 2297 927 2262 970 c 1,4,5
 2224 1012 2224 1012 2162 1035 c 128,-1,6
 2100 1058 2100 1058 2015 1058 c 0,7,8
 1845 1058 1845 1058 1758 969 c 1,9,10
 1716 924 1716 924 1694.5 870 c 128,-1,11
 1673 816 1673 816 1673 752 c 2,12,-1
 1673 144 l 1,13,-1
 2338 144 l 1,0,-1
1483 125 m 1,14,-1
 1483 749 l 2,15,16
 1483 949 1483 949 1628 1069 c 1,17,18
 1774 1192 1774 1192 2005 1192 c 0,19,20
 2154 1192 2154 1192 2260.5 1140 c 128,-1,21
 2367 1088 2367 1088 2430 990 c 1,22,23
 2475 912 2475 912 2498.5 827.5 c 128,-1,24
 2522 743 2522 743 2522 654 c 0,25,26
 2521 490 2521 490 2519.5 330 c 128,-1,27
 2518 170 2518 170 2517 6 c 1,28,-1
 658 4 l 1,29,-1
 629 93 l 1,30,-1
 652 107 l 1,31,32
 803 185 803 185 799 382 c 1,33,34
 799 501 799 501 743.5 572 c 128,-1,35
 688 643 688 643 583 648 c 1,36,37
 473 648 473 648 416 576 c 128,-1,38
 359 504 359 504 359 389 c 0,39,40
 359 173 359 173 502 107 c 1,41,-1
 535 95 l 1,42,-1
 491 -7 l 1,43,-1
 442 9 l 1,44,45
 315 53 315 53 245 140 c 128,-1,46
 175 227 175 227 175 395 c 0,47,48
 175 561 175 561 291.5 662 c 128,-1,49
 408 763 408 763 584 763 c 256,50,51
 760 763 760 763 873 662 c 128,-1,52
 986 561 986 561 986 396 c 0,53,54
 986 235 986 235 883 124 c 1,55,-1
 1483 125 l 1,14,-1
EndSplineSet
EndChar

StartChar: ml_ba
Encoding: 3372 3372 177
Width: 2701
GlyphClass: 2
Flags: W
LayerCount: 2
Fore
SplineSet
600 657 m 256,0,1
 495 657 495 657 433 579 c 0,2,3
 373 503 373 503 373 392 c 0,4,5
 373 279 373 279 432 194 c 0,6,7
 491 108 491 108 599 108 c 0,8,9
 705 108 705 108 764 188 c 0,10,11
 822 266 822 266 822 384 c 0,12,13
 822 505 822 505 764 580 c 0,14,15
 705 657 705 657 600 657 c 256,0,1
1211 983 m 1,16,17
 1387 1184 1387 1184 1589 1184 c 0,18,19
 1793 1184 1793 1184 1932 1031 c 1,20,21
 2066 875 2066 875 2066 610 c 0,22,23
 2066 453 2066 453 2009 331 c 128,-1,24
 1952 209 1952 209 1835 123 c 1,25,-1
 2498 123 l 1,26,-1
 2498 1184 l 1,27,-1
 2687 1184 l 1,28,-1
 2687 4 l 1,29,-1
 1649 4 l 1,30,31
 1641 33 1641 33 1634 62.5 c 128,-1,32
 1627 92 1627 92 1619 122 c 1,33,34
 1876 266 1876 266 1876 610 c 0,35,36
 1876 933 1876 933 1714 1031 c 0,37,38
 1661 1062 1661 1062 1577 1062 c 0,39,40
 1536 1062 1536 1062 1491 1039.5 c 128,-1,41
 1446 1017 1446 1017 1398 974 c 0,42,43
 1350 930 1350 930 1325 877.5 c 128,-1,44
 1300 825 1300 825 1300 765 c 0,45,46
 1300 575 1300 575 1300.5 384.5 c 128,-1,47
 1301 194 1301 194 1301 3 c 1,48,-1
 1112 3 l 1,49,-1
 1114 763 l 2,50,51
 1114 822 1114 822 1087.5 876 c 128,-1,52
 1061 930 1061 930 1013 974 c 1,53,54
 913 1062 913 1062 771 1068 c 1,55,56
 578 1057 578 1057 465 938 c 0,57,58
 350 816 350 816 359 667 c 1,59,60
 407 708 407 708 442 729 c 1,61,62
 477 748 477 748 523 759 c 128,-1,63
 569 770 569 770 623 770 c 0,64,65
 776 770 776 770 884 663 c 0,66,67
 991 556 991 556 991 388 c 0,68,69
 991 222 991 222 892 109 c 0,70,71
 791 -5 791 -5 612 -5 c 0,72,73
 388 -5 388 -5 269 179 c 0,74,75
 175 323 175 323 175 537 c 2,76,-1
 175 567 l 2,77,78
 175 848 175 848 345 1013 c 1,79,80
 514 1179 514 1179 779 1184 c 1,81,82
 838 1184 838 1184 895.5 1170.5 c 128,-1,83
 953 1157 953 1157 1013 1131 c 1,84,85
 1131 1076 1131 1076 1207 983 c 1,86,-1
 1211 983 l 1,16,17
EndSplineSet
EndChar

StartChar: ml_bha
Encoding: 3373 3373 178
Width: 1463
GlyphClass: 2
Flags: W
LayerCount: 2
Fore
SplineSet
854 1186 m 1,0,-1
 859 1186 l 2,1,2
 1077 1186 1077 1186 1233 1108 c 0,3,4
 1421 1014 1421 1014 1421 856 c 2,5,-1
 1421 840 l 1,6,7
 1418 739 1418 739 1356 697 c 0,8,9
 1294 654 1294 654 1220 654 c 2,10,-1
 1205 654 l 2,11,12
 1158 654 1158 654 1094 668 c 0,13,14
 1029 683 1029 683 979 683 c 256,15,16
 929 683 929 683 901 663 c 1,17,18
 871 639 871 639 870 552 c 1,19,20
 872 517 872 517 891 496 c 128,-1,21
 910 475 910 475 955 475 c 0,22,23
 1001 475 1001 475 1066 497 c 0,24,25
 1099 508 1099 508 1131.5 513 c 128,-1,26
 1164 518 1164 518 1194 518 c 0,27,28
 1298 518 1298 518 1373 453 c 0,29,30
 1449 388 1449 388 1449 273 c 0,31,32
 1449 -30 1449 -30 1016 -30 c 0,33,34
 912 -30 912 -30 766 -2 c 1,35,-1
 805 169 l 1,36,37
 912 100 912 100 1049 92 c 1,38,-1
 1057 92 l 2,39,40
 1138 92 1138 92 1209 133 c 1,41,42
 1278 180 1278 180 1278 258 c 0,43,44
 1278 304 1278 304 1239 345 c 0,45,46
 1201 385 1201 385 1151 385 c 0,47,48
 1125 385 1125 385 1097.5 378.5 c 128,-1,49
 1070 372 1070 372 1039 360 c 0,50,51
 976 334 976 334 921 334 c 1,52,53
 818 337 818 337 762 390 c 128,-1,54
 706 443 706 443 706 547 c 2,55,-1
 706 562 l 2,56,57
 706 714 706 714 766 765 c 0,58,59
 829 818 829 818 906 818 c 2,60,-1
 909 818 l 1,61,62
 989 816 989 816 1047 800 c 0,63,64
 1079 791 1079 791 1104 786 c 128,-1,65
 1129 781 1129 781 1151 781 c 0,66,67
 1192 781 1192 781 1220 806 c 0,68,69
 1248 830 1248 830 1248 865 c 0,70,71
 1248 907 1248 907 1218.5 941.5 c 128,-1,72
 1189 976 1189 976 1132 1008 c 1,73,74
 1014 1064 1014 1064 864 1064 c 0,75,76
 839 1064 839 1064 811 1063 c 0,77,78
 613 1052 613 1052 486 918 c 1,79,80
 360 773 360 773 356 573 c 1,81,-1
 356 566 l 2,82,83
 356 246 356 246 499 58 c 1,84,-1
 376 -42 l 1,85,86
 175 206 175 206 175 577 c 0,87,88
 175 837 175 837 350 1005 c 0,89,90
 522 1171 522 1171 854 1186 c 1,0,-1
EndSplineSet
EndChar

StartChar: ml_ma
Encoding: 3374 3374 179
Width: 1307
GlyphClass: 2
Flags: W
LayerCount: 2
Fore
SplineSet
1293 10 m 1,0,-1
 175 10 l 1,1,2
 175 77 175 77 176 333.5 c 128,-1,3
 177 590 177 590 177 658 c 1,4,5
 184 771 184 771 229.5 872.5 c 128,-1,6
 275 974 275 974 347 1045 c 1,7,8
 425 1110 425 1110 530.5 1149 c 128,-1,9
 636 1188 636 1188 758 1188 c 0,10,11
 885 1188 885 1188 985 1149.5 c 128,-1,12
 1085 1111 1085 1111 1161 1036 c 0,13,14
 1244 954 1244 954 1271 855 c 0,15,16
 1296 760 1296 760 1293 646 c 1,17,-1
 1293 10 l 1,0,-1
1139 142 m 1,18,-1
 1139 336 l 2,19,20
 1139 398 1139 398 1138.5 466 c 128,-1,21
 1138 534 1138 534 1137 611 c 1,22,-1
 1137 646 l 1,23,24
 1136 820 1136 820 1077 905 c 0,25,26
 1017 990 1017 990 932 1030.5 c 128,-1,27
 847 1071 847 1071 732 1071 c 1,28,29
 597 1062 597 1062 508 1003 c 256,30,31
 419 944 419 944 388 859 c 1,32,33
 488 937 488 937 614 937 c 0,34,35
 763 937 763 937 856 841 c 0,36,37
 901 795 901 795 924 731 c 128,-1,38
 947 667 947 667 949 594 c 1,39,40
 938 473 938 473 868.5 359.5 c 128,-1,41
 799 246 799 246 669 142 c 1,42,-1
 1139 142 l 1,18,-1
443 142 m 1,43,44
 561 221 561 221 669 347 c 1,45,46
 723 412 723 412 750 471 c 128,-1,47
 777 530 777 530 777 589 c 0,48,49
 777 824 777 824 604 829 c 1,50,-1
 596 829 l 2,51,52
 508 829 508 829 434 755 c 0,53,54
 357 678 357 678 344 595 c 1,55,-1
 344 142 l 1,56,-1
 443 142 l 1,43,44
EndSplineSet
EndChar

